<svg xmlns="http://www.w3.org/2000/svg" width="232.458" height="154.998" viewBox="0 0 232.458 154.998">
  <g id="Group_39598" data-name="Group 39598" transform="translate(0 0)">
    <g id="Group_39561" data-name="Group 39561" transform="translate(158.221 92.997)">
      <path id="Path_34536" data-name="Path 34536" d="M320.136,239.47S344.2,228.049,365,224.786s22.434-1.427,22.638,2.651-17.132,13.256-44.052,15.7-30.184.408-30.184.408Z" transform="translate(-313.406 -223.111)" fill="#fdc2c8"/>
      <path id="Path_34537" data-name="Path 34537" d="M320.079,260.265s34.671,1.223,49.354,5.914,18.355,9.994,15.5,14.48-25.085,2.039-38.75-3.059S320.079,260.265,320.079,260.265Z" transform="translate(-316.408 -239.827)" fill="#fdc2c8"/>
      <g id="Group_39544" data-name="Group 39544" transform="translate(7.546 3.156)">
        <path id="Path_34538" data-name="Path 34538" d="M327.26,246.794c8.273-3.148,16.934-5.281,25.472-7.575,9.71-2.607,19.429-5.186,29.171-7.669,1.934-.493,3.868-.982,5.807-1.453.7-.171,1.413-.318,2.112-.5.461-.12.914-.358,1.379-.449.193-.037.111-.332-.081-.295-.4.078-.835.057-1.243.123-.6.1-1.193.265-1.784.405-1.65.392-3.3.8-4.942,1.21q-6.784,1.695-13.547,3.471c-9.505,2.481-19,5.009-28.457,7.667-1.621.455-3.24.913-4.85,1.406a50.051,50.051,0,0,0-9.122,3.46c-.108.058-.034.246.085.2Z" transform="translate(-327.123 -228.848)" fill="#c44f50"/>
      </g>
      <g id="Group_39545" data-name="Group 39545" transform="translate(6.952 22.748)">
        <path id="Path_34539" data-name="Path 34539" d="M326.2,264.9c14.908,4.877,30.444,7.443,45.422,12.076q3.142.972,6.25,2.055c2.061.722,4.109,1.553,6.214,2.138.333.092.558-.4.24-.568a63.5,63.5,0,0,0-10.849-3.9c-3.788-1.146-7.609-2.193-11.441-3.183-7.591-1.961-15.238-3.694-22.837-5.622-4.305-1.092-8.612-2.2-12.882-3.421a.22.22,0,0,0-.117.424Z" transform="translate(-326.043 -264.463)" fill="#c44f50"/>
      </g>
      <g id="Group_39546" data-name="Group 39546" transform="translate(24.442 15.616)">
        <path id="Path_34540" data-name="Path 34540" d="M358.263,251.5l-.408.2c-.035.018,0,.07.031.053l.408-.2c.035-.018,0-.07-.031-.053Z" transform="translate(-357.839 -251.498)" fill="#c44f50"/>
      </g>
      <g id="Group_39547" data-name="Group 39547" transform="translate(24.151 6.376)">
        <path id="Path_34541" data-name="Path 34541" d="M357.725,244.165l-.234.056a.28.28,0,0,0,.1-.062c.046-.057.19-.156.229-.2.162-.177.3-.381.449-.57.322-.42.62-.859.94-1.281.695-.915,1.464-1.784,2.232-2.638.72-.8,1.454-1.585,2.218-2.344a23.318,23.318,0,0,0,2.257-2.33c.037-.05-.036-.119-.085-.085a14.855,14.855,0,0,0-2.294,2.169c-.777.826-1.552,1.656-2.309,2.5-.737.822-1.449,1.668-2.185,2.491-.366.41-.75.807-1.1,1.231-.261.314-.646.681-.633,1.117a.036.036,0,0,0,.026.034.337.337,0,0,0,.4-.08,0,0,0,0,0-.007-.007Z" transform="translate(-357.309 -234.701)" fill="#c44f50"/>
      </g>
      <g id="Group_39548" data-name="Group 39548" transform="translate(36.789 12.122)">
        <path id="Path_34542" data-name="Path 34542" d="M380.429,245.572a45.59,45.59,0,0,0,7.943,2.061l4.085.844a18.432,18.432,0,0,0,4.04.56c.1,0,.161-.158.055-.2a17.666,17.666,0,0,0-3.76-1.008L388.546,247a73.974,73.974,0,0,1-8-1.843c-.271-.084-.365.314-.114.415Z" transform="translate(-380.283 -245.146)" fill="#c44f50"/>
      </g>
      <g id="Group_39549" data-name="Group 39549" transform="translate(45.59 2.057)">
        <path id="Path_34543" data-name="Path 34543" d="M396.554,234.8c.7-.645,1.385-1.3,2.065-1.969.7-.684,1.333-1.429,2.049-2.094q1.045-.972,2.145-1.881.535-.444,1.077-.878a4.145,4.145,0,0,0,1.04-.953.116.116,0,0,0-.13-.169,3.272,3.272,0,0,0-1.017.689q-.563.468-1.117.946-1.108.957-2.191,1.945c-.7.64-1.454,1.233-2.138,1.9a23.76,23.76,0,0,0-2.013,2.239.162.162,0,0,0,.23.229Z" transform="translate(-396.283 -226.85)" fill="#c44f50"/>
      </g>
      <g id="Group_39550" data-name="Group 39550" transform="translate(59.75 0.79)">
        <path id="Path_34544" data-name="Path 34544" d="M422.319,229.4c1.609-1.7,3.411-3.186,5.159-4.737.058-.052-.016-.14-.081-.105a19.175,19.175,0,0,0-5.328,4.593c-.145.171.091.418.25.25Z" transform="translate(-422.024 -224.546)" fill="#c44f50"/>
      </g>
      <g id="Group_39551" data-name="Group 39551" transform="translate(55.394 7.801)">
        <path id="Path_34545" data-name="Path 34545" d="M414.225,237.621c1.846.267,3.693.536,5.521.912.9.184,1.791.377,2.674.611a24.227,24.227,0,0,0,2.759.678.082.082,0,0,0,.063-.148,14.4,14.4,0,0,0-5.358-1.642c-1.861-.32-3.738-.53-5.615-.739-.185-.021-.231.3-.045.328Z" transform="translate(-414.105 -237.291)" fill="#c44f50"/>
      </g>
      <g id="Group_39552" data-name="Group 39552" transform="translate(20.828 16.861)">
        <path id="Path_34546" data-name="Path 34546" d="M351.275,253.838c.287.513,1.154.588,1.672.7.819.171,1.633.354,2.442.569s1.612.446,2.408.7a18.365,18.365,0,0,0,2.407.678.1.1,0,0,0,.074-.174,15.063,15.063,0,0,0-4.5-1.679q-1.175-.3-2.367-.531c-.362-.07-.727-.118-1.091-.178a4.309,4.309,0,0,0-1.007-.152.048.048,0,0,0-.041.072Z" transform="translate(-351.268 -253.762)" fill="#c44f50"/>
      </g>
      <g id="Group_39553" data-name="Group 39553" transform="translate(20.015 21.964)">
        <path id="Path_34547" data-name="Path 34547" d="M350.024,267.62c1.516-.66,3.027-1.314,4.514-2.036.729-.354,1.447-.726,2.162-1.105a8.988,8.988,0,0,0,2.019-1.244.116.116,0,0,0-.112-.192,10.025,10.025,0,0,0-2.182.968c-.723.365-1.447.726-2.167,1.1-1.463.75-2.915,1.522-4.389,2.251-.179.089-.022.341.155.264Z" transform="translate(-349.79 -263.039)" fill="#c44f50"/>
      </g>
      <g id="Group_39554" data-name="Group 39554" transform="translate(33.613 25.103)">
        <path id="Path_34548" data-name="Path 34548" d="M374.758,273.343c3.03-1.579,6.233-2.824,9.226-4.472.065-.036.021-.148-.052-.122-1.633.581-3.205,1.3-4.791,2a31.849,31.849,0,0,0-4.551,2.309.167.167,0,0,0,.169.289Z" transform="translate(-374.509 -268.745)" fill="#c44f50"/>
      </g>
      <g id="Group_39555" data-name="Group 39555" transform="translate(47.586 29.632)">
        <path id="Path_34549" data-name="Path 34549" d="M400.116,280.848c1.6-.568,3.185-1.169,4.767-1.78q1.169-.45,2.343-.886a7.245,7.245,0,0,0,2.127-.951.15.15,0,0,0-.1-.253,6.926,6.926,0,0,0-2.263.668q-1.215.457-2.423.93c-1.547.6-3.074,1.258-4.572,1.975a.163.163,0,0,0,.125.3Z" transform="translate(-399.911 -276.978)" fill="#c44f50"/>
      </g>
      <g id="Group_39556" data-name="Group 39556" transform="translate(59.939 35.138)">
        <path id="Path_34550" data-name="Path 34550" d="M422.65,289.02a21.372,21.372,0,0,1,3.066-.989c.524-.125,1.049-.241,1.577-.348a8.909,8.909,0,0,0,1.555-.385c.107-.043.145-.234,0-.258a7.755,7.755,0,0,0-3.232.408,21.8,21.8,0,0,0-3.138,1.161c-.229.105-.064.507.173.411Z" transform="translate(-422.368 -286.988)" fill="#c44f50"/>
      </g>
      <g id="Group_39557" data-name="Group 39557" transform="translate(53.272 35.425)">
        <path id="Path_34551" data-name="Path 34551" d="M410.289,287.852c.835,1.109,1.7,2.184,2.615,3.225a22.045,22.045,0,0,0,2.9,2.942c.171.131.411-.124.294-.294a15.174,15.174,0,0,0-1.266-1.531c-.469-.52-.928-1.049-1.395-1.572-.918-1.029-1.855-2.036-2.793-3.048-.173-.186-.519.067-.36.278Z" transform="translate(-410.248 -287.509)" fill="#c44f50"/>
      </g>
      <g id="Group_39558" data-name="Group 39558" transform="translate(38.875 31.39)">
        <path id="Path_34552" data-name="Path 34552" d="M384.091,280.426a19.958,19.958,0,0,0,2.764,4.741,20.474,20.474,0,0,0,3.9,3.907c.129.093.259-.1.162-.21a51.3,51.3,0,0,1-3.506-4.127c-1.045-1.446-2.039-2.932-2.945-4.469-.114-.193-.468-.063-.376.158Z" transform="translate(-384.075 -280.173)" fill="#c44f50"/>
      </g>
      <g id="Group_39559" data-name="Group 39559" transform="translate(25.605 28.164)">
        <path id="Path_34553" data-name="Path 34553" d="M359.986,274.6a43.828,43.828,0,0,0,4.357,5.733c.806.9,1.638,1.769,2.484,2.627.424.428.851.853,1.289,1.268a6.706,6.706,0,0,0,1.372,1.131c.189.1.45-.113.314-.314a7.746,7.746,0,0,0-1.165-1.2c-.416-.391-.83-.784-1.237-1.185q-1.29-1.27-2.48-2.632c-1.593-1.815-3.127-3.7-4.586-5.628-.152-.2-.49-.021-.347.2Z" transform="translate(-359.952 -274.309)" fill="#c44f50"/>
      </g>
      <g id="Group_39560" data-name="Group 39560" transform="translate(14.972 25.286)">
        <path id="Path_34554" data-name="Path 34554" d="M340.645,269.343a18.62,18.62,0,0,0,1.84,3.14,15.949,15.949,0,0,0,1.143,1.387,8.106,8.106,0,0,0,1.3,1.255c.212.144.458-.134.34-.34a13.781,13.781,0,0,0-1.044-1.375q-.542-.715-1.093-1.425c-.727-.938-1.465-1.872-2.173-2.825a.182.182,0,0,0-.314.183Z" transform="translate(-340.623 -269.077)" fill="#c44f50"/>
      </g>
    </g>
    <g id="Group_39562" data-name="Group 39562" transform="translate(167.131 120.888)">
      <path id="Path_34555" data-name="Path 34555" d="M356.838,300.089a.25.25,0,0,0,.165.418c.02.005.034.019.056.019a37.861,37.861,0,0,0,10.41-1.3c.545-.157,1.182-.446,1.172-1.114-.01-.729-.72-1.067-1.341-1.156a12.616,12.616,0,0,0-5.426.785A12.851,12.851,0,0,0,356.838,300.089Z" transform="translate(-341.825 -284.192)" fill="#dc9596"/>
      <path id="Path_34556" data-name="Path 34556" d="M386.637,296.922a14.651,14.651,0,0,0-7.114-2.407,25.439,25.439,0,0,0-4.747-.049,19.89,19.89,0,0,0-3.659.522q-2.141-.513-4.283-1.018c-.271-.064-.542-.124-.813-.187a3.686,3.686,0,0,0-.4-.184.282.282,0,0,0-.282.028l-.176-.041c.344-.042.683-.091,1.005-.131a31.925,31.925,0,0,0,3.808-.712,30.692,30.692,0,0,0,3.931-1.276,10.177,10.177,0,0,0,3.01-1.547,1.9,1.9,0,0,0,.6-2.434c-.521-.724-1.541-.662-2.324-.574a22.866,22.866,0,0,0-6.755,1.848,20.563,20.563,0,0,0-3.6,2.07,11.314,11.314,0,0,0-2.456,2.155c-1.43-.289-2.865-.55-4.314-.765q-9.054-1.345-18.147-2.423-1.144-.134-2.29-.228l.009,0q1.2-.342,2.386-.7c1.49-.456,2.97-.943,4.429-1.49a27.108,27.108,0,0,0,7.618-4.015c.667-.539,2.328-1.741,1.8-2.79-.518-1.03-2.148-.745-3.04-.616a21.744,21.744,0,0,0-8.193,3.357,29.378,29.378,0,0,0-3.823,2.9,18.813,18.813,0,0,0-2.937,3.064c-.118.053-.236.106-.349.166h0c-.74-.032-1.482-.049-2.223-.045l.044-.164a26.942,26.942,0,0,0,2.452-2.439c.966-1.019,1.935-2.051,2.816-3.145.9-1.121,1.761-2.276,2.555-3.477a10.968,10.968,0,0,0,1.836-3.508,2.5,2.5,0,0,0-.828-2.677c-.925-.566-1.879.419-2.519.984a19,19,0,0,0-4.4,5.978,28.65,28.65,0,0,0-2.588,8.119c-.09.1-.187.2-.272.3a.22.22,0,0,0-.025.046c-.915.027-1.829.084-2.744.181-.039,0-.04.064,0,.062.914-.047,1.827-.051,2.74-.027a.2.2,0,0,0,.307.1c.042-.028.083-.059.124-.087l.087,0a.324.324,0,0,0,.191.007c.65.028,1.3.072,1.948.127a.218.218,0,0,0,.041.137c.009.012.02.023.029.034a13.9,13.9,0,0,0,1.927,5.718,15.954,15.954,0,0,0,3.959,4.833c.693.537,1.819,1.209,2.732.809.823-.36.495-1.565.312-2.216a14.393,14.393,0,0,0-3.226-5.45,19.792,19.792,0,0,0-2.558-2.411c-.461-.359-.935-.7-1.424-1.02-.151-.1-.3-.2-.452-.3l.03-.007c2.174.238,4.342.592,6.5.963a7.578,7.578,0,0,0,1.382,2.837,23.061,23.061,0,0,0,2.118,2.625,24.2,24.2,0,0,0,5.389,4.334,2.79,2.79,0,0,0,2.751.425,1.6,1.6,0,0,0,.573-2.2c-.9-2.024-3.006-3.487-4.772-4.711a35.442,35.442,0,0,0-3.574-2.165c-.48-.255-.968-.493-1.458-.727.777.134,1.553.265,2.327.389,5.832.932,11.708,1.6,17.46,2.966a14.867,14.867,0,0,0,.985,2.672c.508,1.16.992,2.332,1.567,3.461a26.335,26.335,0,0,0,4.3,5.941c.558.6,1.535,1.552,2.446,1.091s.49-1.684.233-2.409a24.68,24.68,0,0,0-3.376-6.368,25.513,25.513,0,0,0-2.532-2.951c-.249-.248-.515-.52-.792-.792.943.212,1.886.432,2.82.678a9.621,9.621,0,0,0,3.4,1.708,39,39,0,0,0,3.984,1.318,36.634,36.634,0,0,0,8.259,1.255c.761.028,1.968.155,1.93-.94A3.5,3.5,0,0,0,386.637,296.922Z" transform="translate(-329.603 -273.813)" fill="#dc9596"/>
    </g>
    <g id="Group_39568" data-name="Group 39568" transform="translate(157.911 18.703)">
      <path id="Path_34557" data-name="Path 34557" d="M332.169,115.352c7.341-6.547,9.325-9.92,11.706-14.682s6.746-14.483,17.857-12.3,11.11,11.705,8.531,17.459-6.547,5.952-6.349,13.69,1.389,16.071-10.714,23.61S318.48,162.771,313.718,158.6,324.828,121.9,332.169,115.352Z" transform="translate(-312.842 -88.055)" fill="#fdc2c8"/>
      <g id="Group_39563" data-name="Group 39563" transform="translate(12.154 7.929)">
        <path id="Path_34558" data-name="Path 34558" d="M334.99,151.6c2.352-3.209,4.748-6.383,7.069-9.615s4.615-6.466,6.971-9.665c4.774-6.484,9.6-12.928,14.65-19.2q2.087-2.594,4.2-5.166c1.394-1.694,2.874-3.341,4.119-5.15.151-.219-.175-.448-.358-.276a49.791,49.791,0,0,0-4.042,4.547q-1.9,2.291-3.753,4.62-3.683,4.644-7.247,9.381c-4.787,6.335-9.364,12.818-14,19.266-2.646,3.682-5.121,7.478-7.661,11.232-.02.03.027.057.048.028Z" transform="translate(-334.937 -102.469)" fill="#c44f50"/>
      </g>
      <g id="Group_39564" data-name="Group 39564" transform="translate(31.456 8.248)">
        <path id="Path_34559" data-name="Path 34559" d="M370.162,124.369a109.888,109.888,0,0,1,2.682-10.84c1.07-3.588,2.692-6.914,4.074-10.379.036-.092-.1-.14-.153-.065a44.988,44.988,0,0,0-4.515,10.28,46.6,46.6,0,0,0-2.224,10.985.07.07,0,0,0,.137.019Z" transform="translate(-370.025 -103.049)" fill="#c44f50"/>
      </g>
      <g id="Group_39565" data-name="Group 39565" transform="translate(36.681 16.115)">
        <path id="Path_34560" data-name="Path 34560" d="M379.788,124.564c2.95-1.156,5.887-2.346,8.83-3.517q2.177-.866,4.361-1.711,1.092-.422,2.187-.839a5.908,5.908,0,0,0,1.827-.837.183.183,0,0,0-.128-.31,6.066,6.066,0,0,0-2,.616q-1.094.418-2.187.841-2.253.871-4.5,1.766c-2.875,1.15-5.736,2.336-8.559,3.609-.214.1-.06.469.161.383Z" transform="translate(-379.525 -117.35)" fill="#c44f50"/>
      </g>
      <g id="Group_39566" data-name="Group 39566" transform="translate(21.923 33.984)">
        <path id="Path_34561" data-name="Path 34561" d="M352.855,159.092a131.309,131.309,0,0,0,13.424-4.056q3.286-1.119,6.557-2.286a33.634,33.634,0,0,0,6.362-2.59.178.178,0,0,0-.136-.323,39.45,39.45,0,0,0-6.587,2.15q-3.268,1.171-6.555,2.293c-4.384,1.5-8.825,2.856-13.135,4.562a.13.13,0,0,0,.069.251Z" transform="translate(-352.696 -149.833)" fill="#c44f50"/>
      </g>
      <g id="Group_39567" data-name="Group 39567" transform="translate(19.499 29.539)">
        <path id="Path_34562" data-name="Path 34562" d="M348.582,159.242a56.776,56.776,0,0,0,1.919-8.693c.227-1.359.421-2.724.6-4.09a34.756,34.756,0,0,0,.3-4.57.14.14,0,0,0-.274-.037c-.627,2.895-.978,5.839-1.447,8.769-.458,2.861-1.075,5.7-1.4,8.581-.02.174.242.19.292.04Z" transform="translate(-348.289 -141.752)" fill="#c44f50"/>
      </g>
    </g>
    <path id="Path_34563" data-name="Path 34563" d="M400.152,181.538c-.82-.87-2.4-.861-3.478-.717a20.423,20.423,0,0,0-7.925,3.153,38.763,38.763,0,0,0-7.129,5.753c-.091.035-.184.061-.274.1,0,0,0,.006-.008.008-.748.244-1.5.482-2.243.737-2.774.946-5.511,2-8.233,3.084-.808.322-1.612.652-2.418.979a14.32,14.32,0,0,0,1.726-1.48,24.5,24.5,0,0,0,2.37-2.622,23.483,23.483,0,0,0,3.431-6.182c.3-.813.852-2.02.122-2.773-.754-.778-1.667.151-2.251.66A20.566,20.566,0,0,0,369.4,187.8a19.863,19.863,0,0,0-2.448,7.4.169.169,0,0,0,0,.045q-3.676,1.509-7.326,3.085a2.162,2.162,0,0,0-.782.309c-.017.012-.023.029-.036.042q-1.9.823-3.791,1.663c-.753.334-1.5.677-2.245,1.035a18.2,18.2,0,0,0,1.166-1.7,29.347,29.347,0,0,0,1.754-3.105,15.961,15.961,0,0,0,1.731-6.563,2.875,2.875,0,0,0-.771-2.367,1.523,1.523,0,0,0-1.96.021,7.113,7.113,0,0,0-1.853,2.712,15.568,15.568,0,0,0-1.056,3.172,28.5,28.5,0,0,0-.445,8.557c-.127.067-.256.131-.383.2a13.311,13.311,0,0,0-3.572,2.573.088.088,0,0,0,.107.138c1.17-.628,2.268-1.381,3.445-2,1.029-.544,2.08-1.038,3.142-1.511a11.7,11.7,0,0,0,1.292,2.359c.546.838,1.1,1.67,1.723,2.455a11.322,11.322,0,0,0,4.5,3.708,3.276,3.276,0,0,0,2.44.118,1.665,1.665,0,0,0,.976-1.857,5.058,5.058,0,0,0-1.564-2.411,23.332,23.332,0,0,0-2.4-2.214,17.9,17.9,0,0,0-3.014-1.873c-.546-.276-1.106-.53-1.676-.754-.2-.08-.413-.172-.63-.253q1.508-.652,3.019-1.3c3.789,3.393,8.969,5.918,14.16,5.078.811-.131,2.168-.322,2.584-1.177.375-.772-.392-1.338-.983-1.677a24.557,24.557,0,0,0-7.135-2.971,26.356,26.356,0,0,0-4.247-.548c-.43-.02-.861-.023-1.291-.015l.421-.179c3.723-1.576,8.012-3.335,11.786-4.776.589.812,5.962,3.38,9.278,4.089a37.088,37.088,0,0,0,5.066.732,6.16,6.16,0,0,0,4.581-1.089.369.369,0,0,0-.074-.572,24.673,24.673,0,0,0-9.547-4,21.6,21.6,0,0,0-5.159-.462c-.193.008-.394.017-.6.029.275-.1.547-.2.821-.3q1.88-.677,3.777-1.3a9.276,9.276,0,0,0,1.31-.123q1.365-.2,2.719-.455a43.055,43.055,0,0,0,4.917-1.194,20.764,20.764,0,0,0,4.258-1.77,19.59,19.59,0,0,0,3.624-2.507C399.634,183.694,401,182.439,400.152,181.538Z" transform="translate(-170.461 -111.054)" fill="#dc9596"/>
    <g id="Group_39574" data-name="Group 39574" transform="translate(0 67.157)">
      <path id="Path_34564" data-name="Path 34564" d="M94.2,202.359c-7.154-12.614-9.413-15.438-13.179-12.237a11.938,11.938,0,0,0-3.954,7.908s-8.283-17.7-14.5-18.827-3.2,13.932-3.2,13.367S46,175.061,33.767,176.191s-9.037,18.826.376,25.415,26.545,7.342,26.545,7.342-17.508-.188-13.179,9.978,32.57,9.037,32.57,9.037-17.132.564-13.932,6.589,35.205,1.13,35.205,1.13S101.354,214.973,94.2,202.359Z" transform="translate(-25.781 -176.137)" fill="#fdc2c8"/>
      <g id="Group_39569" data-name="Group 39569" transform="translate(13.219 13.109)">
        <path id="Path_34565" data-name="Path 34565" d="M49.98,200.458a110.337,110.337,0,0,1,25.67,13.91,252.8,252.8,0,0,1,23.7,19.589c4.386,3.982,8.645,8.1,13.218,11.868.233.191.558-.116.337-.337-3.743-3.736-7.668-7.281-11.561-10.864s-7.828-7.11-11.85-10.546a150.113,150.113,0,0,0-24.423-17.365,95.775,95.775,0,0,0-14.96-6.73c-.3-.105-.427.369-.131.476Z" transform="translate(-49.812 -199.967)" fill="#c44f50"/>
      </g>
      <g id="Group_39570" data-name="Group 39570" transform="translate(37.751 10.265)">
        <path id="Path_34566" data-name="Path 34566" d="M94.415,194.874c2.069,3.749,4.13,7.517,5.963,11.39q1.4,2.96,2.627,6,.583,1.445,1.124,2.906a16.482,16.482,0,0,0,1.2,2.93c.065.106.27.073.255-.069a12.908,12.908,0,0,0-.909-3.011q-.543-1.46-1.127-2.906-1.2-2.983-2.577-5.9a78.289,78.289,0,0,0-6.463-11.4.053.053,0,0,0-.091.053Z" transform="translate(-94.407 -194.797)" fill="#c44f50"/>
      </g>
      <g id="Group_39571" data-name="Group 39571" transform="translate(29.801 40.257)">
        <path id="Path_34567" data-name="Path 34567" d="M80.105,251.78c4.333-.045,8.655-.265,12.974-.609q3.2-.256,6.4-.6,1.6-.17,3.192-.364a11.836,11.836,0,0,0,3.09-.542.164.164,0,0,0-.043-.321,13.4,13.4,0,0,0-3.186.292q-1.594.208-3.191.394-3.194.37-6.4.647c-4.27.367-8.553.609-12.835.791a.154.154,0,0,0,0,.309Z" transform="translate(-79.956 -249.318)" fill="#c44f50"/>
      </g>
      <g id="Group_39572" data-name="Group 39572" transform="translate(59.559 23.186)">
        <path id="Path_34568" data-name="Path 34568" d="M134.066,218.507c1.915,4.263,3.551,8.662,5.081,13.076.755,2.178,1.439,4.378,2.1,6.587.33,1.1.658,2.209.955,3.322a27.729,27.729,0,0,0,.942,3.324c.044.109.235.111.225-.03a20.031,20.031,0,0,0-.705-3.421c-.279-1.118-.557-2.236-.861-3.348-.619-2.264-1.332-4.505-2.088-6.728a117.95,117.95,0,0,0-5.4-12.929c-.081-.171-.327-.021-.251.147Z" transform="translate(-134.052 -218.285)" fill="#c44f50"/>
      </g>
      <g id="Group_39573" data-name="Group 39573" transform="translate(51.156 52.653)">
        <path id="Path_34569" data-name="Path 34569" d="M119.113,276.85q4.482-.908,8.894-2.084c1.427-.378,2.853-.761,4.275-1.16a43.808,43.808,0,0,0,4.505-1.365.2.2,0,0,0-.106-.383c-1.489.3-2.941.8-4.405,1.207s-2.94.795-4.417,1.162c-2.955.734-5.922,1.428-8.89,2.1-.339.077-.194.587.144.519Z" transform="translate(-118.776 -271.852)" fill="#c44f50"/>
      </g>
    </g>
    <path id="Path_34570" data-name="Path 34570" d="M117,289.952a18.124,18.124,0,0,0-4.88-.364c-1.221.024-2.44.1-3.658.205a9.194,9.194,0,0,0-1.445-1.481c-.622-.591-1.264-1.164-1.924-1.711a14.585,14.585,0,0,0-4.232-2.629,3.738,3.738,0,0,0-2.148-.362c-.689.218-.589.9-.35,1.435.643,1.436,2.1,2.275,3.408,3.029a13.356,13.356,0,0,0,4.759,1.9c-2.385.272-4.756.664-7.105,1.155a12.551,12.551,0,0,0-5.529-2.8,19.5,19.5,0,0,0-6.687-.826c-.919.091-4.954.9-3.669,2.538.618.787,1.966.906,2.865,1.1a34.061,34.061,0,0,0,3.734.595,33.294,33.294,0,0,0,4.469.161c.613-.019,1.236-.041,1.853-.1-3.206.776-6.373,1.7-9.516,2.7-1.887.6-3.768,1.226-5.623,1.918-1.916-2.381-5.569-3.285-8.519-3-.537.051-3.709.417-3,1.474.18.27.618.367.9.482.469.19.945.363,1.427.515a21.118,21.118,0,0,0,2.768.625,24.421,24.421,0,0,0,3.06.327,15.367,15.367,0,0,0,2.225.011c-.646.254-1.291.515-1.927.793a41.127,41.127,0,0,0-4.525,2.3.3.3,0,0,0-.077-.032,6.83,6.83,0,0,0-2.992.278,13.823,13.823,0,0,0-2.825,1.058,12.186,12.186,0,0,0-4.552,3.957c-.464.679-1.388,1.779-1.068,2.661a1.551,1.551,0,0,0,1.907.732,11.522,11.522,0,0,0,2.888-1.274,20.967,20.967,0,0,0,2.666-1.814,19.853,19.853,0,0,0,2.67-2.557,9.341,9.341,0,0,0,1.63-2.446,51.992,51.992,0,0,1,6.711-3.051c-.423.381-.856.753-1.245,1.168a15.746,15.746,0,0,0-1.932,2.59,15.172,15.172,0,0,0-2.227,6.194c-.092.866-.387,4.766,1.565,3.633a7.412,7.412,0,0,0,2.109-2.609,17.265,17.265,0,0,0,1.469-3.271,18.674,18.674,0,0,0,.805-4.024,32.264,32.264,0,0,1,.482-4.062c1.477-.536,2.968-1.031,4.456-1.5q1.523-.484,3.057-.947a13.273,13.273,0,0,0-1.3,1.282,12.55,12.55,0,0,0-2.353,3.8,9.563,9.563,0,0,0-.343,1.053,4.763,4.763,0,0,0-.234,1.174c.01.617.658.631,1.079.4a10.5,10.5,0,0,0,3.251-3.185,25.5,25.5,0,0,0,2.542-5.3c1.433-.407,2.871-.8,4.317-1.153a14.033,14.033,0,0,0-1.657,3.612,11.892,11.892,0,0,0-.573,4.876c.077.55.222,1.427.75,1.742s1.028-.115,1.318-.54a7.228,7.228,0,0,0,1.38-4.375c-.039-.954-.025-1.9-.078-2.859a15.235,15.235,0,0,0-.036-2.7c0-.006-.007-.01-.01-.015a82.32,82.32,0,0,1,8.414-1.561c.357-.046.715-.086,1.073-.126-.121.089-.241.179-.358.268a14.61,14.61,0,0,0-1.91,1.816,17.41,17.41,0,0,0-2.951,4.489c-.293.65-.712,1.529-.2,2.183.475.61,1.39.452,2.016.2a8.251,8.251,0,0,0,3.685-3.671,20.859,20.859,0,0,0,1.429-2.916,9.4,9.4,0,0,0,.837-2.6c.665-.047,1.331-.086,2-.11,1.881-.067,3.767.065,5.641-.134C117.136,290.263,117.2,290,117,289.952Z" transform="translate(-42.146 -157.304)" fill="#dc9596"/>
    <g id="Group_39576" data-name="Group 39576" transform="translate(31.836 20.45)">
      <path id="Path_34571" data-name="Path 34571" d="M124.224,136.821l-1.156,5.581-.174.841-1.586,7.686s-10-2.37-21.546-15.27c-.46-.51-.913-1.048-1.353-1.6q-.192-.229-.384-.476a66.512,66.512,0,0,1-7.7-13.055l-.139-.3C84.71,108.119,82.173,95.2,84.543,92.963c3.128-2.944,5.547-2.923,17.79,6.37l.553.422c1.3.991,2.7,2.081,4.224,3.278a41.422,41.422,0,0,1,5.456,5.159l.52.606C123.738,121.36,124.224,136.821,124.224,136.821Z" transform="translate(-83.654 -91.231)" fill="#fdc2c8"/>
      <g id="Group_39575" data-name="Group 39575" transform="translate(3.332 4.37)">
        <path id="Path_34572" data-name="Path 34572" d="M105.058,102.906q.5,3.827.909,7.663c.222,2.026.438,4.057.632,6.092.1,1.012.188,2.029.276,3.045.047.565.076,1.146.14,1.73q-4.417-5.772-8.83-11.538-4.1-5.379-8.3-10.687c-.082-.1-.234.025-.153.134,4.66,6.377,9.46,12.641,14.241,18.932,1.074,1.413,2.142,2.837,3.21,4.256.024.116.043.23.073.341a.128.128,0,0,0,.222.053q5.427,7.185,10.835,14.387,1.991,2.646,3.995,5.282c1.079,1.425,2.133,2.871,3.309,4.219.3.349.62.7.948,1.034.125.13.392-.006.288-.185q-.5-.86-1.062-1.69c-1.8-2.706-3.932-5.226-5.9-7.782-2.431-3.169-4.891-6.317-7.317-9.485l-5.013-6.555c.008-.753-.084-1.532-.145-2.263-.082-1.022-.164-2.038-.258-3.055-.184-2.079-.385-4.154-.619-6.232-.278-2.434-.585-4.852-.932-7.274Z" transform="translate(-89.712 -99.174)" fill="#c44f50"/>
        <path id="Path_34573" data-name="Path 34573" d="M136.254,122.669q.035,3.642-.147,7.289c-.184,3.652-.251,7.382-.784,11a.088.088,0,0,1-.174-.015c.091-3.683.469-7.346.52-11.027.038-2.616.067-5.238.065-7.857Z" transform="translate(-110.154 -109.472)" fill="#c44f50"/>
        <path id="Path_34574" data-name="Path 34574" d="M95.675,143.327c1.705-.051,3.413-.131,5.116-.228q2.069-.128,4.137-.312a20.508,20.508,0,0,0,4.242-.552c.152-.049.172-.285-.014-.3a22.6,22.6,0,0,0-3.909.3c-1.373.142-2.75.267-4.126.387-1.857.169-3.723.3-5.585.409Z" transform="translate(-92.332 -118.402)" fill="#c44f50"/>
        <path id="Path_34575" data-name="Path 34575" d="M126.346,166.4a35.623,35.623,0,0,1-5.511.874q-2.636.283-5.291.417-2.69.134-5.382.092-.192-.229-.384-.476c1.983.013,3.971-.026,5.946-.122q2.656-.136,5.3-.41c1.762-.188,3.516-.479,5.283-.587A.109.109,0,0,1,126.346,166.4Z" transform="translate(-98.74 -129.321)" fill="#c44f50"/>
      </g>
    </g>
    <path id="Path_34576" data-name="Path 34576" d="M108.945,175.16c-1.721-1.129-3.611-1.965-5.413-2.956s-3.559-2.071-5.275-3.209a96.754,96.754,0,0,1-8.427-6.318,14.136,14.136,0,0,0,.21-2.407,29.955,29.955,0,0,0-.046-3.031c-.064-.971-.158-1.949-.3-2.912a5.288,5.288,0,0,0-.736-2.2,2.055,2.055,0,0,0-1.512-1.048,1.074,1.074,0,0,0-1.093,1.028,15.933,15.933,0,0,0,.434,5.438,19.074,19.074,0,0,0,1.135,3.521q-4.664-4.047-9.115-8.388a10.789,10.789,0,0,0,.383-2.82,21.632,21.632,0,0,0-.024-3.737,23.9,23.9,0,0,0-1.2-5.85c-.229-.63-.472-1.811-1.3-1.86-.786-.046-1.325.91-1.6,1.521-.8,1.759-.415,3.824.055,5.618a30.327,30.327,0,0,0,1.829,5.279q-3.74-3.751-7.263-7.682c-.986-1.1-1.931-2.247-2.846-3.413a6.237,6.237,0,0,0-.418-1.652c-.363-1.133-.771-2.249-1.167-3.37a37.543,37.543,0,0,0-3.054-6.857c-.979-1.638-4.332-6.376-6.089-3-.731,1.4-.354,3.2.086,4.635a13.918,13.918,0,0,0,2.135,4.132,21.257,21.257,0,0,0,3.716,3.9,20.786,20.786,0,0,0,2.095,1.506,6.927,6.927,0,0,0,2.345,1.116q1.521,1.992,3.125,3.918a16.09,16.09,0,0,0-11.048-1.44c-1.172.272-4.733,1.2-3.452,3.1.606.9,1.827.848,2.783.9,1.39.08,2.78.151,4.171.162a32.8,32.8,0,0,0,4.571-.253,21.9,21.9,0,0,0,2.191-.4,7.7,7.7,0,0,0,1.98-.649q.654.763,1.32,1.518a11.314,11.314,0,0,0-5.355,1.608,15,15,0,0,0-2.408,1.75,9.6,9.6,0,0,0-2.064,2.285,3.587,3.587,0,0,0-.474,2.757c.246.93.934,1.074,1.807.92a6.269,6.269,0,0,0,2.64-1.332c.823-.63,1.62-1.3,2.39-2a23.033,23.033,0,0,0,2.48-2.579,7.136,7.136,0,0,0,1.637-2.677q2.122,2.357,4.356,4.6,2.557,2.565,5.182,5.08c-3.614-.209-7.316-.233-10.655,1.371-.661.318-1.449.739-1.559,1.545a1.168,1.168,0,0,0,1.072,1.368,11.994,11.994,0,0,0,3.066-.142,23.33,23.33,0,0,0,3.106-.633,32.477,32.477,0,0,0,3.436-1.17q.833-.332,1.651-.7a9.43,9.43,0,0,0,1.078-.509,124.557,124.557,0,0,0,10.347,8.807,12.536,12.536,0,0,0-9.528,2.264,5.765,5.765,0,0,0-1.82,1.8c-.376.82.423,1.134,1.089,1.223a11.156,11.156,0,0,0,5.713-1.184,20.27,20.27,0,0,0,3.1-1.652q.668-.435,1.3-.922a3.41,3.41,0,0,0,.969-.929c.52.382,1.036.77,1.565,1.14a70.95,70.95,0,0,0,6.045,3.811,24.4,24.4,0,0,0,6.426,2.815A.3.3,0,0,0,108.945,175.16Z" transform="translate(-38.853 -85.371)" fill="#dc9596"/>
    <g id="Group_39597" data-name="Group 39597" transform="translate(55.945 0)">
      <path id="Path_34577" data-name="Path 34577" d="M128.594,112.931c-3.266-8.981,1.361-15.378,4.9-19.732s6.668-8.165,5.307-14.289-.544-13.2,4.083-17.283,7.757-1.361,7.757-1.361,7.757-9.254,17.827-5.171A25.6,25.6,0,0,1,184.525,77c.409,8.437-3.13,23.407-.272,27.762s4.878,9.588,3.538,13.609c-2.722,8.165-14.562,10.869-23.407,11.159C147.782,130.078,131.86,121.913,128.594,112.931Z" transform="translate(-127.482 -54.055)" fill="#51382f"/>
      <path id="Path_34578" data-name="Path 34578" d="M216.955,162.508a48.975,48.975,0,0,1,10,10.921c5.1,7.348,11.635,19.086,11.635,19.086s-1.429,12.656-2.96,15.514-3.062,2.245-3.062,2.245A31.183,31.183,0,0,1,224,202.619C220.323,197.72,216.955,162.508,216.955,162.508Z" transform="translate(-167.736 -102.848)" fill="#fff"/>
      <path id="Path_34579" data-name="Path 34579" d="M313.591,75.481a10.62,10.62,0,0,1,9.73.952c4.831,3.2,5.852,7.485,5.239,12.18-.493,3.781-4.082,12.316-3.47,16.671s5.58,7.962,4.423,13.881-7.621,10.479-14.289,9.73-14.7-6.532-14.9-15.786S313.591,75.481,313.591,75.481Z" transform="translate(-205.243 -63.35)" fill="#472d24"/>
      <path id="Path_34580" data-name="Path 34580" d="M281.247,137.247s.1,7.655,0,8.063-5.171,2.348-5.171,2.348-3.708,9.832,2.722,11.567,14.629-4.253,16.466-6.192a34.128,34.128,0,0,0,4.015-6.328s-4.253-1.089-4.559-2.109-.2-8.063-.2-8.063Z" transform="translate(-193.857 -91.162)" fill="#fda2ab"/>
      <path id="Path_34581" data-name="Path 34581" d="M286.392,143.13a10.33,10.33,0,0,0,2.176.11,25.327,25.327,0,0,0,7.725-1.6,19.442,19.442,0,0,0,3.309-1.576c-.011-1.842.013-3.53.013-3.53l-13.268.715S286.393,140.737,286.392,143.13Z" transform="translate(-198.956 -91.162)" fill="#d5cfcd" style="mix-blend-mode: multiply;isolation: isolate"/>
      <path id="Path_34582" data-name="Path 34582" d="M251.883,185.362s-.51,6.124-.715,12.758c-.179,5.837-.816,11.737-.816,11.737s6.941-3.776,8.982-6.941,3.266-6.43,2.551-9.39-4.287-9.492-5.41-9.7S251.883,185.362,251.883,185.362Z" transform="translate(-182.762 -112.434)" fill="#fda2ab"/>
      <path id="Path_34583" data-name="Path 34583" d="M337.228,197.173c-2.447-3.587-13.064,4.185-13.064,4.185s3.675,7.859,3.164,12.758c-.384,3.688-2.447,6.856-4.792,9.765.4.451.793.91,1.165,1.386a42.139,42.139,0,0,1,3.957,6.192c3.835-3.109,7.455-6.861,9.366-10.3C341.72,212.709,340.2,201.531,337.228,197.173Z" transform="translate(-215.238 -118.019)" fill="#fda2ab"/>
      <path id="Path_34584" data-name="Path 34584" d="M261.653,158.982s-3.572.409-6.736,5.614a25.332,25.332,0,0,0-3.266,11.329l9.39.408s1.837-8.981,1.837-12.146A10.9,10.9,0,0,0,261.653,158.982Z" transform="translate(-183.346 -101.262)" fill="#fff"/>
      <path id="Path_34585" data-name="Path 34585" d="M316.859,156.854s4.49-.918,7.042,2.654,8.471,20.719,8.471,20.719-3.776,1.531-7.961,2.96a52.067,52.067,0,0,0-7.043,2.96s-8.267-5.41-8.777-12.554S315.634,156.753,316.859,156.854Z" transform="translate(-208.953 -100.257)" fill="#fff"/>
      <path id="Path_34586" data-name="Path 34586" d="M139.274,225.411c-.442,5.557-.884,12.674-1.157,17.3,1.375-.024,2.75-.054,4.126-.063,2.135-.013,4.27-.026,6.405-.03q11.374-.018,22.747-.026l11.295.006c1.8,0,3.6,0,5.4.007-.353-5.057-.858-12.613-1.108-17.816-.409-8.471.954-27.4.954-27.4s2.782-12.9-1.913-24.435c-3.414-8.387-4.106-15.045-8.432-20.173-1.623-1.924-4.125-3.434-6.878-5.139-5.574-3.452-15.168-2.057-15.168-2.057s-12.911,5.1-19.432,12.978c-6.13,7.4-4.215,23.52-2.245,29.8a63.424,63.424,0,0,0,4.491,11.023S139.988,216.43,139.274,225.411Z" transform="translate(-129.491 -95.107)" fill="#fff"/>
      <path id="Path_34587" data-name="Path 34587" d="M172.277,125.4s.306,10.716-.1,11.941-2.348,2.245-2.348,2.245,6.839,7.145,12.962,5.613,6.328-4.695,6.328-4.695a13.444,13.444,0,0,1-2.552-2.348c-.816-1.123-.51-8.471-.51-8.471Z" transform="translate(-146.533 -86.153)" fill="#fda2ab"/>
      <path id="Path_34588" data-name="Path 34588" d="M177.027,130.245a24.33,24.33,0,0,0,7.329,3.717,13.69,13.69,0,0,0,3.679.662c-.084-2.342.024-4.938.024-4.938L174.28,125.4s.029,1.017.057,2.459A20.406,20.406,0,0,0,177.027,130.245Z" transform="translate(-148.537 -86.153)" fill="#d5cfcd" style="mix-blend-mode: multiply;isolation: isolate"/>
      <path id="Path_34589" data-name="Path 34589" d="M163.89,73.631s1.327,17.453,2.45,21.536,3.776,7.45,12.35,9.9,11.636.715,14.8-6.634,1.837-22.25.306-25.312-15.616-6.736-20.923-4.9A26.9,26.9,0,0,0,163.89,73.631Z" transform="translate(-143.862 -60.207)" fill="#fda2ab"/>
      <path id="Path_34590" data-name="Path 34590" d="M268.864,78.021s-2.939,15.553-2.5,18.555c.42,2.89,3.523,12.88,8.831,14.106s11.533.816,16.228-2.756c3.393-2.582,5.92-11.533,6.94-18.269s-14.6-19.392-19.6-18.474S269.17,76.8,268.864,78.021Z" transform="translate(-189.945 -61.74)" fill="#fda2ab"/>
      <path id="Path_34591" data-name="Path 34591" d="M160.942,88.811s3.81-2.381,5.784-8.914,1.769-11.567.885-12.792-7.349-.68-10.07,3.606-1.293,13.132-.171,15.446A5.032,5.032,0,0,0,160.942,88.811Z" transform="translate(-140.302 -59.669)" fill="#51382f"/>
      <path id="Path_34592" data-name="Path 34592" d="M163,104.183s-3.062-3.675-5.512-2.245-1.177,5.715,2.654,6.634a6.017,6.017,0,0,0,4.491-.715Z" transform="translate(-140.415 -75.449)" fill="#fda2ab"/>
      <path id="Path_34593" data-name="Path 34593" d="M173.118,68.6a28.963,28.963,0,0,1,16.058,2.178c8.505,3.742,11.839,8.505,11.839,8.505s-1.293-11.159-6.26-15.582-15.514-4.967-19.46-1.837a16.071,16.071,0,0,0-4.355,6.464Z" transform="translate(-147.034 -56.677)" fill="#51382f"/>
      <path id="Path_34594" data-name="Path 34594" d="M278.9,71.366s-2.79.612-6.4,3.946a16.745,16.745,0,0,0-4.627,6.192,32.768,32.768,0,0,0-1.089,5.239,20.293,20.293,0,0,1,1.02-13c3.4-7.485,10.887-11.3,20.073-10.071s13.609,7.145,14.766,15.241c1.226,8.581-1.225,12.316-1.225,12.316a15.848,15.848,0,0,1-4.082-.545c-.953-.476-8.233-7.416-12.928-12.86C280.414,73.2,278.9,71.366,278.9,71.366Z" transform="translate(-189.874 -58.282)" fill="#51382f"/>
      <path id="Path_34595" data-name="Path 34595" d="M318.186,112.258s5.866-4.447,7.145-2.347c1.429,2.347-.409,6.124-3.471,7.145a7.336,7.336,0,0,1-4.9-.409Z" transform="translate(-212.73 -78.931)" fill="#fda2ab"/>
      <path id="Path_34596" data-name="Path 34596" d="M164.168,152.127l3.93-2.143s6.226,6.736,11.89,5.613,5.818-4.9,5.818-4.9,4.491,2.6,4.95,3.623.146,16.816-1.436,21.817-3.157,10.078-4.28,9.619S164.168,152.127,164.168,152.127Z" transform="translate(-143.987 -97.214)" fill="#c44f50"/>
      <path id="Path_34597" data-name="Path 34597" d="M262.068,155.005s-5.784,1.225-6.872,2.45.408,4.287-.68,8.233-5.1,7.485-6.192,11.567a9.545,9.545,0,0,0,1.837,8.506c1.089,1.361,2.585,2.926,2.585,2.926a46.836,46.836,0,0,0-9.05,9.866c-3.266,5.24-4.287,13.541-2.245,18.78a29.687,29.687,0,0,0,5.715,8.981,93.318,93.318,0,0,0-.109,11.75,81.441,81.441,0,0,0,.953,8.1l43.181.021s2.45-12.35,1.735-20.311c-.648-7.222-1.871-11.329-4.32-18.133a110.065,110.065,0,0,0-4.763-11.363l3.675-11.635s-4.7-2.11-6.056-9.254.885-13.268,3.334-15.922a14.608,14.608,0,0,1,4.8-3.685c.341-.136-6.774-1.35-6.774-1.35s-5.988,11.7-16.466,11.432S262.068,155.005,262.068,155.005Z" transform="translate(-178.283 -99.259)" fill="#c44f50"/>
      <path id="Path_34598" data-name="Path 34598" d="M235.4,250.3a54.009,54.009,0,0,0,5.784-1.429c.749-.408,2.96-5.035,5-7.28s2.858-2.858,2.62-3.232c-.314-.494-2.177.2-3.878,1.7s-2.858,2.721-2.858,2.721a16.385,16.385,0,0,1,4.7-5c1.5-1.06,2.586-1.293,2.11-1.973s-2.586-.136-4.763,1.565a17.854,17.854,0,0,0-3.4,3.47,14.188,14.188,0,0,1,3.334-4.015c2.177-1.769,3.13-2.381,2.994-2.994s-2.96.238-4.865,2.075a23.116,23.116,0,0,0-2.892,3.3,17.574,17.574,0,0,1,3.055-4.085c1.459-1.182,3.039-2.278,2.9-2.821s-1.965-.347-4.24,1.657a16.684,16.684,0,0,0-3.551,4.637s.545-1.769-.68-1.225-3.606,4.082-3.606,4.082.885,2.926,1.565,5.171A14.056,14.056,0,0,1,235.4,250.3Z" transform="translate(-175.027 -134.133)" fill="#fda2ab"/>
      <path id="Path_34599" data-name="Path 34599" d="M162.1,150.976s10.308,17.759,14.289,23.883,5.818,8.369,5.818,8.369a90.062,90.062,0,0,0,3.368-15.82c.612-7.042.578-14.323.578-14.323a18.12,18.12,0,0,1,4.729,3.878,2.683,2.683,0,0,1,.612,1.769s.306,8.676-.306,9.186-3.981-.2-3.981-.2,4.389,4.389,4.082,5.41-6.838,18.984-8.165,19.9-5.511-7.655-9.9-12.146-8.063-6.43-7.962-6.941,1.429-6.736.613-6.736-2.552,2.756-3.266,2.45-7.246-14.7-6.226-15.922S161.279,150.671,162.1,150.976Z" transform="translate(-140.435 -97.645)" fill="#fff"/>
      <path id="Path_34600" data-name="Path 34600" d="M308.432,241.2c-1.079-1.051-2.184-2.155-3.38-3.128a41.594,41.594,0,0,1-5.508,7.425,24.827,24.827,0,0,1-7.246,5.614s-9.186-.612-9.7.816,5.818,1.735,5.818,1.735a22.472,22.472,0,0,1-5.393,2.5c-2.45.612-6.549.358-6.141,1.378s3.85,1.141,5.6,1.089a12.453,12.453,0,0,0,3.589-.816s-1.548,1.378-5.85,2.106c-2.934.5-3.818.25-3.5,1.2s3.765.692,5.725.4a26.416,26.416,0,0,0,4.066-1A14.621,14.621,0,0,1,281,262.8c-1.781.319-3.275.469-3.01,1.292.208.646,4.271.5,6.038-.013a24.458,24.458,0,0,0,3.78-1.569,10.332,10.332,0,0,1-3.93,2.348c-2.08.827-2.829,1.013-2.414,1.415.909.881,5.035-.177,8.206-2.206a29.641,29.641,0,0,0,6.2-6.022s10.2-5.972,16.566-12.719C311.145,243.911,309.805,242.535,308.432,241.2Z" transform="translate(-194.599 -136.844)" fill="#fda2ab"/>
      <path id="Path_34601" data-name="Path 34601" d="M206.094,103.1a7.912,7.912,0,0,0-2.059.065l-.714.043c-.117.007-.456.089-.535.032-.23-.162-.158-1.072-.173-1.327-.1-1.692-.128-3.4-.15-5.092a.209.209,0,0,0-.418,0,23.425,23.425,0,0,0-.014,4.366,11.707,11.707,0,0,0,.257,2.047c.147.524.669.383,1.121.377.714-.01,1.427-.028,2.141-.031.325,0,.789-.014.52.449a2.838,2.838,0,0,1-.635.637,4.379,4.379,0,0,1-1.655.847c-.584.161-1.178.2-1.749.406a.222.222,0,0,0,0,.423c1.19.479,2.6-.321,3.53-1.039.419-.323,1.059-.823,1.181-1.371C206.844,103.485,206.5,103.191,206.094,103.1Z" transform="translate(-160.953 -73.207)" fill="#b4a9a5" style="mix-blend-mode: multiply;isolation: isolate"/>
      <path id="Path_34602" data-name="Path 34602" d="M212.225,100.446a1.86,1.86,0,0,0-.668-.67,1.076,1.076,0,0,0-1.2.056,1.8,1.8,0,0,0-.539,1.245,3.48,3.48,0,0,0,.063,1.172,1.646,1.646,0,0,0,.344.729.959.959,0,0,0,.824.246,1.906,1.906,0,0,0,.955-.377,1.358,1.358,0,0,0,.4-.653,2.227,2.227,0,0,0,.074-1.116A1.958,1.958,0,0,0,212.225,100.446Z" transform="translate(-164.514 -74.555)" fill="#472d24"/>
      <path id="Path_34603" data-name="Path 34603" d="M193.193,100.661a2,2,0,0,0-.72-.722,1.16,1.16,0,0,0-1.3.06,1.933,1.933,0,0,0-.58,1.341,3.739,3.739,0,0,0,.067,1.262,1.769,1.769,0,0,0,.371.786,1.031,1.031,0,0,0,.888.265,2.046,2.046,0,0,0,1.029-.405,1.465,1.465,0,0,0,.435-.7,2.4,2.4,0,0,0,.08-1.2A2.131,2.131,0,0,0,193.193,100.661Z" transform="translate(-155.867 -74.623)" fill="#472d24"/>
      <path id="Path_34604" data-name="Path 34604" d="M192.051,93.684a7.288,7.288,0,0,0-2.9-.128,1.889,1.889,0,0,0-1.577.965" transform="translate(-154.519 -71.787)" fill="none" stroke="#472d24" stroke-width="1.215"/>
      <path id="Path_34605" data-name="Path 34605" d="M209.54,93.325a4.672,4.672,0,0,1,2.151-.132,2.827,2.827,0,0,1,1.809,1.178" transform="translate(-164.4 -71.631)" fill="none" stroke="#472d24" stroke-width="1.173"/>
      <g id="Group_39577" data-name="Group 39577" transform="translate(34.716 35.319)">
        <path id="Path_34606" data-name="Path 34606" d="M190.591,118.26a50.467,50.467,0,0,0,7.683.446,24.267,24.267,0,0,0,5.067-.39s-1.392,5.624-6.236,5.735S190.591,118.26,190.591,118.26Z" transform="translate(-190.591 -118.26)" fill="#472d24"/>
        <path id="Path_34607" data-name="Path 34607" d="M196.369,119.254a3.406,3.406,0,0,0,1.64.692,14.177,14.177,0,0,0,3.482.15,5.493,5.493,0,0,0,2.46-.562,2.506,2.506,0,0,0,.92-.9,37.1,37.1,0,0,1-4.177.24c-1.841.023-3.454-.048-4.725-.139A2.676,2.676,0,0,0,196.369,119.254Z" transform="translate(-193.011 -118.428)" fill="#fff"/>
        <path id="Path_34608" data-name="Path 34608" d="M201.028,126.388a6.409,6.409,0,0,0-2.6-1.077,12.38,12.38,0,0,0-2.573-.113,8.233,8.233,0,0,0-1.145.114,5.592,5.592,0,0,0,6.587,1.3C201.2,126.535,201.125,126.456,201.028,126.388Z" transform="translate(-192.442 -121.373)" fill="#fb6776"/>
      </g>
      <path id="Path_34609" data-name="Path 34609" d="M275.486,110.907a8.082,8.082,0,0,1,2.087.3l.721.126c.118.02.454.142.541.095.253-.138.284-1.072.329-1.33.294-1.71.522-3.441.74-5.162a.214.214,0,0,1,.425.048,23.977,23.977,0,0,1-.49,4.443,11.933,11.933,0,0,1-.5,2.054c-.21.515-.724.312-1.184.254-.725-.093-1.449-.193-2.175-.278-.33-.04-.8-.1-.581.4a2.928,2.928,0,0,0,.573.721,4.486,4.486,0,0,0,1.586,1.053c.575.23,1.176.338,1.733.614a.227.227,0,0,1-.049.43c-1.266.35-2.608-.626-3.472-1.464a3.073,3.073,0,0,1-1.044-1.53C274.679,111.209,275.066,110.951,275.486,110.907Z" transform="translate(-193.727 -76.866)" fill="#b4a9a5" style="mix-blend-mode: multiply;isolation: isolate"/>
      <g id="Group_39578" data-name="Group 39578" transform="translate(103.976 72.723)">
        <path id="Path_34610" data-name="Path 34610" d="M316.507,186.465q1.259,3.282,2.549,6.552l1.272,3.211a15.571,15.571,0,0,1,1.14,3.155c.018.119.189.078.2-.027a6.077,6.077,0,0,0-.66-3.051l-1.428-3.432q-1.363-3.277-2.767-6.536c-.073-.17-.369-.047-.3.128Z" transform="translate(-316.497 -186.256)" fill="#bbb1ae"/>
      </g>
      <g id="Group_39579" data-name="Group 39579" transform="translate(84.273 88.695)" style="mix-blend-mode: multiply;isolation: isolate">
        <path id="Path_34611" data-name="Path 34611" d="M280.72,215.673c1.338,2.318,4.021,3.241,6.545,3.571,2.61.341,5.878.052,7.977-1.711.095-.08-.009-.213-.112-.192-1.19.25-2.347.632-3.551.836a15.292,15.292,0,0,1-3.888.172c-2.293-.2-5.1-.99-6.517-2.942-.2-.268-.628-.035-.454.266Z" transform="translate(-280.68 -215.29)" fill="#c8c0bd"/>
      </g>
      <g id="Group_39580" data-name="Group 39580" transform="translate(95.752 103.747)" style="mix-blend-mode: multiply;isolation: isolate">
        <path id="Path_34612" data-name="Path 34612" d="M301.912,245.829a15.206,15.206,0,0,0,2.3-1.21,5.745,5.745,0,0,0,1.885-1.731.159.159,0,0,0-.216-.216,20.305,20.305,0,0,0-2.04,1.454,15.193,15.193,0,0,1-2.168,1.289c-.282.138-.035.53.241.413Z" transform="translate(-301.546 -242.653)" fill="#c8c0bd"/>
      </g>
      <g id="Group_39581" data-name="Group 39581" transform="translate(97.624 107.038)" style="mix-blend-mode: multiply;isolation: isolate">
        <path id="Path_34613" data-name="Path 34613" d="M305.324,250.5a28.272,28.272,0,0,0,2.671-1.584c.125-.089.053-.339-.114-.271a28.844,28.844,0,0,0-2.808,1.425c-.281.153-.029.586.251.43Z" transform="translate(-304.95 -248.636)" fill="#c8c0bd"/>
      </g>
      <g id="Group_39582" data-name="Group 39582" transform="translate(71.088 128.259)" style="mix-blend-mode: multiply;isolation: isolate">
        <path id="Path_34614" data-name="Path 34614" d="M256.892,287.747a15.538,15.538,0,0,0,4.949,1.1,9.972,9.972,0,0,0,4.865-.79.183.183,0,0,0-.092-.339,41.25,41.25,0,0,1-4.773.4,15.091,15.091,0,0,1-4.807-.894c-.329-.118-.456.391-.142.517Z" transform="translate(-256.711 -287.213)" fill="#c8c0bd"/>
      </g>
      <g id="Group_39583" data-name="Group 39583" transform="translate(41.766 86.187)">
        <path id="Path_34615" data-name="Path 34615" d="M203.413,210.845c-.044,3.907.173,7.822.256,11.728q.122,5.789.37,11.576c.321,7.763.455,15.536.676,23.3q.092,3.2.185,6.4c.065,2.221,0,4.492.244,6.7a.223.223,0,0,0,.445,0c.091-1.918-.077-3.868-.139-5.788q-.1-2.971-.192-5.94-.191-5.788-.382-11.576c-.268-7.767-.424-15.536-.7-23.3-.158-4.36-.2-8.747-.521-13.1a.119.119,0,0,0-.237,0Z" transform="translate(-203.407 -210.731)" fill="#bbb1ae"/>
      </g>
      <g id="Group_39584" data-name="Group 39584" transform="translate(17.281 54.774)">
        <path id="Path_34616" data-name="Path 34616" d="M158.9,153.914c.541,2.883,1.325,5.733,2.151,8.546a79.659,79.659,0,0,0,2.871,8.333.21.21,0,0,0,.344.091,17.653,17.653,0,0,1,3.176-2.192l-.282-.162q-.2,2.269-.4,4.538a5.375,5.375,0,0,0-.081,2.083,1.53,1.53,0,0,0,.594.644,60.291,60.291,0,0,1,6.2,5.541,68.567,68.567,0,0,1,5.528,6.4c.818,1.073,1.615,2.164,2.377,3.277.721,1.055,1.351,2.178,2.167,3.164.126.153.418-.012.342-.2a17.321,17.321,0,0,0-1.876-3.181q-1.085-1.594-2.269-3.116a74.625,74.625,0,0,0-5.257-6,58.94,58.94,0,0,0-5.775-5.221,7.3,7.3,0,0,1-1.5-1.19c-.378-.556-.076-1.578-.027-2.2l.358-4.538a.189.189,0,0,0-.282-.162,31.2,31.2,0,0,0-3.237,2.191l.3.123c-.989-2.768-1.993-5.526-2.834-8.344s-1.485-5.68-2.143-8.548c-.067-.29-.5-.165-.443.122Z" transform="translate(-158.897 -153.627)" fill="#bbb1ae"/>
      </g>
      <g id="Group_39585" data-name="Group 39585" transform="translate(42.187 59.932)">
        <path id="Path_34617" data-name="Path 34617" d="M212.513,163.139c-.161,3.522-.434,6.993-.833,10.5l.229-.229a17.478,17.478,0,0,1-2.42-.342.233.233,0,0,0-.26.337q.84,1.561,1.645,3.142c.462.9,1.272,2.035,1.211,3.084a6.8,6.8,0,0,1-.519,1.757q-.29.823-.589,1.641c-.385,1.046-.8,2.082-1.224,3.113-1.737,4.247-3.721,8.382-5.572,12.575-.046.1.094.192.155.091.649-1.087,1.3-2.142,1.855-3.283q.759-1.57,1.476-3.161,1.481-3.277,2.77-6.632c.432-1.131.851-2.267,1.269-3.4a8.2,8.2,0,0,0,.884-3.074,7.7,7.7,0,0,0-1.137-2.705c-.584-1.14-1.2-2.262-1.827-3.377l-.2.345a17.454,17.454,0,0,1,2.42.342.234.234,0,0,0,.282-.161,44.124,44.124,0,0,0,.662-10.556.14.14,0,0,0-.279,0Z" transform="translate(-204.172 -163.004)" fill="#bbb1ae"/>
      </g>
      <path id="Path_34618" data-name="Path 34618" d="M216.477,180.085c-.109-1.4-.281-2.807-.513-4.192a5.109,5.109,0,0,0-1.418-3.134,13.781,13.781,0,0,0-6.192-2.873,14.356,14.356,0,0,0,.315-2.992q.074-1.724.135-3.448a31.3,31.3,0,0,0-.2-6.644c-.59-3.309-2.627-6.531-6.174-7.074a.158.158,0,0,0-.067.309c3.466,1.068,4.989,4.957,5.251,8.256a47.956,47.956,0,0,1-.057,5.824,28.632,28.632,0,0,0-.043,5.627,13.594,13.594,0,0,0-5.718,3.528,5.132,5.132,0,0,0-1.049,3.276c-.073,1.4-.081,2.82-.029,4.224a82.193,82.193,0,0,0,.885,8.7c.124.859,0,2.3,1.021,2.565a7.681,7.681,0,0,0,1.9.095,11.512,11.512,0,0,0,1.841-.151c0,.032,0,.065,0,.1a1.2,1.2,0,0,0,.125.775.551.551,0,0,0,.857.048,1.7,1.7,0,0,0,.387-.8,3.018,3.018,0,0,0-.1-1.789,1.336,1.336,0,0,0-.534-.742.617.617,0,0,0-.863.251,1.953,1.953,0,0,0-.074,1.032c.007.072.019.141.027.211-.474.032-.946.076-1.422.081-.295,0-.59,0-.885-.015-.144-.007-.952.019-1.04-.09.023.028-.007-.739-.007-.732-.034-.3-.071-.6-.1-.9q-.1-.9-.185-1.8c-.221-2.349-.3-4.71-.416-7.066-.054-1.153-.125-2.305-.175-3.458-.054-1.249-.277-2.418.629-3.421a11.942,11.942,0,0,1,2.7-2.155,1.873,1.873,0,0,0,1,.311,7.679,7.679,0,0,0,1.525.013,9,9,0,0,0,1.461-.265,3.39,3.39,0,0,0,1.062-.4,12.481,12.481,0,0,1,3.483,2.073c.98.864.92,1.968,1.006,3.176s.153,2.4.234,3.605c.16,2.353.349,4.708.4,7.067q.02.9.023,1.806c0,.3,0,.6,0,.9,0,.146.1.686.078.728-.113.222-1.45.274-1.753.309-.523.059-1.044.072-1.567.1,0-.034,0-.068,0-.1a3.107,3.107,0,0,0-.095-.919.645.645,0,0,0-.786-.462,1,1,0,0,0-.585.7,3.02,3.02,0,0,0-.025,1.792,2.279,2.279,0,0,0,.378.784c.228.279.592.446.9.172a.863.863,0,0,0,.169-.817c-.011-.068-.021-.135-.032-.2a9.706,9.706,0,0,0,3.724-.378c.975-.356.7-1.818.72-2.666A82.113,82.113,0,0,0,216.477,180.085Zm-9.585,10.986c-.007-.005-.016,0-.024-.01q0-.226.009-.453a2.453,2.453,0,0,1,.1.556A.4.4,0,0,0,206.892,191.071Zm-.118,1.35-.012.025C206.756,192.439,206.762,192.43,206.773,192.421Zm2.442-21.587a7.847,7.847,0,0,1-1.313.268,10.074,10.074,0,0,1-1.294.063,4.913,4.913,0,0,1-.658-.044c.559-.3,1.128-.572,1.69-.809a.332.332,0,0,0,.424.081c.419.115.847.249,1.276.4C209.3,170.806,209.255,170.823,209.215,170.834Zm2.274,19.727q.031.226.062.453c-.007.006-.016.006-.023.012a.4.4,0,0,0-.065.1c0-.05-.015-.1-.015-.149A2.093,2.093,0,0,1,211.489,190.561Z" transform="translate(-160.416 -97.097)" fill="#472d24"/>
      <g id="Group_39588" data-name="Group 39588" transform="translate(21.308 48.596)">
        <g id="Group_39586" data-name="Group 39586">
          <path id="Path_34619" data-name="Path 34619" d="M172.169,175.807a.259.259,0,0,1-.441.178c-.974-.809-1.409-2.609-1.819-3.766-.515-1.433-.974-2.89-1.391-4.36a58.133,58.133,0,0,1-2.3-15.653,13.4,13.4,0,0,1,1.488-6.871,7.5,7.5,0,0,1,3.038-2.94c-.007.392-.019.759-.031,1.084a7.415,7.415,0,0,0-2.786,3.95,19.138,19.138,0,0,0-.349,7.159,70.219,70.219,0,0,0,.968,7.336c.435,2.395,1,4.764,1.666,7.1.325,1.151.692,2.284,1.066,3.417C171.612,173.456,172.286,174.717,172.169,175.807Z" transform="translate(-166.217 -142.395)" fill="#472d24"/>
        </g>
        <path id="Path_34620" data-name="Path 34620" d="M179.988,201.206a2.476,2.476,0,0,0-2.263-.465,4.254,4.254,0,0,0-1.326.661c-.254.18-.467.409-.716.6a3.276,3.276,0,0,1-.728.345,3.253,3.253,0,0,0-2.054,2.85c-.072.726-.147,1.7.493,2.2a2.352,2.352,0,0,0,1.851.3,7.4,7.4,0,0,0,4.048-2.295C180.241,204.359,181.307,202.4,179.988,201.206Z" transform="translate(-169.203 -168.604)" fill="#a0928d"/>
        <g id="Group_39587" data-name="Group 39587" transform="translate(5.429 34.959)">
          <path id="Path_34621" data-name="Path 34621" d="M176.133,208.4a1.777,1.777,0,0,0,.524.171,1.948,1.948,0,0,0,.631-.039,2.955,2.955,0,0,0,1.128-.529,4.545,4.545,0,0,0,1.475-1.975c.026-.063-.065-.1-.108-.063a19.641,19.641,0,0,1-1.587,1.544,3.373,3.373,0,0,1-.93.492,3.876,3.876,0,0,1-1.086.226c-.085,0-.137.133-.047.174Z" transform="translate(-176.086 -205.946)" fill="#472d24"/>
        </g>
        <path id="Path_34622" data-name="Path 34622" d="M177.741,202.584a3.9,3.9,0,0,0-.44-.979,1.926,1.926,0,0,0-1.638-.949,1.366,1.366,0,0,0-1.379,1.151,2.689,2.689,0,0,0,.169,1.279,5.326,5.326,0,0,0,.282.683,1.306,1.306,0,0,0,.529.611,1.1,1.1,0,0,0,.912-.075c.286-.1.565-.234.855-.333a1.294,1.294,0,0,0,.7-.466A1.061,1.061,0,0,0,177.741,202.584Z" transform="translate(-169.837 -168.607)" fill="#472d24"/>
      </g>
      <path id="Path_34623" data-name="Path 34623" d="M184.5,236.772a33.731,33.731,0,0,0,10.308,4.389c5.41,1.123,10.726,1.683,10.726,1.683a13.11,13.11,0,0,1,2.747,5.767c.931,3.875.765,4.653.765,4.653s-4.5,2.554-15.354,3.4c-11.2.869-16.541-.8-20.522-1.924S176.331,234.628,184.5,236.772Z" transform="translate(-147.526 -136.184)" fill="#fff"/>
      <g id="Group_39589" data-name="Group 39589" transform="translate(20.327 73.521)">
        <path id="Path_34624" data-name="Path 34624" d="M164.434,187.889c.442,6.886,2.584,13.978,6.906,19.438,4.425,5.588,10.991,9.217,17.724,11.27a60.329,60.329,0,0,0,6.494,1.571,34.08,34.08,0,0,0,6.554.881.173.173,0,0,0,.046-.338c-1.813-.481-3.755-.608-5.6-.952-1.864-.348-3.718-.757-5.548-1.255a44.6,44.6,0,0,1-10.1-4,29.969,29.969,0,0,1-13.467-15.2,44.645,44.645,0,0,1-2.626-11.414c-.027-.238-.4-.249-.381,0Z" transform="translate(-164.433 -187.706)" fill="#bbb1ae"/>
      </g>
      <g id="Group_39590" data-name="Group 39590" transform="translate(8.542 103.702)">
        <path id="Path_34625" data-name="Path 34625" d="M143.018,242.651a32,32,0,0,0,17.81,15.023c7.342,2.415,15.394,2.637,23.006,1.621a51.331,51.331,0,0,0,12.372-3.159c.3-.121.169-.613-.135-.491a54.658,54.658,0,0,1-22.17,3.511c-7.62-.276-15.53-1.913-21.726-6.592-3.644-2.752-6.378-6.322-9.064-9.967a.054.054,0,0,0-.093.054Z" transform="translate(-143.01 -242.572)" fill="#bbb1ae"/>
      </g>
      <g id="Group_39591" data-name="Group 39591" transform="translate(52.672 69.26)">
        <path id="Path_34626" data-name="Path 34626" d="M223.251,180.2c2.135,4.311,4.372,8.6,5.465,13.322a25.928,25.928,0,0,1,.624,7.308c-.14,2.558-.507,5.1-.665,7.654-.09,1.458-.139,2.918-.168,4.379a36.789,36.789,0,0,0,.007,4.535.212.212,0,0,0,.424,0c.152-1.293.072-2.629.1-3.93.025-1.36.064-2.72.136-4.078.14-2.662.515-5.3.695-7.959a30.274,30.274,0,0,0-2.735-13.909c-1.081-2.554-2.3-5.034-3.6-7.485-.1-.185-.37-.022-.279.163Z" transform="translate(-223.233 -179.96)" fill="#bbb1ae"/>
      </g>
      <g id="Group_39592" data-name="Group 39592" transform="translate(91.01 25.598)">
        <path id="Path_34627" data-name="Path 34627" d="M293.34,101.477a3.464,3.464,0,0,1,2.052.532,4.993,4.993,0,0,1,.832.622c.155.134.294.292.456.417a4.067,4.067,0,0,0,.441.338.258.258,0,0,0,.383-.22,1.875,1.875,0,0,0-.523-1.292,3.3,3.3,0,0,0-1.06-.825,4.373,4.373,0,0,0-2.693-.4c-.467.078-.36.856.112.828Z" transform="translate(-292.927 -100.588)" fill="#472d24"/>
      </g>
      <g id="Group_39593" data-name="Group 39593" transform="translate(78.791 24.695)">
        <path id="Path_34628" data-name="Path 34628" d="M273.7,99.009a2.787,2.787,0,0,0-2.02.336,2.178,2.178,0,0,0-.765.776,1.505,1.505,0,0,0-.136.292.686.686,0,0,0-.023.19c0,.1.024-.087,0,.018a1.159,1.159,0,0,0,0,.542.262.262,0,0,0,.434.114c.045-.046.094-.087.139-.133a1.3,1.3,0,0,0,.091-.114c.016-.023.014-.019-.008.009l.033-.039c.021-.023.013-.019-.026.011l.026-.017a.886.886,0,0,0,.151-.109c.046-.045.086-.1.133-.141.1-.1.195-.192.3-.281l.069-.057c.052-.043-.1.067-.012.011.06-.04.117-.084.175-.125a2.491,2.491,0,0,1,.339-.2l.1-.045c.089-.041-.074.027-.012,0s.123-.046.186-.064.137-.037.206-.052l.087-.015c.062-.012-.1.008-.008,0a2.569,2.569,0,0,1,.427,0,.466.466,0,0,0,.124-.914Z" transform="translate(-270.714 -98.946)" fill="#472d24"/>
      </g>
      <g id="Group_39594" data-name="Group 39594" transform="translate(83 39.923)">
        <path id="Path_34629" data-name="Path 34629" d="M278.543,128.735a10.45,10.45,0,0,0,2.851.852,10.287,10.287,0,0,0,2.911-.091,8.383,8.383,0,0,0,2.422-.83,3.339,3.339,0,0,0,1.779-1.733.242.242,0,0,0-.3-.3,11.6,11.6,0,0,0-1.954,1.068,8.282,8.282,0,0,1-2.231.777,9.657,9.657,0,0,1-2.632.12,16.06,16.06,0,0,1-2.713-.369.26.26,0,0,0-.138.5Z" transform="translate(-278.365 -126.629)" fill="#472d24"/>
      </g>
      <g id="Group_39595" data-name="Group 39595" transform="translate(78.408 28.408)">
        <path id="Path_34630" data-name="Path 34630" d="M270.656,109.381a7.912,7.912,0,0,1,.335-1.077,4.48,4.48,0,0,1,.514-1.009,1.416,1.416,0,0,1,1.483-.654,1.9,1.9,0,0,1,.986,1.183,5.374,5.374,0,0,1,.256,1.014c.029.18.042.363.064.544a1.044,1.044,0,0,0,.1.4c.006.01.249.3.158.169a.3.3,0,0,0,.505,0,1.848,1.848,0,0,0,.153-.224.9.9,0,0,0,.052-.3,3.453,3.453,0,0,0-.085-.674,6.633,6.633,0,0,0-.232-.967,3.522,3.522,0,0,0-.949-1.556,2.147,2.147,0,0,0-1.781-.5,2.463,2.463,0,0,0-1.63,1.152,4.931,4.931,0,0,0-.57,2.417c-.025.369.546.436.638.086Z" transform="translate(-270.018 -105.697)" fill="#472d24"/>
      </g>
      <g id="Group_39596" data-name="Group 39596" transform="translate(89.093 29.506)">
        <path id="Path_34631" data-name="Path 34631" d="M290.08,111.367a6.39,6.39,0,0,1,.388-1.13,3.859,3.859,0,0,1,.55-.916,1.9,1.9,0,0,1,1.829-.678,2.085,2.085,0,0,1,1.225,1.174,4.066,4.066,0,0,1,.3.919c.051.232.076.465.114.7a.986.986,0,0,0,.086.309.84.84,0,0,0,.114.166c.1.072.117.089.059.048a.3.3,0,0,0,.518,0,1.031,1.031,0,0,0,.19-.553,3.814,3.814,0,0,0-.116-.726,5.847,5.847,0,0,0-.3-.995,3.535,3.535,0,0,0-1.118-1.5,2.746,2.746,0,0,0-3.775.652,4.6,4.6,0,0,0-.7,2.445c-.035.371.542.431.638.086Z" transform="translate(-289.441 -107.693)" fill="#472d24"/>
      </g>
    </g>
  </g>
</svg>
