<svg xmlns="http://www.w3.org/2000/svg" xmlns:xlink="http://www.w3.org/1999/xlink" width="153.695" height="152.354" viewBox="0 0 153.695 152.354">
  <defs>
    <clipPath id="clip-path">
      <path id="Path_34511" data-name="Path 34511" d="M193.816,133.725c25.951-.095,40.907,24.858,29.984,64.056s-31.282,54.4-69.494,61.2c-12.151,2.163-61.329-8.351-73.872-40.983-14.175-36.88-5.151-71.876,19.881-72.932,0,0,5.293-22.776,42.406-27.244C177.985,113.578,193.816,133.725,193.816,133.725Z" transform="translate(-73.717 -117.236)" fill="none"/>
    </clipPath>
  </defs>
  <g id="Group_39543" data-name="Group 39543" transform="translate(0 0)">
    <g id="Group_39463" data-name="Group 39463" transform="translate(0 16.489)">
      <path id="Path_34349" data-name="Path 34349" d="M154.306,281.921c-12.151,2.163-61.329-8.351-73.872-40.983-14.175-36.88-5.151-71.876,19.881-72.932S150.4,176.92,150.4,176.92s21.153-20.176,43.412-20.256c25.951-.095,40.907,24.858,29.984,64.056S192.518,275.12,154.306,281.921Z" transform="translate(-73.717 -156.663)" fill="#fff4e6"/>
      <path id="Path_34350" data-name="Path 34350" d="M165.888,301.557c-10.786,1.92-54.443-7.414-65.577-36.382-12.583-32.739-4.572-63.805,17.649-64.743s44.464,7.913,44.464,7.913,18.778-17.91,38.538-17.982c23.037-.084,36.314,22.067,26.618,56.864S199.81,295.52,165.888,301.557Z" transform="translate(-85.72 -176.27)" fill="#fff3dc" opacity="0.7" style="mix-blend-mode: multiply;isolation: isolate"/>
      <path id="Path_34351" data-name="Path 34351" d="M178.343,322.672c-9.32,1.659-47.039-6.405-56.659-31.434-10.872-28.286-3.95-55.128,15.249-55.938s38.417,6.837,38.417,6.837,16.224-15.474,33.3-15.537c19.9-.072,31.375,19.066,23,49.131S207.652,317.456,178.343,322.672Z" transform="translate(-98.627 -197.352)" fill="#fff3dc" opacity="0.7" style="mix-blend-mode: multiply;isolation: isolate"/>
    </g>
    <g id="Group_39535" data-name="Group 39535" transform="translate(0 0)">
      <g id="Group_39522" data-name="Group 39522">
        <g id="Group_39521" data-name="Group 39521" clip-path="url(#clip-path)">
          <g id="Group_39482" data-name="Group 39482" transform="translate(18.8 1.891)">
            <g id="Group_39465" data-name="Group 39465" transform="translate(10.796)">
              <path id="Path_34352" data-name="Path 34352" d="M182.545,126.176s-8.3-4.871-17.791,3.542-11.71,28.179-7.873,38.813.59,20.817-9.446,31.739,6.044,28.192,40.438,25.092,45.316-10.184,41.184-25.239-16.826-22.594-13.874-31.592,5.132-29.572-7.913-41.277S182.545,126.176,182.545,126.176Z" transform="translate(-144.485 -121.757)" fill="#5b2526"/>
              <g id="Group_39464" data-name="Group 39464" transform="translate(7.051 6.437)" opacity="0.5" style="mix-blend-mode: multiply;isolation: isolate">
                <path id="Path_34353" data-name="Path 34353" d="M173.315,244.687c-.635-3.278-1.273-6.62-2.989-9.529-.075-.127-.251-.005-.189.121a35.917,35.917,0,0,1,2.467,8.62,21.118,21.118,0,0,1-.22,10.757c-1.73,5.713-5.549,12.072-11.023,14.775a.033.033,0,0,0,.029.059c5.824-2.519,9.705-8.805,11.492-14.7A20.692,20.692,0,0,0,173.315,244.687Z" transform="translate(-161.344 -194.138)" fill="#5b2526"/>
                <path id="Path_34354" data-name="Path 34354" d="M199.841,256.187c-.084-.213-.448-.1-.387.123,1.163,4.253,2.413,8.477,2.314,12.938-.083,3.78-1.144,8.664-4.049,11.359-.025.023.009.062.035.04,2.77-2.369,4.014-6.627,4.4-10.139A31.012,31.012,0,0,0,199.841,256.187Z" transform="translate(-182.501 -206.337)" fill="#5b2526"/>
                <path id="Path_34355" data-name="Path 34355" d="M312.185,267.9c-1.3-2.315-3.014-4.362-4.352-6.654a38.587,38.587,0,0,1-3.636-8.414c-1.784-6.007-1.128-12.025.559-17.958.039-.136-.18-.21-.235-.079a27.309,27.309,0,0,0-.9,17.781,35.962,35.962,0,0,0,3.481,8.156c1.476,2.547,3.473,4.707,5.038,7.191C312.155,267.954,312.2,267.934,312.185,267.9Z" transform="translate(-243.496 -193.92)" fill="#5b2526"/>
                <path id="Path_34356" data-name="Path 34356" d="M292.855,259.848a23.265,23.265,0,0,1,.787-8.139,18.057,18.057,0,0,0,1.045-5.558c-.005-.13-.222-.156-.235-.018-.229,2.568-1.23,4.929-1.711,7.443a23.45,23.45,0,0,0-.329,5.963c.333,5,2.572,8.913,4.942,13.195.012.022.047.007.036-.016C295.381,268.483,293.234,264.63,292.855,259.848Z" transform="translate(-237.563 -200.5)" fill="#5b2526"/>
                <path id="Path_34357" data-name="Path 34357" d="M279.747,283.154c-3.156-5.05-4.012-13.006-2.226-18.665.069-.217-.257-.35-.332-.13-1.928,5.653-.954,13.947,2.5,18.832C279.713,283.22,279.766,283.185,279.747,283.154Z" transform="translate(-228.172 -211.091)" fill="#5b2526"/>
                <path id="Path_34358" data-name="Path 34358" d="M193.471,137.156a19.328,19.328,0,0,0-12.459,10.4c-2.742,5.594-4.326,13.533-2.451,19.608.012.04.076.029.065-.012-1.5-5.566-.133-12.693,2.053-17.921a19.554,19.554,0,0,1,12.851-11.7C193.764,137.467,193.71,137.091,193.471,137.156Z" transform="translate(-170.886 -137.148)" fill="#5b2526"/>
              </g>
            </g>
            <path id="Path_34359" data-name="Path 34359" d="M210.431,272.976c-3.346-2.46-23.291-9.3-24.275-10.778s-.423-8.41-.423-8.41H169.891s1.673,8.462,0,9.939-19.09,7.478-22.238,9.938-16.63,24.9-19.286,37.391c-1.154,5.428,3.728,12.731,11.875,19.514,14.646,10.264,30.8,16.332,40.072,18.262.758.115,1.515.218,2.27.3a33.671,33.671,0,0,0,4.577.207,105.335,105.335,0,0,0,21.872-8.2c11.926-9.105,18.987-23.115,19.6-27.723C229.619,306.038,213.776,275.436,210.431,272.976Z" transform="translate(-124.213 -198.57)" fill="#ffaf8e"/>
            <path id="Path_34360" data-name="Path 34360" d="M204.887,290.716c-1.846-1.357-8.744-4.048-14.723-6.436-2.3,2.574-6.71,5.9-14.3,6.14a37.722,37.722,0,0,1-19.972-5.2c-5.518,2.214-11.979,4.777-13.779,6.183-3.149,2.46-21.873,20.363-23.33,33.9-1.2,11.152,7.772,16.224,15.919,23.007,14.646,10.264,30.8,16.332,40.072,18.262.758.115,1.515.218,2.271.3a33.666,33.666,0,0,0,4.577.207,105.341,105.341,0,0,0,21.872-8.2c11.926-9.105,22.4-16.007,21.809-25.962C224.423,318.205,208.233,293.175,204.887,290.716Z" transform="translate(-118.67 -216.31)" fill="#5a3082"/>
            <path id="Path_34361" data-name="Path 34361" d="M200.154,288.484s21.358,17.31,41.023-.765" transform="translate(-166.076 -218.311)" fill="none" stroke="#fff" stroke-width="1.01" opacity="0.3" style="mix-blend-mode: overlay;isolation: isolate"/>
            <g id="Group_39466" data-name="Group 39466" transform="translate(37.883 78.937)" opacity="0.4" style="mix-blend-mode: overlay;isolation: isolate">
              <path id="Path_34362" data-name="Path 34362" d="M241.531,383.632a2.083,2.083,0,0,1-.988-1.589c-.086-1.1,1.1-1.181,1.611-.515a2.039,2.039,0,0,1,.279,1.589,1.908,1.908,0,0,1,1.418-1.418c1.267-.386,1.611,1.439,0,2.148a1.953,1.953,0,0,1,1.7.859c.537.924-1.053,1.8-2.084.365,0,0,.061,1.928-1.31,1.826-1.439-.107-.43-2.1-.43-2.1s-1.181,1.267-1.912.3C239.14,384.2,240.264,383.331,241.531,383.632Z" transform="translate(-226.914 -351.578)" fill="#fff"/>
              <path id="Path_34363" data-name="Path 34363" d="M211.51,312.68a2.084,2.084,0,0,1,.432-1.821c.717-.833,1.61-.054,1.5.78a2.039,2.039,0,0,1-.931,1.318,1.907,1.907,0,0,1,2,.008c1.167.627.113,2.157-1.524,1.513a1.953,1.953,0,0,1,.585,1.81c-.277,1.032-2.022.524-1.727-1.221,0,0-1.325,1.4-2.219.356-.938-1.1,1.191-1.787,1.191-1.787s-1.732.054-1.56-1.145C209.422,311.384,210.831,311.569,211.51,312.68Z" transform="translate(-209.251 -310.503)" fill="#fff"/>
              <path id="Path_34364" data-name="Path 34364" d="M251.636,452.376a2.084,2.084,0,0,1,.432-1.821c.717-.833,1.61-.055,1.5.78a2.039,2.039,0,0,1-.931,1.318,1.907,1.907,0,0,1,2,.008c1.167.627.113,2.157-1.524,1.513a1.953,1.953,0,0,1,.585,1.81c-.277,1.031-2.022.524-1.727-1.222,0,0-1.325,1.4-2.219.356-.937-1.1,1.191-1.787,1.191-1.787s-1.731.054-1.56-1.145C249.547,451.079,250.957,451.264,251.636,452.376Z" transform="translate(-232.596 -391.775)" fill="#fff"/>
              <path id="Path_34365" data-name="Path 34365" d="M263.376,343.309a2.084,2.084,0,0,1,1.851-.273c1.039.358.647,1.475-.169,1.683a2.04,2.04,0,0,1-1.569-.377,1.907,1.907,0,0,1,.735,1.865c-.15,1.317-1.961.9-1.97-.856a1.954,1.954,0,0,1-1.464,1.214c-1.061.125-1.235-1.684.5-2.056,0,0-1.793-.712-1.153-1.929.672-1.277,2.1.445,2.1.445s-.691-1.588.486-1.873C263.807,340.888,264.157,342.266,263.376,343.309Z" transform="translate(-238.769 -328.314)" fill="#fff"/>
              <path id="Path_34366" data-name="Path 34366" d="M259.651,425.05a2.085,2.085,0,0,1,1.851-.273c1.039.358.647,1.475-.169,1.683a2.039,2.039,0,0,1-1.569-.377,1.908,1.908,0,0,1,.735,1.865c-.151,1.317-1.962.9-1.97-.856a1.954,1.954,0,0,1-1.464,1.214c-1.061.124-1.235-1.684.5-2.056,0,0-1.793-.712-1.153-1.929.672-1.277,2.1.445,2.1.445s-.692-1.588.486-1.873C260.082,422.63,260.432,424.008,259.651,425.05Z" transform="translate(-236.602 -375.87)" fill="#fff"/>
              <path id="Path_34367" data-name="Path 34367" d="M217.094,415.6a2.084,2.084,0,0,1,1.851-.273c1.039.358.647,1.476-.169,1.683a2.04,2.04,0,0,1-1.569-.377,1.908,1.908,0,0,1,.736,1.865c-.151,1.317-1.962.9-1.97-.856a1.953,1.953,0,0,1-1.464,1.214c-1.061.124-1.235-1.684.5-2.056,0,0-1.793-.712-1.153-1.929.672-1.277,2.1.445,2.1.445s-.692-1.588.486-1.873C217.525,413.176,217.875,414.554,217.094,415.6Z" transform="translate(-211.843 -370.37)" fill="#fff"/>
              <path id="Path_34368" data-name="Path 34368" d="M291.913,378.473a2.085,2.085,0,0,1,1.851-.273c1.039.358.647,1.475-.169,1.683a2.039,2.039,0,0,1-1.569-.377,1.907,1.907,0,0,1,.735,1.865c-.15,1.316-1.961.9-1.97-.856a1.954,1.954,0,0,1-1.464,1.214c-1.061.124-1.235-1.684.5-2.056,0,0-1.792-.712-1.152-1.929.672-1.277,2.1.445,2.1.445s-.692-1.588.486-1.873C292.344,376.053,292.694,377.431,291.913,378.473Z" transform="translate(-255.371 -348.773)" fill="#fff"/>
            </g>
            <g id="Group_39467" data-name="Group 39467" transform="translate(30.243 74.271)" opacity="0.2" style="mix-blend-mode: multiply;isolation: isolate">
              <path id="Path_34369" data-name="Path 34369" d="M231.673,327.432s-1.869,3.641,1.673,4.625C233.346,332.057,235.019,328.81,231.673,327.432Z" transform="translate(-214.37 -315.687)" fill="#5a3082"/>
              <path id="Path_34370" data-name="Path 34370" d="M190.985,299.581s.869,3.837,5.1,1.968A4.223,4.223,0,0,0,190.985,299.581Z" transform="translate(-190.985 -299.348)" fill="#5a3082"/>
              <path id="Path_34371" data-name="Path 34371" d="M266.653,320.43a3.665,3.665,0,0,1,4.231-2.853S271.081,320.627,266.653,320.43Z" transform="translate(-235.007 -309.924)" fill="#5a3082"/>
              <path id="Path_34372" data-name="Path 34372" d="M239.762,359.326a3.665,3.665,0,0,1,4.231-2.854S244.19,359.523,239.762,359.326Z" transform="translate(-219.363 -332.553)" fill="#5a3082"/>
              <path id="Path_34373" data-name="Path 34373" d="M260.975,442.635a3.665,3.665,0,0,1,4.231-2.854S265.4,442.832,260.975,442.635Z" transform="translate(-231.704 -381.021)" fill="#5a3082"/>
              <path id="Path_34374" data-name="Path 34374" d="M213.539,359.906s3.623-.173,3.964,4C217.5,363.9,213.465,364.727,213.539,359.906Z" transform="translate(-204.106 -334.579)" fill="#5a3082"/>
              <path id="Path_34375" data-name="Path 34375" d="M260.975,378.7s3.511-1.181,4.491,3.149A3.489,3.489,0,0,1,260.975,378.7Z" transform="translate(-231.704 -345.426)" fill="#5a3082"/>
              <path id="Path_34376" data-name="Path 34376" d="M231.18,422.552s3.511-1.181,4.491,3.149A3.489,3.489,0,0,1,231.18,422.552Z" transform="translate(-214.37 -370.941)" fill="#5a3082"/>
              <path id="Path_34377" data-name="Path 34377" d="M289.537,362.08s.295-3.149,4.526-1.869C294.063,360.211,293.079,363.949,289.537,362.08Z" transform="translate(-248.321 -334.579)" fill="#5a3082"/>
              <path id="Path_34378" data-name="Path 34378" d="M213.538,397.432s1.867-2.854,4.919,0A3.007,3.007,0,0,1,213.538,397.432Z" transform="translate(-204.106 -355.674)" fill="#5a3082"/>
              <path id="Path_34379" data-name="Path 34379" d="M249.882,414.913s.061-3.955,3.8-3.955C253.681,410.957,254.94,414.342,249.882,414.913Z" transform="translate(-225.25 -364.28)" fill="#5a3082"/>
            </g>
            <g id="Group_39468" data-name="Group 39468" transform="translate(39.558 79.185)" opacity="0.2" style="mix-blend-mode: overlay;isolation: isolate">
              <path id="Path_34380" data-name="Path 34380" d="M229.959,313.81a.711.711,0,0,0-.77-.6.692.692,0,0,0-.6.771.711.711,0,0,0,.771.6A.691.691,0,0,0,229.959,313.81Z" transform="translate(-222.174 -312.328)" fill="#fff"/>
              <path id="Path_34381" data-name="Path 34381" d="M247.431,322.434a.818.818,0,0,0-.78.842.829.829,0,0,0,.842.78.818.818,0,0,0,.78-.842A.829.829,0,0,0,247.431,322.434Z" transform="translate(-232.683 -317.693)" fill="#fff"/>
              <path id="Path_34382" data-name="Path 34382" d="M273.752,311.1a.733.733,0,1,0,.672.788A.747.747,0,0,0,273.752,311.1Z" transform="translate(-247.993 -311.098)" fill="#fff"/>
              <path id="Path_34383" data-name="Path 34383" d="M248.377,339.571a.55.55,0,0,0-.588.475.538.538,0,0,0,.476.588.55.55,0,0,0,.588-.476A.539.539,0,0,0,248.377,339.571Z" transform="translate(-233.346 -327.663)" fill="#fff"/>
              <path id="Path_34384" data-name="Path 34384" d="M226.1,342.214a.607.607,0,1,0,.609.606A.617.617,0,0,0,226.1,342.214Z" transform="translate(-220.377 -329.201)" fill="#fff"/>
              <path id="Path_34385" data-name="Path 34385" d="M277.012,358.258l-.044.01a.709.709,0,0,0,.026,1.4l.07.013a.72.72,0,1,0-.052-1.427Z" transform="translate(-249.977 -338.526)" fill="#fff"/>
              <path id="Path_34386" data-name="Path 34386" d="M255.044,367.3a.566.566,0,0,0-.593.5.555.555,0,0,0,.5.594.566.566,0,0,0,.593-.5A.555.555,0,0,0,255.044,367.3Z" transform="translate(-237.222 -343.794)" fill="#fff"/>
              <path id="Path_34387" data-name="Path 34387" d="M234.995,379.312c-.823,0-.757,1.279.067,1.279S235.818,379.312,234.995,379.312Z" transform="translate(-225.563 -350.784)" fill="#fff"/>
              <path id="Path_34388" data-name="Path 34388" d="M238.224,397.447a.732.732,0,1,0,.672.788A.748.748,0,0,0,238.224,397.447Z" transform="translate(-227.323 -361.334)" fill="#fff"/>
              <path id="Path_34389" data-name="Path 34389" d="M214.468,404.122a.6.6,0,0,0-1.2-.005l-.005.054a.607.607,0,0,0,1.214,0Z" transform="translate(-213.256 -364.866)" fill="#fff"/>
              <path id="Path_34390" data-name="Path 34390" d="M245.27,442.44l-.026-.008a.779.779,0,0,0-.923.44.793.793,0,0,0,.307.975l.036.028a.785.785,0,1,0,.606-1.435Z" transform="translate(-231.29 -387.488)" fill="#fff"/>
              <path id="Path_34391" data-name="Path 34391" d="M270.205,450.425a.692.692,0,0,0-.738-.6.676.676,0,0,0-.6.738.692.692,0,0,0,.738.6A.675.675,0,0,0,270.205,450.425Z" transform="translate(-245.606 -391.806)" fill="#fff"/>
              <path id="Path_34392" data-name="Path 34392" d="M268.416,474.65c-.6,0-.551.926.046.926S269.013,474.65,268.416,474.65Z" transform="translate(-245.1 -406.25)" fill="#fff"/>
              <path id="Path_34393" data-name="Path 34393" d="M277.963,412.514a.707.707,0,0,0-.764-.6.688.688,0,0,0-.6.764.707.707,0,0,0,.764.6A.688.688,0,0,0,277.963,412.514Z" transform="translate(-250.105 -369.752)" fill="#fff"/>
              <path id="Path_34394" data-name="Path 34394" d="M259.4,396.942c-.956,0-1.051,1.489-.09,1.489S260.362,396.942,259.4,396.942Z" transform="translate(-239.657 -361.041)" fill="#fff"/>
              <path id="Path_34395" data-name="Path 34395" d="M279.555,385.853a1.035,1.035,0,0,0-.662.079.629.629,0,0,0,0,1.065c-.087-.039-.063-.018.086.074a.884.884,0,0,0,.676.052A.665.665,0,0,0,279.555,385.853Z" transform="translate(-251.271 -354.579)" fill="#fff"/>
              <path id="Path_34396" data-name="Path 34396" d="M249.127,426.674a1.036,1.036,0,0,0-.663.079.629.629,0,0,0,0,1.065c-.087-.04-.064-.018.085.074a.884.884,0,0,0,.676.052A.665.665,0,0,0,249.127,426.674Z" transform="translate(-233.568 -378.328)" fill="#fff"/>
              <path id="Path_34397" data-name="Path 34397" d="M304.654,362.8a.64.64,0,1,0,.672.606A.647.647,0,0,0,304.654,362.8Z" transform="translate(-266.077 -341.176)" fill="#fff"/>
            </g>
            <path id="Path_34398" data-name="Path 34398" d="M243.731,253.788H227.889s.4,2.01.611,4.242c.031.319,4.392,3.338,7.734,3.434,2.687.078,7.346-2.864,7.342-3.159C243.546,256.078,243.731,253.788,243.731,253.788Z" transform="translate(-182.212 -198.57)" fill="#ffaf8e" opacity="0.4" style="mix-blend-mode: multiply;isolation: isolate"/>
            <g id="Group_39481" data-name="Group 39481" transform="translate(27.908 3.212)">
              <g id="Group_39474" data-name="Group 39474" transform="translate(5.942 6.302)">
                <g id="Group_39469" data-name="Group 39469">
                  <path id="Path_34399" data-name="Path 34399" d="M219.447,195.377c-8.8-.09-18.692-8.623-19.7-24.408-1.067-16.791,3.705-26.194,18.425-26.457s22.347,7.066,21.046,26.858C237.946,190.78,226.048,195.444,219.447,195.377Z" transform="translate(-199.608 -144.506)" fill="#ffaf8e"/>
                  <path id="Path_34400" data-name="Path 34400" d="M242.6,169.171a32.2,32.2,0,0,0-2.705-13.337,17.263,17.263,0,0,0-11.114-8.195c-14.977-3.654-25.868,6.057-23.146,21.413,0,0,4.556-1.946,5.088-6s2.081-7.44,3.787-8.084c0,0,2.419,13.865,15.361,9.571C229.873,164.544,235.317,171.955,242.6,169.171Z" transform="translate(-202.872 -145.881)" fill="#ffaf8e" opacity="0.3" style="mix-blend-mode: multiply;isolation: isolate"/>
                  <path id="Path_34401" data-name="Path 34401" d="M243.462,256.338a17.728,17.728,0,0,1-11.083,4.014,16.921,16.921,0,0,1-10.543-4.164" transform="translate(-212.54 -209.481)" fill="none" stroke="#9e4733" stroke-linecap="round" stroke-linejoin="round" stroke-width="1.01"/>
                </g>
                <g id="Group_39473" data-name="Group 39473" transform="translate(5.21 18.505)">
                  <path id="Path_34402" data-name="Path 34402" d="M221.7,200.806s-1.211,3.2-4.1,2.9-2.9-4.31-2.9-4.31l-1.551-.218" transform="translate(-212.695 -194.821)" fill="none" stroke="#9e4733" stroke-linecap="round" stroke-linejoin="round" stroke-width="2.02"/>
                  <path id="Path_34403" data-name="Path 34403" d="M213.2,191.114a14.01,14.01,0,0,1,6.218-.419c2.993.619,3.472.967,3.536-.141S217.9,186.851,213.2,191.114Z" transform="translate(-212.724 -188.753)" fill="#5b2526"/>
                  <path id="Path_34404" data-name="Path 34404" d="M261.007,201.327s1.145,3.229,4.04,2.987,2.989-4.25,2.989-4.25l1.555-.187" transform="translate(-240.539 -195.225)" fill="none" stroke="#9e4733" stroke-linecap="round" stroke-linejoin="round" stroke-width="2.02"/>
                  <path id="Path_34405" data-name="Path 34405" d="M268.032,191.647a14.008,14.008,0,0,0-6.208-.545c-3,.559-3.49.9-3.533-.213S263.416,187.289,268.032,191.647Z" transform="translate(-238.96 -188.996)" fill="#5b2526"/>
                  <path id="Path_34406" data-name="Path 34406" d="M243.293,206.918s.491,3.578-1.23,3.787-1.869,1.474-.611,2.255,3.795.445,4.22-1.359" transform="translate(-228.68 -199.321)" fill="none" stroke="#9e4733" stroke-linecap="round" stroke-linejoin="round" stroke-width="1.01"/>
                  <g id="Group_39471" data-name="Group 39471" transform="translate(8.865 18.535)">
                    <path id="Path_34407" data-name="Path 34407" d="M241.958,234.34s-1.238-1.868-2.648-1.071a3.167,3.167,0,0,0-1.637,1.826s1.288,3.425,4.368,3.318c3.739-.13,4.062-3.095,4.062-3.095s-.783-2.194-2.21-2.208A2.772,2.772,0,0,0,241.958,234.34Z" transform="translate(-235.829 -233.071)" fill="#ffaf8e" opacity="0.6" style="mix-blend-mode: multiply;isolation: isolate"/>
                    <g id="Group_39470" data-name="Group 39470" transform="translate(0 1.202)">
                      <path id="Path_34408" data-name="Path 34408" d="M233.265,235.945s6.243,3.679,12.257.125" transform="translate(-233.265 -235.945)" fill="none" stroke="#9e4733" stroke-linecap="round" stroke-linejoin="round" stroke-width="1.01"/>
                    </g>
                  </g>
                  <g id="Group_39472" data-name="Group 39472" transform="translate(0 10.373)" opacity="0.3" style="mix-blend-mode: multiply;isolation: isolate">
                    <path id="Path_34409" data-name="Path 34409" d="M219.2,217.163c-.38.985-2.27,1.174-4.221.422s-3.226-2.161-2.846-3.146,2.27-1.174,4.221-.422S219.581,216.177,219.2,217.163Z" transform="translate(-212.067 -213.556)" fill="#ffaf8e"/>
                    <path id="Path_34410" data-name="Path 34410" d="M264.578,217.669c.36.993,2.245,1.22,4.212.507s3.269-2.095,2.91-3.088-2.245-1.22-4.212-.507S264.218,216.676,264.578,217.669Z" transform="translate(-242.582 -213.911)" fill="#ffaf8e"/>
                  </g>
                </g>
              </g>
              <g id="Group_39476" data-name="Group 39476" transform="translate(3.157)">
                <path id="Path_34411" data-name="Path 34411" d="M200.773,159.8c1.17-3.185,1.082-12.5,7.183-13.186,0,0,2.853,11.316,12.5,9.84,0,0-2.657-3.345-2.263-9.84,0,0,6.509,16.064,17.277,15.313h2.286a34.329,34.329,0,0,0-3.642-17.478c-4.506-8.462-22.415-13.186-33.238-6.1s-7.41,23.124-7.41,23.124S199,164.622,200.773,159.8Z" transform="translate(-192.951 -132.616)" fill="#5b2526"/>
                <path id="Path_34412" data-name="Path 34412" d="M228.632,169.122a9.74,9.74,0,0,1-2.926-4.967c-.487-2.411.335-3.99,1-6.191.039-.129-.146-.176-.209-.075a11.648,11.648,0,0,0-.685,1.26c-2.545,1.627-2.64,7.492-.937,9.514.025.03.068,0,.055-.036a9.587,9.587,0,0,1,.459-8.392,7.616,7.616,0,0,0-.079,4.354c.458,1.738,1.563,3.826,3.252,4.614C228.615,169.225,228.68,169.167,228.632,169.122Z" transform="translate(-210.858 -145.958)" fill="#5b2526"/>
                <g id="Group_39475" data-name="Group 39475" transform="translate(1.735)" opacity="0.5" style="mix-blend-mode: multiply;isolation: isolate">
                  <path id="Path_34413" data-name="Path 34413" d="M207.407,147c-2.755,1.639-5.278,3.326-6.661,6.336a8.727,8.727,0,0,0-.841,4.273c.115,2.409.293,5.662-2.779,6.172-.036.006-.035.066,0,.065,2.433-.083,3.317-2.322,3.346-4.513.035-2.645-.131-4.672,1.378-7.06,1.419-2.244,3.658-3.442,5.742-4.96C207.761,147.2,207.588,146.9,207.407,147Z" transform="translate(-197.1 -139.644)" fill="#5b2526"/>
                  <path id="Path_34414" data-name="Path 34414" d="M241.245,154.742a14.63,14.63,0,0,1-5.656-8.185,22.7,22.7,0,0,1-.607-10.7.139.139,0,0,0-.262-.083c-.9,1.948-.7,3.974-.429,6.045a29.744,29.744,0,0,0,1.225,6.147,13.041,13.041,0,0,0,5.667,6.877A.059.059,0,0,0,241.245,154.742Z" transform="translate(-218.604 -133.08)" fill="#5b2526"/>
                  <path id="Path_34415" data-name="Path 34415" d="M269.82,155.075c-2.926.757-6.29-.988-8.732-2.461a22.861,22.861,0,0,1-7.125-6.522,38.8,38.8,0,0,1-3.763-7.113,19.864,19.864,0,0,1-1.417-4.363c-.219-1.323-.131-2.636-.431-3.948a.1.1,0,0,0-.194.029,24.215,24.215,0,0,0,.48,5.419,29.546,29.546,0,0,0,1.56,4.092,30.747,30.747,0,0,0,5.176,8.453,23.107,23.107,0,0,0,7.4,5.283c2.149.986,4.7,1.92,7.046,1.144C269.83,155.085,269.827,155.073,269.82,155.075Z" transform="translate(-226.804 -130.113)" fill="#5b2526"/>
                  <path id="Path_34416" data-name="Path 34416" d="M279.372,149.889c-3.984-1.792-7.819-3.57-10.908-6.763a24.581,24.581,0,0,1-3.632-5.009c-1.145-2.014-1.7-4.185-2.647-6.27a.119.119,0,0,0-.226.072c2.273,8.809,8.447,15.662,17.4,18A.013.013,0,0,0,279.372,149.889Z" transform="translate(-234.831 -130.794)" fill="#5b2526"/>
                  <path id="Path_34417" data-name="Path 34417" d="M287.993,143.182a32.2,32.2,0,0,1-6.971-5.767c-2-2.426-3.111-5.238-4.678-7.913-.085-.146-.3-.016-.255.134a25.578,25.578,0,0,0,4.378,7.8,26.9,26.9,0,0,0,7.437,5.907C288.007,143.406,288.089,143.248,287.993,143.182Z" transform="translate(-243.05 -129.438)" fill="#5b2526"/>
                </g>
              </g>
              <g id="Group_39478" data-name="Group 39478" transform="translate(0 27.765)">
                <path id="Path_34418" data-name="Path 34418" d="M192.1,197.881s-.908-3.087-4.661-1.7-2.6,13.378,5.872,11.5Z" transform="translate(-185.401 -195.826)" fill="#ffaf8e"/>
                <g id="Group_39477" data-name="Group 39477" transform="translate(1.43 1.548)">
                  <path id="Path_34419" data-name="Path 34419" d="M188.82,201.064a2.818,2.818,0,0,1,4.477-.726" transform="translate(-188.82 -199.527)" fill="none" stroke="#9e4733" stroke-linecap="round" stroke-linejoin="round" stroke-width="1.01"/>
                  <path id="Path_34420" data-name="Path 34420" d="M192.728,201.346s.059-1.309,1.778-1.334" transform="translate(-191.094 -199.809)" fill="none" stroke="#9e4733" stroke-linecap="round" stroke-linejoin="round" stroke-width="1.01"/>
                </g>
                <path id="Path_34421" data-name="Path 34421" d="M193.15,221.8a2.752,2.752,0,1,1-1.539.47" transform="translate(-188.308 -210.937)" fill="none" stroke="#fff" stroke-linecap="round" stroke-linejoin="round" stroke-width="1.01"/>
              </g>
              <g id="Group_39480" data-name="Group 39480" transform="translate(44.005 27.765)">
                <path id="Path_34422" data-name="Path 34422" d="M291.832,197.881s.908-3.087,4.661-1.7,2.6,13.378-5.872,11.5Z" transform="translate(-290.621 -195.826)" fill="#ffaf8e"/>
                <g id="Group_39479" data-name="Group 39479" transform="translate(2 1.548)">
                  <path id="Path_34423" data-name="Path 34423" d="M299.881,201.064a2.819,2.819,0,0,0-4.477-.726" transform="translate(-295.404 -199.527)" fill="none" stroke="#9e4733" stroke-linecap="round" stroke-linejoin="round" stroke-width="1.01"/>
                  <path id="Path_34424" data-name="Path 34424" d="M299.727,201.346s-.059-1.309-1.778-1.334" transform="translate(-296.885 -199.809)" fill="none" stroke="#9e4733" stroke-linecap="round" stroke-linejoin="round" stroke-width="1.01"/>
                </g>
                <path id="Path_34425" data-name="Path 34425" d="M294.119,221.8a2.752,2.752,0,1,0,1.539.47" transform="translate(-291.054 -210.937)" fill="none" stroke="#fff" stroke-linecap="round" stroke-linejoin="round" stroke-width="1.01"/>
              </g>
            </g>
          </g>
          <g id="Group_39502" data-name="Group 39502" transform="translate(17.038 67.845)">
            <g id="Group_39483" data-name="Group 39483" transform="translate(18.319 41.099)">
              <path id="Path_34426" data-name="Path 34426" d="M196.544,413.289a161.371,161.371,0,0,0-9.238-19.35c-6.7-11.2-12.4-13.752-12.4-13.752l-13.448,4.243s-3.724,4.02-3.136,12.15c.069,5.555,4.72,20.935,4.72,20.935S183.681,421.59,196.544,413.289Z" transform="translate(-158.261 -379.16)" fill="#ff6d83"/>
              <path id="Path_34427" data-name="Path 34427" d="M204.7,417.271c-1.13-2.285-2.317-4.528-3.5-6.5-.344-.575-.684-1.121-1.022-1.652a10.176,10.176,0,0,1-5.5,4.041c-4,.934-9.343-1.535-9.343-1.535s-9.191,9.249,3.6,12.679C199.529,427.143,203.6,419.868,204.7,417.271Z" transform="translate(-172.155 -395.993)" fill="#ff6d83" opacity="0.3" style="mix-blend-mode: multiply;isolation: isolate"/>
              <path id="Path_34428" data-name="Path 34428" d="M165.311,380.572a2.661,2.661,0,0,0-2.162,2.685c-.056,2.361,4.16,1.448,4.16,1.448s-.143,2.9,2.673,2.822,2.787-2.377,2.787-2.377,2.094,2.4,4.382.631-.111-3.991-.111-3.991,2.334-.166,2.3-2.063-1.951-2.407-4.723-1.675S165.311,380.572,165.311,380.572Z" transform="translate(-161.104 -377.732)" fill="#fff"/>
            </g>
            <g id="Group_39498" data-name="Group 39498">
              <g id="Group_39489" data-name="Group 39489" transform="translate(17.678 10.471)">
                <path id="Path_34429" data-name="Path 34429" d="M165.91,372.114a40.52,40.52,0,0,0,1.418,6.427c.665,1.4,3.745,3.247,7.26,1.7s3.148-3.751,2.187-5.676Z" transform="translate(-162.069 -343.835)" fill="#dca183"/>
                <g id="Group_39484" data-name="Group 39484">
                  <path id="Path_34430" data-name="Path 34430" d="M157.182,320.493c1.073,3.779,2.559,10.549,3.385,12.283s9.889,4.445,16.256,1.149,10.11-9.727,6.794-14.025-5.119-13.331-5.119-13.331-8.914-4.66-16.444,0S157.182,320.493,157.182,320.493Z" transform="translate(-156.727 -304.497)" fill="#dca183"/>
                  <path id="Path_34431" data-name="Path 34431" d="M179.771,311.482c-.837-2.73-1.273-4.914-1.273-4.914s-8.914-4.66-16.444,0-4.871,13.925-4.871,13.925c.074.262.151.54.229.829a9.4,9.4,0,0,0,.918.937,7.556,7.556,0,0,0,4.22-5.254S175.325,315.135,179.771,311.482Z" transform="translate(-156.727 -304.497)" fill="#dca183" opacity="0.2" style="mix-blend-mode: multiply;isolation: isolate"/>
                  <path id="Path_34432" data-name="Path 34432" d="M180.376,376.174a17.11,17.11,0,0,0,10.206-1.312" transform="translate(-170.485 -345.434)" fill="none" stroke="#7a312a" stroke-linecap="round" stroke-linejoin="round" stroke-width="0.774"/>
                </g>
                <g id="Group_39488" data-name="Group 39488" transform="translate(8.925 9.046)">
                  <path id="Path_34433" data-name="Path 34433" d="M183.067,339.023s-.6-1.965.759-2.723,2.209,2.026,2.209,2.026" transform="translate(-180.899 -331.969)" fill="none" stroke="#7a312a" stroke-linecap="round" stroke-linejoin="round" stroke-width="1.515"/>
                  <path id="Path_34434" data-name="Path 34434" d="M196.868,336.482s-.123,2.383,1.013,2.114c1.186-.281,2.215.2,1.93,1.433a1.593,1.593,0,0,1-2.627.665" transform="translate(-189.003 -332.151)" fill="none" stroke="#7a312a" stroke-linecap="round" stroke-linejoin="round" stroke-width="0.774"/>
                  <path id="Path_34435" data-name="Path 34435" d="M179.921,334.015a2.116,2.116,0,0,1,2.057-1.994" transform="translate(-179.146 -329.556)" fill="none" stroke="#7a312a" stroke-linecap="round" stroke-linejoin="round" stroke-width="0.774"/>
                  <g id="Group_39485" data-name="Group 39485" transform="translate(0 8.372)" opacity="0.5" style="mix-blend-mode: multiply;isolation: isolate">
                    <path id="Path_34436" data-name="Path 34436" d="M179.743,347.144c-.374,0-.345.58.028.58S180.117,347.144,179.743,347.144Z" transform="translate(-178.887 -346.726)" fill="#dca183"/>
                    <path id="Path_34437" data-name="Path 34437" d="M183.08,346.144c-.368,0-.344.57.023.57S183.447,346.144,183.08,346.144Z" transform="translate(-180.83 -346.144)" fill="#dca183"/>
                    <path id="Path_34438" data-name="Path 34438" d="M181.686,348.93c-.391,0-.348.606.041.606S182.076,348.93,181.686,348.93Z" transform="translate(-180.014 -347.765)" fill="#dca183"/>
                    <path id="Path_34439" data-name="Path 34439" d="M178.344,349.6c-.4,0-.349.618.048.618S178.741,349.6,178.344,349.6Z" transform="translate(-178.068 -348.152)" fill="#dca183"/>
                    <path id="Path_34440" data-name="Path 34440" d="M180.814,351.1c-.366,0-.343.567.022.567S181.18,351.1,180.814,351.1Z" transform="translate(-179.513 -349.024)" fill="#dca183"/>
                    <path id="Path_34441" data-name="Path 34441" d="M184.017,350.6a.271.271,0,0,0,.01.541A.271.271,0,0,0,184.017,350.6Z" transform="translate(-181.38 -348.734)" fill="#dca183"/>
                    <path id="Path_34442" data-name="Path 34442" d="M185.825,347.664c-.3,0-.317.462-.019.462S186.123,347.664,185.825,347.664Z" transform="translate(-182.446 -347.028)" fill="#dca183"/>
                  </g>
                  <path id="Path_34443" data-name="Path 34443" d="M205.849,332.7s-.389-2.018-1.947-2.05-1,2.825-1,2.825" transform="translate(-192.458 -328.758)" fill="none" stroke="#7a312a" stroke-linecap="round" stroke-linejoin="round" stroke-width="1.515"/>
                  <path id="Path_34444" data-name="Path 34444" d="M205.886,326.836a2.117,2.117,0,0,0-2.856-.226" transform="translate(-192.591 -326.126)" fill="none" stroke="#7a312a" stroke-linecap="round" stroke-linejoin="round" stroke-width="0.774"/>
                  <g id="Group_39486" data-name="Group 39486" transform="translate(13.119 4.826)" opacity="0.5" style="mix-blend-mode: multiply;isolation: isolate">
                    <path id="Path_34445" data-name="Path 34445" d="M214.583,337.7c.331-.175.577.351.247.526S214.254,337.875,214.583,337.7Z" transform="translate(-212.34 -337.665)" fill="#dca183"/>
                    <path id="Path_34446" data-name="Path 34446" d="M211.175,338.379c.325-.172.571.343.247.515S210.851,338.551,211.175,338.379Z" transform="translate(-210.359 -338.06)" fill="#dca183"/>
                    <path id="Path_34447" data-name="Path 34447" d="M213.682,340.19c.346-.183.592.372.248.555S213.338,340.372,213.682,340.19Z" transform="translate(-211.81 -339.113)" fill="#dca183"/>
                    <path id="Path_34448" data-name="Path 34448" d="M216.937,339.214c.353-.187.6.383.247.569S216.585,339.4,216.937,339.214Z" transform="translate(-213.701 -338.544)" fill="#dca183"/>
                    <path id="Path_34449" data-name="Path 34449" d="M215.5,341.692c.324-.172.569.34.247.511S215.176,341.862,215.5,341.692Z" transform="translate(-212.875 -339.987)" fill="#dca183"/>
                    <path id="Path_34450" data-name="Path 34450" d="M212.457,342.749a.271.271,0,0,1,.245.483A.271.271,0,0,1,212.457,342.749Z" transform="translate(-211.111 -340.603)" fill="#dca183"/>
                    <path id="Path_34451" data-name="Path 34451" d="M209.552,340.995c.262-.139.5.26.233.4S209.289,341.134,209.552,340.995Z" transform="translate(-209.437 -339.585)" fill="#dca183"/>
                  </g>
                  <g id="Group_39487" data-name="Group 39487" transform="translate(5.781 10.234)">
                    <path id="Path_34452" data-name="Path 34452" d="M195.177,352.064c-1.19.363-3.007-1.04-3.26.448a3.364,3.364,0,0,0,4.779,3.45c3.482-1.424,1.931-5.366.918-5.366C196.083,350.6,196.823,351.563,195.177,352.064Z" transform="translate(-191.89 -350.596)" fill="#5b2526"/>
                    <path id="Path_34453" data-name="Path 34453" d="M198.324,351.133c-.22-.332-.478-.537-.708-.537-1.531,0-.791.967-2.437,1.468-1.19.363-3.007-1.04-3.26.448a2.272,2.272,0,0,0-.017.553,3.539,3.539,0,0,0,3.023.523l.446-.918.694.732S198.242,352.552,198.324,351.133Z" transform="translate(-191.891 -350.596)" fill="#fff"/>
                    <path id="Path_34454" data-name="Path 34454" d="M193.455,360.072a3.154,3.154,0,0,0,4.151,1.1,4.353,4.353,0,0,0,.643-.326C197.061,358.834,194.484,359.644,193.455,360.072Z" transform="translate(-192.801 -355.802)" fill="#ff6d83"/>
                  </g>
                </g>
              </g>
              <g id="Group_39497" data-name="Group 39497">
                <g id="Group_39491" data-name="Group 39491">
                  <path id="Path_34455" data-name="Path 34455" d="M128.545,284.435s-.154-5.259-6.8-4.963-8.782,8.6-6.273,12.53.251,5.772-1.018,4.812c0,0,1.375,5.609,8.614,1.55S128.545,284.435,128.545,284.435Z" transform="translate(-114.457 -279.459)" fill="#fccb68"/>
                  <g id="Group_39490" data-name="Group 39490" transform="translate(1.455 1.497)" opacity="0.6" style="mix-blend-mode: multiply;isolation: isolate">
                    <path id="Path_34456" data-name="Path 34456" d="M123.835,283.039c-2.907.2-4.854,3.207-5.2,5.891-.421,3.238,4.8,10.2-.691,11.067-.007,0-.008.013,0,.013,2.612.177,3.48-2.1,2.912-4.37s-1.988-4.151-1.72-6.613a6.657,6.657,0,0,1,4.758-5.719A.139.139,0,0,0,123.835,283.039Z" transform="translate(-117.936 -283.039)" fill="#fccb68"/>
                    <path id="Path_34457" data-name="Path 34457" d="M128.709,288.554c-1.9,1.571-2.239,3.6-1.874,5.945a32.873,32.873,0,0,1,.74,4.694c.025,2.874-1.486,3.822-3.934,4.713-.014.005-.007.027.008.025,2.657-.319,4.375-1.619,4.433-4.458.077-3.784-2.4-7.485.928-10.588A.224.224,0,0,0,128.709,288.554Z" transform="translate(-121.25 -286.216)" fill="#fccb68"/>
                  </g>
                </g>
                <path id="Path_34458" data-name="Path 34458" d="M145.08,288.915c.421-2.487-2.262-2.487-5.687,1.013-1.7,1.738-2.869,5.165-1.028,5.683S144.66,291.4,145.08,288.915Z" transform="translate(-127.823 -283.939)" fill="#ff6d83"/>
                <g id="Group_39494" data-name="Group 39494" transform="translate(6.037 1.998)">
                  <path id="Path_34459" data-name="Path 34459" d="M141.619,311.057s5.069-5.1,3.265-11.394A12.775,12.775,0,0,1,146.4,304s3.133-.154,4.858-1.533a14.066,14.066,0,0,0-.491-4.069,7.852,7.852,0,0,1,1.591,3.925s3.853-.57,5.594-2.216a10.242,10.242,0,0,0-.981-4.241,10.434,10.434,0,0,1,2.121,3.83s4.064-.127,5.767-3.007c0,0-2.276-8.849-10.267-11.385s-15.592-.517-18.913,5.706c0,0-6.051,2.033-5.756,11.1s4.133,23.513-1.033,23.234c0,0,11.641,10.859,16.489.833a10.814,10.814,0,0,0,.3-5.273,10.209,10.209,0,0,0-2.722-4.444Z" transform="translate(-128.892 -284.236)" fill="#fccb68"/>
                  <g id="Group_39492" data-name="Group 39492" transform="translate(12.09 2.978)" opacity="0.6" style="mix-blend-mode: multiply;isolation: isolate">
                    <path id="Path_34460" data-name="Path 34460" d="M159.931,313.193a.125.125,0,0,0-.25.015c.157,3.137.85,8.385-1.876,10.757a.013.013,0,0,0,.017.021C160.8,321.8,160.344,316.38,159.931,313.193Z" transform="translate(-157.8 -303.994)" fill="#fccb68"/>
                    <path id="Path_34461" data-name="Path 34461" d="M173,309.162a9.5,9.5,0,0,0-1.288-4.447c-.059-.088-.221-.031-.18.079a18.369,18.369,0,0,1,1.088,4.429,19.708,19.708,0,0,1,.323,4.989.013.013,0,0,0,.026.006C173.61,312.652,173.181,310.8,173,309.162Z" transform="translate(-165.787 -299.103)" fill="#fccb68"/>
                    <path id="Path_34462" data-name="Path 34462" d="M185.23,305.938a14.884,14.884,0,0,0-2.773-5.538.139.139,0,0,0-.228.158c1.339,2.132,4.093,6.5,3.047,9.139-.008.021.023.038.035.018C186.027,308.483,185.623,307.23,185.23,305.938Z" transform="translate(-171.998 -296.587)" fill="#fccb68"/>
                    <path id="Path_34463" data-name="Path 34463" d="M194.97,297.315c-.128-.182-.39.026-.272.209.609.945,1.344,1.788,2,2.7a10.229,10.229,0,0,1,1.874,5.465c0,.03.051.028.052,0C198.738,302.208,196.865,300.014,194.97,297.315Z" transform="translate(-179.25 -294.782)" fill="#fccb68"/>
                    <path id="Path_34464" data-name="Path 34464" d="M198.546,296.31a15.343,15.343,0,0,0-5.011-4.938c-.122-.072-.249.121-.137.207,2.956,2.285,6.487,5.787,6.939,9.721a.007.007,0,0,0,.013,0C200.523,299.548,199.458,297.738,198.546,296.31Z" transform="translate(-178.485 -291.356)" fill="#fccb68"/>
                  </g>
                  <g id="Group_39493" data-name="Group 39493" transform="translate(2.577 18.077)" opacity="0.6" style="mix-blend-mode: multiply;isolation: isolate">
                    <path id="Path_34465" data-name="Path 34465" d="M137.72,335.892a22.2,22.2,0,0,1-.579-8.251.165.165,0,0,0-.327-.046c-.763,3.342-.01,6.636.776,9.9.852,3.54,1.811,9.345-2.534,11.075-.007,0,0,.014,0,.013,2.846-.619,3.826-3.877,3.85-6.486A27.279,27.279,0,0,0,137.72,335.892Z" transform="translate(-135.053 -327.46)" fill="#fccb68"/>
                    <path id="Path_34466" data-name="Path 34466" d="M150.9,357.419c-.073-.118-.279-.023-.223.109,1.043,2.5,1.992,7.136-.355,9.3-.037.034.007.1.052.075C153.094,365.14,152.343,359.729,150.9,357.419Z" transform="translate(-143.931 -344.859)" fill="#fccb68"/>
                  </g>
                </g>
                <g id="Group_39496" data-name="Group 39496" transform="translate(13.29 26.592)">
                  <path id="Path_34467" data-name="Path 34467" d="M153.421,349.276s-1.59,3.549-4.7,2.314-3.107-6.246-1.084-7.9,4.047.221,4.77,1.49Z" transform="translate(-146.236 -343.044)" fill="#dca183"/>
                  <path id="Path_34468" data-name="Path 34468" d="M160.01,359.537a1.258,1.258,0,1,1-1.258-1.258A1.258,1.258,0,0,1,160.01,359.537Z" transform="translate(-152.785 -351.908)" fill="#fff"/>
                  <g id="Group_39495" data-name="Group 39495" transform="translate(1.404 1.825)">
                    <path id="Path_34469" data-name="Path 34469" d="M149.592,348.628s1.445-2.746,3.83,0" transform="translate(-149.592 -347.408)" fill="none" stroke="#7a312a" stroke-linecap="round" stroke-linejoin="round" stroke-width="1.01"/>
                    <path id="Path_34470" data-name="Path 34470" d="M152.3,349.127a1.347,1.347,0,0,1,1.641-1.064" transform="translate(-151.169 -347.764)" fill="none" stroke="#7a312a" stroke-linecap="round" stroke-linejoin="round" stroke-width="1.01"/>
                  </g>
                </g>
              </g>
            </g>
            <g id="Group_39501" data-name="Group 39501" transform="translate(19.194 43.685)">
              <g id="Group_39500" data-name="Group 39500" transform="translate(6.36)">
                <path id="Path_34471" data-name="Path 34471" d="M199.583,390.53s-1.726-2.821-.9-3.414,1.857.769,1.857.769.022-2.833.729-3.514a.806.806,0,0,1,1.457.447s.339-.943,1.124-.9.758,1.429.758,1.429a.649.649,0,0,1,1.086.034,1.4,1.4,0,0,1,.3,1.289s.927-.248.824.783a7.735,7.735,0,0,1-3.438,5.317s-2.434,11.92-10.35,14.842c-7.017,2.59-15.363.411-17.477-3.946l4.786-6.683s6.124,3.778,10.674,2.668S199.583,390.53,199.583,390.53Z" transform="translate(-175.559 -383.916)" fill="#dca183"/>
                <path id="Path_34472" data-name="Path 34472" d="M180.345,396.981s6.124,3.778,10.674,2.668,8.565-9.118,8.565-9.118-1.726-2.821-.9-3.414,1.857.769,1.857.769.022-2.833.729-3.514a.806.806,0,0,1,1.457.447s.339-.943,1.124-.9.758,1.429.758,1.429a.649.649,0,0,1,1.086.034,1.4,1.4,0,0,1,.3,1.289s.927-.248.824.783a7.735,7.735,0,0,1-3.438,5.317s-2.434,11.92-10.35,14.842c-7.017,2.59-15.363.411-17.477-3.946" transform="translate(-175.559 -383.916)" fill="none" stroke="#7a312a" stroke-linecap="round" stroke-linejoin="round" stroke-width="0.774"/>
                <g id="Group_39499" data-name="Group 39499" transform="translate(26.971 0.768)">
                  <path id="Path_34473" data-name="Path 34473" d="M240.05,388.306a17.37,17.37,0,0,0,.259-2.554" transform="translate(-240.05 -385.752)" fill="none" stroke="#7a312a" stroke-linecap="round" stroke-linejoin="round" stroke-width="0.774"/>
                  <path id="Path_34474" data-name="Path 34474" d="M243.5,389.249a7.985,7.985,0,0,0,.634-2.219" transform="translate(-242.06 -386.496)" fill="none" stroke="#7a312a" stroke-linecap="round" stroke-linejoin="round" stroke-width="0.774"/>
                  <path id="Path_34475" data-name="Path 34475" d="M247.221,391.732a8.7,8.7,0,0,0,.507-1.616" transform="translate(-244.222 -388.291)" fill="none" stroke="#7a312a" stroke-linecap="round" stroke-linejoin="round" stroke-width="0.774"/>
                </g>
              </g>
              <path id="Path_34476" data-name="Path 34476" d="M174.2,406.847a53.375,53.375,0,0,1-6.438-4.354c-2.559-2.14-6.575-1.919-7.261,1.476s.869,8.853,7.511,13.207C168.011,417.176,174.71,416.958,174.2,406.847Z" transform="translate(-160.351 -393.917)" fill="#fff"/>
            </g>
          </g>
          <g id="Group_39519" data-name="Group 39519" transform="translate(66.739 54.076)">
            <g id="Group_39503" data-name="Group 39503" transform="translate(13.436 43.677)">
              <path id="Path_34477" data-name="Path 34477" d="M295.274,352.913c-8.213-3.573-12.541-1.115-12.541-1.115a30.5,30.5,0,0,0-11.179,14.349c-3.048,8.575-5.709,24.775-6.131,32.058,14.215-3.28,25.329,1.011,35.155-6.752C307.063,377.486,303.029,356.286,295.274,352.913Z" transform="translate(-265.423 -350.974)" fill="#66b4b0"/>
              <path id="Path_34478" data-name="Path 34478" d="M268.7,407.349c3.645,2.1,10.718,5.16,17.509,2.244,9.713-4.172,5.237-23.326,5.237-23.326s-12.769,8.454-15.669,8.86a4.5,4.5,0,0,1-4.352-1.451C270.362,397.989,269.419,402.856,268.7,407.349Z" transform="translate(-267.33 -371.507)" fill="#66b4b0" opacity="0.3" style="mix-blend-mode: multiply;isolation: isolate"/>
              <path id="Path_34479" data-name="Path 34479" d="M303.081,355.309s-1.726,2,2.64,4.7,12.367.867,11.886-4.259" transform="translate(-287.136 -353.496)" fill="none" stroke="#3c7c6c" stroke-width="1.01"/>
            </g>
            <g id="Group_39508" data-name="Group 39508" transform="translate(0 56.428)">
              <g id="Group_39505" data-name="Group 39505">
                <path id="Path_34480" data-name="Path 34480" d="M255.4,404.548c-9.645-1.4-16.415-12.936-16.415-12.936-2.713-.534-4.977-3.27-5.582-4.725-.459-1.1.649-1.142.649-1.142a1.62,1.62,0,0,1-.1-1.526.749.749,0,0,1,1.189-.4s-.494-1.524.359-1.833,1.544.62,1.544.62c-.186-.671.452-1.5,1.461-.982s1.983,3.639,1.983,3.639.679-1.849,1.8-1.472.153,4.074.153,4.074,7.136,6.722,12.523,7.209c4.129.373,13.427-3.934,17.424-8.816s6.812-3.718,7.593,1.7S269.127,406.538,255.4,404.548Z" transform="translate(-233.297 -381.462)" fill="#ffc59c"/>
                <g id="Group_39504" data-name="Group 39504" transform="translate(0.665 1.015)">
                  <path id="Path_34481" data-name="Path 34481" d="M243.15,386.624a20.1,20.1,0,0,1-1.143-2.736" transform="translate(-239.03 -383.888)" fill="none" stroke="#bc6044" stroke-linecap="round" stroke-linejoin="round" stroke-width="1.01"/>
                  <path id="Path_34482" data-name="Path 34482" d="M239.072,389a9.218,9.218,0,0,1-1.444-2.24" transform="translate(-236.482 -385.558)" fill="none" stroke="#bc6044" stroke-linecap="round" stroke-linejoin="round" stroke-width="1.01"/>
                  <path id="Path_34483" data-name="Path 34483" d="M235.99,392.929a10.032,10.032,0,0,1-1.1-1.616" transform="translate(-234.888 -388.208)" fill="none" stroke="#bc6044" stroke-linecap="round" stroke-linejoin="round" stroke-width="1.01"/>
                </g>
              </g>
              <g id="Group_39506" data-name="Group 39506" transform="translate(6.096 0.493)">
                <path id="Path_34484" data-name="Path 34484" d="M252.475,389.111s7.056,4.4,10.637,5.2c2.978.662,9.049-4.928,12.1-7.364,2.873-2.29,6.124-5.048,10.363-4.12s5.673,3.752,3.529,9.38S274.16,409.594,262,405.268s-14.129-10.884-14.129-10.884Z" transform="translate(-247.872 -382.64)" fill="#66b4b0"/>
              </g>
              <g id="Group_39507" data-name="Group 39507" transform="translate(6.096 4.798)">
                <path id="Path_34485" data-name="Path 34485" d="M289.108,398.193c-2.144,5.628-14.948,17.389-27.106,13.064s-14.129-10.884-14.129-10.884l4.6-5.274s7.2,4.494,10.185,5.13c4.257.906,9.463-5.313,12.555-7.3" transform="translate(-247.872 -392.933)" fill="none" stroke="#3c7c6c" stroke-width="1.01"/>
              </g>
              <path id="Path_34486" data-name="Path 34486" d="M249.937,393.649c-1.329,1.305-6.54,5.06-6.006,6.717s1.9,2.635,2.247,2.127,5.254-6.658,5.023-7.47A2.866,2.866,0,0,0,249.937,393.649Z" transform="translate(-239.461 -388.552)" fill="#3c7c6c"/>
            </g>
            <g id="Group_39518" data-name="Group 39518" transform="translate(16.119)">
              <g id="Group_39515" data-name="Group 39515">
                <path id="Path_34487" data-name="Path 34487" d="M319.593,344.228s-.686,4.936-1.495,6.536-4.61,3.82-8.623,1.927-3.666-3.762-2.5-5.957Z" transform="translate(-291.827 -303.372)" fill="#ffc59c"/>
                <g id="Group_39509" data-name="Group 39509" transform="translate(0 7.928)">
                  <path id="Path_34488" data-name="Path 34488" d="M303.878,284.341c-1.351,4.331-3.268,12.1-4.273,14.082s-11.549,4.84-18.8.846-11.385-11.531-7.429-16.395,6.3-15.242,6.3-15.242,10.43-5.117,18.987.486S303.878,284.341,303.878,284.341Z" transform="translate(-271.839 -265.495)" fill="#ffc59c"/>
                  <path id="Path_34489" data-name="Path 34489" d="M308,268.118c-8.557-5.6-18.987-.486-18.987-.486s-.394,1.74-1.13,4.128c1.178,1.223,3.738,2.193,9.143-.862,0,0-.347,4.157,2.529,4.254a12.453,12.453,0,0,0,5.587-1.378s-.867,3.134,2.6,1.383c0,0-1.256,10.153,4.635,12.017.293-1.028.576-2,.837-2.833C313.209,284.341,316.553,273.722,308,268.118Z" transform="translate(-281.17 -265.495)" fill="#ffc59c" opacity="0.5" style="mix-blend-mode: multiply;isolation: isolate"/>
                  <path id="Path_34490" data-name="Path 34490" d="M304.641,348.112a19.571,19.571,0,0,1-11.371-1.861" transform="translate(-284.307 -312.477)" fill="none" stroke="#bc6044" stroke-linecap="round" stroke-linejoin="round" stroke-width="1.01"/>
                </g>
                <g id="Group_39511" data-name="Group 39511" transform="translate(5.583)">
                  <path id="Path_34491" data-name="Path 34491" d="M309.959,275.768a13,13,0,0,1-2.444-13.577s-3.787,2.982-3.582-.962a6.154,6.154,0,0,1-4.955,1.865c-3.061-.3-2.088-5.083-2.088-5.083s-7.293,4-10.724.448,2.669-10.084,10.531-11.656,15.014,4.153,16.49,8.467c0,0-.284-2.237.893-2.327s1.012,2.645,1.012,2.645,4.035-2.379,4.391-.95-3.222,2.81-3.222,2.81,4.8,1.473,5.646,14.07-9.006,19.4-14.357,15.487Z" transform="translate(-285.189 -246.537)" fill="#a44f40"/>
                  <g id="Group_39510" data-name="Group 39510" transform="translate(4.757 2.067)" opacity="0.5" style="mix-blend-mode: multiply;isolation: isolate">
                    <path id="Path_34492" data-name="Path 34492" d="M306.916,263.583c-1.935-.187-1.782-2.895-1.116-4.05.093-.162-.143-.351-.284-.233a11.5,11.5,0,0,1-4.043,2.3,4.834,4.834,0,0,1-2.86.189c-2.67-.826-1.068-3.651.535-4.671.056-.035,0-.133-.062-.1-1.152.651-2.947,2.294-2.433,3.824.521,1.549,2.708,1.552,4.006,1.324a10.313,10.313,0,0,0,3.62-1.476c.243-.153.506-.3.672-.427-.065.448-.067,1.237-.075,1.132.078,1.069.765,2.871,2.059,2.4A.106.106,0,0,0,306.916,263.583Z" transform="translate(-296.563 -254.697)" fill="#a44f40"/>
                    <path id="Path_34493" data-name="Path 34493" d="M330.26,255.416c-.1.554-.984.787-1.421.616-.747-.294-.63-.956-.442-1.572.051-.168-.167-.258-.289-.184-.721.44-2.028.481-2.34-.494-.218-.682.042-2,.846-2.209.056-.014.047-.1-.013-.092-.964.17-1.352,1.638-1.082,2.461.323.987,1.53,1.113,2.414.809-.171.751-.074,1.486.847,1.732a1.516,1.516,0,0,0,1.9-1.011C330.722,255.2,330.307,255.149,330.26,255.416Z" transform="translate(-313.36 -251.48)" fill="#a44f40"/>
                    <path id="Path_34494" data-name="Path 34494" d="M347.8,276.856c-1.539,1.2-3.6.021-4.723-1.258a6.724,6.724,0,0,1-1.322-5.375c.023-.027.048-.051.069-.079.151-.2-.149-.506-.333-.314-1.106,1.152-3.241.751-2.984-1.154.11-.815.7-2.581,1.514-2.953.073-.033.037-.157-.044-.137-.668.164-1.037.928-1.326,1.488a3.711,3.711,0,0,0-.548,2.467,2.091,2.091,0,0,0,3.023,1.184,6.437,6.437,0,0,0,.082,1.8,6.342,6.342,0,0,0,2.082,4.11c.737.627,4.61,2.638,4.721.336A.139.139,0,0,0,347.8,276.856Z" transform="translate(-320.696 -259.685)" fill="#a44f40"/>
                    <path id="Path_34495" data-name="Path 34495" d="M347.071,298.777a3.376,3.376,0,0,1-2.984-.948c-.873-.939-.779-2.35-.875-3.538-.008-.1-.141-.071-.157.008-.3,1.466-.214,3.183,1,4.2.689.577,2.39,1.491,3.136.537A.161.161,0,0,0,347.071,298.777Z" transform="translate(-323.527 -276.35)" fill="#a44f40"/>
                  </g>
                </g>
                <g id="Group_39514" data-name="Group 39514" transform="translate(1.306 14.271)">
                  <g id="Group_39512" data-name="Group 39512">
                    <path id="Path_34496" data-name="Path 34496" d="M286.179,288.068c-.708,3.385-3.76,5.605-6.817,4.96s-4.962-3.912-4.254-7.3,3.76-5.605,6.817-4.96S286.887,284.683,286.179,288.068Z" transform="translate(-274.961 -280.659)" fill="none" stroke="#fff" stroke-width="1.013"/>
                    <path id="Path_34497" data-name="Path 34497" d="M319.317,297.6c-.708,3.385-3.76,5.605-6.817,4.96s-4.961-3.912-4.254-7.3,3.76-5.605,6.817-4.96S320.025,294.216,319.317,297.6Z" transform="translate(-294.239 -286.205)" fill="none" stroke="#fff" stroke-width="1.013"/>
                    <path id="Path_34498" data-name="Path 34498" d="M300.892,300.955s1.838-1.043,3.043,1.232" transform="translate(-290.047 -292.328)" fill="none" stroke="#fff" stroke-width="1.013"/>
                    <line id="Line_1904" data-name="Line 1904" x2="7.044" y2="1.452" transform="translate(24.697 12.629)" fill="none" stroke="#fff" stroke-width="1.013"/>
                  </g>
                  <g id="Group_39513" data-name="Group 39513" transform="translate(4.857 3.315)">
                    <path id="Path_34499" data-name="Path 34499" d="M286.575,296.58a2.671,2.671,0,0,1,2.7-1.458c1.871.279.668,2.986.668,2.986" transform="translate(-286.575 -292.37)" fill="none" stroke="#bc6044" stroke-linecap="round" stroke-linejoin="round" stroke-width="1.515"/>
                    <path id="Path_34500" data-name="Path 34500" d="M313.15,307.041a2.366,2.366,0,0,0-.733-2.793c-1.474-1.184-2.677,1.353-2.677,1.353" transform="translate(-300.052 -297.514)" fill="none" stroke="#bc6044" stroke-linecap="round" stroke-linejoin="round" stroke-width="1.515"/>
                    <path id="Path_34501" data-name="Path 34501" d="M289.684,319.026a3.636,3.636,0,0,0,2.2,2.834c2.171,1.177,4.713-.609,4.713-.609" transform="translate(-288.384 -306.295)" fill="none" stroke="#bc6044" stroke-linecap="round" stroke-linejoin="round" stroke-width="1.01"/>
                    <path id="Path_34502" data-name="Path 34502" d="M298.226,302.146s.071,2.754-1.232,2.41c-1.361-.359-2.564.164-2.271,1.6a1.839,1.839,0,0,0,3.013.845" transform="translate(-291.289 -296.474)" fill="#ffc59c" stroke="#bc6044" stroke-linecap="round" stroke-linejoin="round" stroke-width="1.01"/>
                    <path id="Path_34503" data-name="Path 34503" d="M290.465,289.4a9.227,9.227,0,0,1,2.069.714c.822.423,1.631.128.4-.817s-3.291-.831-3.481-.363S289.989,289.279,290.465,289.4Z" transform="translate(-288.233 -288.585)" fill="#a44f40"/>
                    <path id="Path_34504" data-name="Path 34504" d="M317.434,300.537a9.188,9.188,0,0,0-1.99-.91c-.887-.26-1.268-1.033.273-.868s2.955,1.67,2.769,2.139S317.864,300.777,317.434,300.537Z" transform="translate(-302.92 -294.49)" fill="#a44f40"/>
                  </g>
                </g>
              </g>
              <g id="Group_39517" data-name="Group 39517" transform="translate(28.893 27.605)">
                <path id="Path_34505" data-name="Path 34505" d="M340.924,319.071s1.6,3.825,4.942,2.593,3.482-6.57,1.371-8.384-4.318.125-5.122,1.457Z" transform="translate(-340.924 -312.544)" fill="#ffc59c"/>
                <g id="Group_39516" data-name="Group 39516" transform="translate(2.166 1.942)">
                  <path id="Path_34506" data-name="Path 34506" d="M350.184,318.536s-1.465-2.965-4.081-.1" transform="translate(-346.103 -317.186)" fill="none" stroke="#bc6044" stroke-linecap="round" stroke-linejoin="round" stroke-width="1.01"/>
                  <path id="Path_34507" data-name="Path 34507" d="M350.572,319.013a1.435,1.435,0,0,0-1.719-1.179" transform="translate(-347.703 -317.541)" fill="none" stroke="#bc6044" stroke-linecap="round" stroke-linejoin="round" stroke-width="1.01"/>
                </g>
              </g>
            </g>
          </g>
          <g id="Group_39520" data-name="Group 39520" transform="translate(65.851 92.756)">
            <path id="Path_34508" data-name="Path 34508" d="M235.048,355.946s-3.194-1.454-3.789-4.387,2.128-2.378,3.064-.485c0,0,.085-3.407,2.468-3.012S238.242,352.712,235.048,355.946Z" transform="translate(-231.174 -344.264)" fill="#ff6d83"/>
            <path id="Path_34509" data-name="Path 34509" d="M258.5,345.836a4.615,4.615,0,0,1-2.3-4.164c-.085-3.135,2.337-2.427,2.658-.738a2.768,2.768,0,0,1,2.96-1.887C264.118,339.3,261.82,343.091,258.5,345.836Z" transform="translate(-245.734 -339.026)" fill="#ff6d83"/>
            <path id="Path_34510" data-name="Path 34510" d="M255.81,370.261s-2.873-2.388-2.192-4.856,2.3-.239,2.468.9c0,0,.586-1.838,1.825-.9S257.917,368.733,255.81,370.261Z" transform="translate(-244.171 -353.723)" fill="#ff6d83"/>
          </g>
        </g>
      </g>
      <g id="Group_39528" data-name="Group 39528" transform="translate(18.122 102.231)">
        <g id="Group_39523" data-name="Group 39523" transform="translate(0 2.402)">
          <path id="Path_34512" data-name="Path 34512" d="M193,437.383c1.169,1.044,6.5,2.534,6.129,3.427s-3.032,1.2-4.7.471c0,0,3.942,1.016,3.667,2.043s-2.5.808-4.418.159c0,0,2.8,1.138,2.521,2.165s-3.331.63-4.721,0c0,0,2.7,1.321,2.168,2.283s-5.046-1.127-7.722-2.662-7.518-6.5-6.212-8.787,7.727-4.283,12.217-3.362,6.04,1.661,4.94,2.826S191.794,436.31,193,437.383Z" transform="translate(-153.374 -405.513)" fill="#ffaf8e"/>
          <path id="Path_34513" data-name="Path 34513" d="M119.612,367.424c-2.3,4.922-4.944,11.617,1.368,20.764,7.544,10.932,23.943,17.789,23.943,17.789s9.075-3.928,9.7-12.034c0,0-14.417-7.406-20.979-12-3.6-2.521-8.852-8.919-9.163-12.025Z" transform="translate(-117.049 -367.424)" fill="#5a3082"/>
        </g>
        <g id="Group_39527" data-name="Group 39527" transform="translate(2.194)">
          <g id="Group_39524" data-name="Group 39524" transform="translate(1.719 13.482)" opacity="0.4" style="mix-blend-mode: overlay;isolation: isolate">
            <path id="Path_34514" data-name="Path 34514" d="M128.276,396.432a2.085,2.085,0,0,1-1.069-1.536c-.143-1.089,1.033-1.236,1.582-.6a2.04,2.04,0,0,1,.361,1.573,1.907,1.907,0,0,1,1.342-1.489c1.246-.451,1.683,1.354.111,2.145a1.953,1.953,0,0,1,1.739.77c.584.894-.958,1.856-2.062.472,0,0,.161,1.922-1.214,1.891-1.443-.033-.538-2.08-.538-2.08s-1.114,1.327-1.893.4C125.917,397.123,127,396.2,128.276,396.432Z" transform="translate(-126.405 -393.918)" fill="#fff"/>
            <path id="Path_34515" data-name="Path 34515" d="M180.952,437.627a2.083,2.083,0,0,1,.825-1.68c.884-.653,1.582.3,1.291,1.093a2.041,2.041,0,0,1-1.2,1.079,1.907,1.907,0,0,1,1.953.451c1,.87-.367,2.129-1.822,1.138a1.952,1.952,0,0,1,.17,1.894c-.5.945-2.088.063-1.413-1.574,0,0-1.6,1.074-2.242-.144-.671-1.278,1.558-1.48,1.558-1.48s-1.7-.33-1.268-1.462C179.2,435.9,180.536,436.393,180.952,437.627Z" transform="translate(-156.647 -418.244)" fill="#fff"/>
          </g>
          <g id="Group_39525" data-name="Group 39525" transform="translate(0.186 6.389)" opacity="0.2" style="mix-blend-mode: multiply;isolation: isolate">
            <path id="Path_34516" data-name="Path 34516" d="M146.016,407.828s3.368-.533,3.3,3.644A3.007,3.007,0,0,1,146.016,407.828Z" transform="translate(-136.264 -394.905)" fill="#5a3082"/>
            <path id="Path_34517" data-name="Path 34517" d="M156.123,436.437s1.527-3.049,4.886-.565A3.007,3.007,0,0,1,156.123,436.437Z" transform="translate(-142.162 -410.666)" fill="#5a3082"/>
            <path id="Path_34518" data-name="Path 34518" d="M122.74,377.462s2.8-1.953,4.565,1.831A3.007,3.007,0,0,1,122.74,377.462Z" transform="translate(-122.74 -376.958)" fill="#5a3082"/>
            <path id="Path_34519" data-name="Path 34519" d="M175.028,422.476s3.161,1.281.951,4.826A3.007,3.007,0,0,1,175.028,422.476Z" transform="translate(-152.661 -403.44)" fill="#5a3082"/>
          </g>
          <g id="Group_39526" data-name="Group 39526" opacity="0.2" style="mix-blend-mode: overlay;isolation: isolate">
            <path id="Path_34520" data-name="Path 34520" d="M123.049,387.437a.732.732,0,1,0,.711.752A.747.747,0,0,0,123.049,387.437Z" transform="translate(-122.296 -376.664)" fill="#fff"/>
            <path id="Path_34521" data-name="Path 34521" d="M141.736,420.114a.732.732,0,1,0,.711.753A.748.748,0,0,0,141.736,420.114Z" transform="translate(-133.168 -395.675)" fill="#fff"/>
            <path id="Path_34522" data-name="Path 34522" d="M160.967,424.742a.732.732,0,1,0,.712.753A.747.747,0,0,0,160.967,424.742Z" transform="translate(-144.356 -398.368)" fill="#fff"/>
            <path id="Path_34523" data-name="Path 34523" d="M127.2,361.681a.732.732,0,1,0,.712.752A.747.747,0,0,0,127.2,361.681Z" transform="translate(-124.711 -361.68)" fill="#fff"/>
          </g>
        </g>
      </g>
      <g id="Group_39534" data-name="Group 39534" transform="translate(80.431 105.881)">
        <g id="Group_39529" data-name="Group 39529" transform="translate(0 2.739)">
          <path id="Path_34524" data-name="Path 34524" d="M272.183,450.482c-1.168,1.043-6.5,2.534-6.129,3.427s3.033,1.2,4.7.471c0,0-3.943,1.016-3.667,2.043s2.5.807,4.418.159c0,0-2.8,1.138-2.521,2.165s3.074.3,4.463-.323c0,0-2.723,1.181-2.194,2.142s5.33-.66,8.005-2.2,7.517-6.5,6.211-8.787-7.727-4.283-12.217-3.362-6.041,1.661-4.94,2.826S273.385,449.409,272.183,450.482Z" transform="translate(-266.035 -417.121)" fill="#ffaf8e"/>
          <path id="Path_34525" data-name="Path 34525" d="M320.265,376.958c1.234,5.081,4.174,13.924-2.183,23.039C312.258,408.349,295.326,417,295.326,417s-9.075-3.927-9.7-12.034c0,0,14.417-7.406,20.98-12,3.6-2.521,8.636-7.318,8.946-10.423Z" transform="translate(-277.431 -376.958)" fill="#5a3082"/>
        </g>
        <g id="Group_39533" data-name="Group 39533" transform="translate(11.279)">
          <g id="Group_39530" data-name="Group 39530" transform="translate(0 19.065)" opacity="0.4" style="mix-blend-mode: overlay;isolation: isolate">
            <path id="Path_34526" data-name="Path 34526" d="M352.286,418.509a2.083,2.083,0,0,0,1.069-1.536c.142-1.089-1.033-1.236-1.582-.6a2.04,2.04,0,0,0-.361,1.573,1.908,1.908,0,0,0-1.342-1.489c-1.245-.451-1.683,1.354-.111,2.145a1.952,1.952,0,0,0-1.739.77c-.584.895.958,1.856,2.062.472,0,0-.161,1.922,1.214,1.891,1.443-.033.537-2.08.537-2.08s1.115,1.326,1.894.4C354.646,419.2,353.567,418.274,352.286,418.509Z" transform="translate(-325.054 -415.995)" fill="#fff"/>
            <path id="Path_34527" data-name="Path 34527" d="M296.216,446.664a2.086,2.086,0,0,0-.825-1.68c-.884-.653-1.582.3-1.291,1.093a2.039,2.039,0,0,0,1.2,1.079,1.908,1.908,0,0,0-1.953.451c-1,.87.368,2.129,1.822,1.138a1.954,1.954,0,0,0-.17,1.895c.5.944,2.088.063,1.414-1.574,0,0,1.6,1.073,2.242-.144.671-1.277-1.558-1.479-1.558-1.479s1.7-.331,1.268-1.462C297.965,444.937,296.632,445.429,296.216,446.664Z" transform="translate(-293.005 -432.734)" fill="#fff"/>
          </g>
          <g id="Group_39531" data-name="Group 39531" transform="translate(7.05 8.33)" opacity="0.2" style="mix-blend-mode: multiply;isolation: isolate">
            <path id="Path_34528" data-name="Path 34528" d="M336.118,428.525s-3.368-.533-3.3,3.644A3.007,3.007,0,0,0,336.118,428.525Z" transform="translate(-323.215 -412.537)" fill="#5a3082"/>
            <path id="Path_34529" data-name="Path 34529" d="M315.109,459.288s-1.527-3.049-4.886-.565A3.007,3.007,0,0,0,315.109,459.288Z" transform="translate(-310.072 -429.551)" fill="#5a3082"/>
            <path id="Path_34530" data-name="Path 34530" d="M363.316,395.209s3.059-1.507.6-4.883A3.007,3.007,0,0,0,363.316,395.209Z" transform="translate(-340.366 -390.326)" fill="#5a3082"/>
            <path id="Path_34531" data-name="Path 34531" d="M311.6,432.766s-3.16,1.281-.95,4.826A3.007,3.007,0,0,0,311.6,432.766Z" transform="translate(-309.863 -415.017)" fill="#5a3082"/>
          </g>
          <g id="Group_39532" data-name="Group 39532" transform="translate(12.092)" opacity="0.2" style="mix-blend-mode: overlay;isolation: isolate">
            <path id="Path_34532" data-name="Path 34532" d="M350.858,406.149a.732.732,0,1,1-.712.752A.747.747,0,0,1,350.858,406.149Z" transform="translate(-338.341 -391.201)" fill="#fff"/>
            <path id="Path_34533" data-name="Path 34533" d="M357.775,370.409a.733.733,0,1,1-.711.753A.748.748,0,0,1,357.775,370.409Z" transform="translate(-342.366 -370.408)" fill="#fff"/>
            <path id="Path_34534" data-name="Path 34534" d="M322.63,438.537a.732.732,0,1,1-.711.752A.747.747,0,0,1,322.63,438.537Z" transform="translate(-321.919 -410.044)" fill="#fff"/>
            <path id="Path_34535" data-name="Path 34535" d="M335.369,447.911a.732.732,0,1,1-.711.752A.747.747,0,0,1,335.369,447.911Z" transform="translate(-329.33 -415.497)" fill="#fff"/>
          </g>
        </g>
      </g>
    </g>
  </g>
</svg>
