<svg xmlns="http://www.w3.org/2000/svg" xmlns:xlink="http://www.w3.org/1999/xlink" width="153.679" height="153.714" viewBox="0 0 153.679 153.714">
  <defs>
    <linearGradient id="linear-gradient" x1="0.738" y1="1.352" x2="0.04" y2="0.746" gradientUnits="objectBoundingBox">
      <stop offset="0" stop-color="#b37cff"/>
      <stop offset="1" stop-color="#f895e7"/>
    </linearGradient>
    <linearGradient id="linear-gradient-2" x1="0.337" y1="0.997" x2="-1.015" y2="0.244" gradientUnits="objectBoundingBox">
      <stop offset="0" stop-color="#cb236d"/>
      <stop offset="1" stop-color="#4c246d"/>
    </linearGradient>
    <linearGradient id="linear-gradient-3" x1="-0.255" y1="1.06" x2="0.447" y2="-0.121" gradientUnits="objectBoundingBox">
      <stop offset="0" stop-color="#a737d5"/>
      <stop offset="1" stop-color="#ef497a"/>
    </linearGradient>
    <linearGradient id="linear-gradient-4" x1="-0.301" y1="1.01" x2="0.333" y2="0.103" xlink:href="#linear-gradient-3"/>
    <linearGradient id="linear-gradient-5" x1="0.533" y1="-0.219" x2="1.852" y2="1.397" gradientUnits="objectBoundingBox">
      <stop offset="0" stop-color="#fdf53f"/>
      <stop offset="1" stop-color="#d93c65"/>
    </linearGradient>
    <linearGradient id="linear-gradient-6" x1="0.308" y1="-0.204" x2="2.133" y2="0.798" xlink:href="#linear-gradient-5"/>
    <linearGradient id="linear-gradient-7" x1="0.118" y1="-0.189" x2="2.075" y2="0.365" xlink:href="#linear-gradient-5"/>
    <linearGradient id="linear-gradient-8" x1="0.879" y1="-0.148" x2="1.247" y2="1.882" xlink:href="#linear-gradient-5"/>
    <linearGradient id="linear-gradient-9" x1="1.091" y1="0.012" x2="0.836" y2="2.043" xlink:href="#linear-gradient-5"/>
    <linearGradient id="linear-gradient-10" x1="-0.609" y1="0.929" x2="0.062" y2="0.15" xlink:href="#linear-gradient-5"/>
    <linearGradient id="linear-gradient-11" x1="1.354" y1="0.244" x2="-0.698" y2="3.343" xlink:href="#linear-gradient-5"/>
    <linearGradient id="linear-gradient-12" x1="1.278" y1="0.351" x2="-2.576" y2="5.491" xlink:href="#linear-gradient-5"/>
    <linearGradient id="linear-gradient-13" x1="1.282" y1="-0.195" x2="-0.6" y2="5.41" xlink:href="#linear-gradient-5"/>
    <linearGradient id="linear-gradient-14" y1="-0.015" x2="1" y2="-0.015" gradientUnits="objectBoundingBox">
      <stop offset="0" stop-color="#f9b776"/>
      <stop offset="1" stop-color="#f47960"/>
    </linearGradient>
    <linearGradient id="linear-gradient-15" x1="14.882" y1="-64.85" x2="13.552" y2="-58.57" gradientUnits="objectBoundingBox">
      <stop offset="0" stop-color="#53d8ff"/>
      <stop offset="1" stop-color="#3840f7"/>
    </linearGradient>
    <linearGradient id="linear-gradient-16" x1="2.386" y1="-8.621" x2="-0.598" y2="10.813" xlink:href="#linear-gradient-15"/>
    <linearGradient id="linear-gradient-17" x1="1.314" y1="-0.786" x2="0.81" y2="2.432" xlink:href="#linear-gradient-14"/>
    <linearGradient id="linear-gradient-18" x1="1.343" y1="-2.109" x2="-1.17" y2="20.935" xlink:href="#linear-gradient-15"/>
    <linearGradient id="linear-gradient-19" x1="10.76" y1="-72.561" x2="9.832" y2="-65.476" xlink:href="#linear-gradient-15"/>
    <linearGradient id="linear-gradient-20" x1="1.257" y1="-0.178" x2="0.747" y2="2.562" xlink:href="#linear-gradient-14"/>
    <linearGradient id="linear-gradient-21" x1="2.663" y1="-0.076" x2="0.246" y2="1.458" gradientUnits="objectBoundingBox">
      <stop offset="0" stop-color="#2b3582"/>
      <stop offset="1" stop-color="#150e42"/>
    </linearGradient>
    <linearGradient id="linear-gradient-22" x1="1.019" y1="0.164" x2="0.801" y2="2.166" xlink:href="#linear-gradient-15"/>
    <linearGradient id="linear-gradient-23" x1="1.231" y1="-0.097" x2="0.486" y2="2.772" xlink:href="#linear-gradient-14"/>
    <linearGradient id="linear-gradient-24" x1="0.902" y1="0.195" x2="1.171" y2="1.612" xlink:href="#linear-gradient-14"/>
    <linearGradient id="linear-gradient-25" x1="-0.144" y1="0.484" x2="0.458" y2="-0.057" xlink:href="#linear-gradient-21"/>
    <linearGradient id="linear-gradient-26" x1="0.085" y1="3.212" x2="-0.035" y2="0.377" xlink:href="#linear-gradient-14"/>
    <linearGradient id="linear-gradient-27" x1="5.812" y1="-0.524" x2="-0.565" y2="1.33" xlink:href="#linear-gradient-15"/>
    <linearGradient id="linear-gradient-28" x1="1.834" y1="-0.502" x2="0.918" y2="1.192" xlink:href="#linear-gradient-21"/>
    <linearGradient id="linear-gradient-29" x1="1.01" y1="0.345" x2="0.748" y2="4.553" xlink:href="#linear-gradient-15"/>
    <linearGradient id="linear-gradient-30" x1="2.005" y1="-1.133" x2="-1.195" y2="3.7" xlink:href="#linear-gradient-14"/>
    <linearGradient id="linear-gradient-31" x1="1.773" y1="-0.546" x2="-1.352" y2="5.483" xlink:href="#linear-gradient-14"/>
    <linearGradient id="linear-gradient-32" x1="1.294" y1="-0.192" x2="0.419" y2="2.212" xlink:href="#linear-gradient-15"/>
    <linearGradient id="linear-gradient-33" x1="1.226" y1="0.03" x2="0.754" y2="0.878" xlink:href="#linear-gradient-14"/>
    <linearGradient id="linear-gradient-34" x1="1.239" y1="0.169" x2="0.264" y2="3.345" xlink:href="#linear-gradient-15"/>
    <linearGradient id="linear-gradient-35" x1="0" y1="-0.004" x2="0.991" y2="-0.004" xlink:href="#linear-gradient-14"/>
    <linearGradient id="linear-gradient-36" x1="2.115" y1="-5.519" x2="0.917" y2="0.621" xlink:href="#linear-gradient-15"/>
    <linearGradient id="linear-gradient-37" x1="1.937" y1="-14.522" x2="1.078" y2="-0.627" xlink:href="#linear-gradient-15"/>
    <linearGradient id="linear-gradient-38" x1="0" y1="-0.005" x2="1" y2="-0.005" xlink:href="#linear-gradient-14"/>
    <linearGradient id="linear-gradient-39" x1="0.012" y1="-0.004" x2="1" y2="-0.004" xlink:href="#linear-gradient-14"/>
    <linearGradient id="linear-gradient-40" x1="-1.391" y1="1.004" x2="0.377" y2="-0.15" xlink:href="#linear-gradient-15"/>
    <linearGradient id="linear-gradient-41" x1="0.215" y1="-0.296" x2="1.793" y2="0.809" xlink:href="#linear-gradient-21"/>
    <linearGradient id="linear-gradient-42" x1="0.006" y1="-0.021" x2="1" y2="-0.021" xlink:href="#linear-gradient-14"/>
    <linearGradient id="linear-gradient-43" x1="0.985" y1="0.009" x2="4.576" y2="0.257" xlink:href="#linear-gradient-14"/>
    <linearGradient id="linear-gradient-44" x1="1.316" y1="0.34" x2="0.649" y2="1.202" xlink:href="#linear-gradient-21"/>
  </defs>
  <g id="Illustration" transform="translate(0 0)">
    <g id="_Group_" data-name="&lt;Group&gt;" transform="translate(0 0)">
      <path id="_Path_" data-name="&lt;Path&gt;" d="M187.157,103.23c-14.687,34.582-53.809,53.955-87.736,48.729-5.521-.85-20.655-3.383-34.055-15.333-25.8-23-31.312-68.556-10.5-100.657C70.007,12.6,97.155-.641,122.952.021c5.557.143,26.852,1.022,45.567,16.454a70.193,70.193,0,0,1,14.276,16.2C195.625,52.738,196.728,80.693,187.157,103.23Z" transform="translate(-39.823 0.002)" opacity="0.302" fill="url(#linear-gradient)"/>
      <g id="_Group_2" data-name="&lt;Group&gt;" transform="translate(0 1.447)">
        <g id="_Group_3" data-name="&lt;Group&gt;" transform="translate(0 20.512)">
          <path id="_Path_2" data-name="&lt;Path&gt;" d="M6.368,400.738a.955.955,0,0,1,1.852-.048c2.535,9.258,9.942,33.327,21.492,46.148,18.807,20.874,31.2,54.657,18.957,72.036Q-17.09,506.346,6.368,400.738Z" transform="translate(-0.2 -399.991)" fill="url(#linear-gradient-2)"/>
          <path id="_Path_3" data-name="&lt;Path&gt;" d="M144.253,650.965c.022.3.064.55.1.819l.115.789.248,1.574c.172,1.047.361,2.092.549,3.137q.576,3.132,1.223,6.25c.866,4.157,1.844,8.289,2.884,12.406s2.184,8.209,3.42,12.272,2.537,8.109,3.967,12.111a203.918,203.918,0,0,0,9.949,23.466c1.952,3.778,4,7.506,6.266,11.108a110.318,110.318,0,0,0,7.416,10.367.167.167,0,0,0,.264-.206v0a123.254,123.254,0,0,1-7.088-10.522c-2.193-3.618-4.172-7.36-6.052-11.148s-3.6-7.655-5.24-11.556-3.109-7.871-4.56-11.847c-2.868-7.966-5.309-16.082-7.525-24.256q-1.649-6.136-3.061-12.333-.712-3.1-1.362-6.207l-.621-3.116-.295-1.56-.138-.781c-.042-.256-.09-.531-.117-.758l0-.037a.166.166,0,0,0-.33.031Z" transform="translate(-136.345 -637.02)" fill="#fff" opacity="0.431"/>
        </g>
        <g id="_Group_4" data-name="&lt;Group&gt;" transform="translate(14.705)">
          <path id="_Path_4" data-name="&lt;Path&gt;" d="M291.687,26.818a.914.914,0,0,1,1.712.461c-.2,9.182.026,33.275,7.12,48.183,11.553,24.273,13.7,58.634-2.267,71.233Q241.365,117.267,291.687,26.818Z" transform="translate(-268.067 -26.348)" fill="url(#linear-gradient-3)"/>
          <path id="_Path_5" data-name="&lt;Path&gt;" d="M621.412,261.853c-.063.284-.092.522-.135.777l-.11.755-.2,1.511c-.128,1.007-.241,2.017-.353,3.026q-.327,3.029-.585,6.065c-.341,4.048-.572,8.105-.741,12.164s-.237,8.124-.213,12.188.114,8.129.333,12.189a194.872,194.872,0,0,0,2.723,24.234c.76,4,1.624,7.976,2.717,11.9a105.7,105.7,0,0,0,3.975,11.53.163.163,0,0,0,.3-.119v0a118.025,118.025,0,0,1-3.626-11.584c-1.023-3.915-1.818-7.887-2.507-11.873s-1.216-8-1.652-12.026-.7-8.066-.949-12.108c-.457-8.088-.482-16.2-.285-24.3q.16-6.076.556-12.145.19-3.034.443-6.064l.279-3.026.155-1.511.086-.754c.032-.246.063-.512.1-.726l.007-.036a.162.162,0,0,0-.317-.063Z" transform="translate(-599.799 -248.805)" fill="#fff" opacity="0.431"/>
        </g>
      </g>
      <g id="_Group_5" data-name="&lt;Group&gt;" transform="translate(93.562 25.919)">
        <path id="_Path_6" data-name="&lt;Path&gt;" d="M1704.49,593.43q8.578-75.226,40.833-119.349a4.89,4.89,0,0,1,8.357.926C1763.341,497.557,1785.24,566.784,1704.49,593.43Z" transform="translate(-1704.49 -472.136)" fill="url(#linear-gradient-4)"/>
        <path id="_Path_7" data-name="&lt;Path&gt;" d="M1830.885,1002.19c-.164.2.119.444.308.272,6.988-6.359,33.262-36.705,37.278-91.776a.147.147,0,0,0-.289-.038C1866.061,923.546,1856.741,971.275,1830.885,1002.19Z" transform="translate(-1823.9 -886.466)" fill="#fff" opacity="0.502"/>
      </g>
      <g id="_Group_6" data-name="&lt;Group&gt;" transform="translate(21.199 4.436)">
        <g id="_Group_7" data-name="&lt;Group&gt;" transform="translate(46.624)">
          <path id="_Path_8" data-name="&lt;Path&gt;" d="M1265.075,93.119l-5.19,5.264a1.749,1.749,0,0,0-.472,1.556l1.395,7.26a1.747,1.747,0,0,1-2.5,1.891l-6.61-3.309a1.745,1.745,0,0,0-1.625.032l-6.474,3.569a1.747,1.747,0,0,1-2.57-1.79l1.1-7.309a1.749,1.749,0,0,0-.533-1.536l-5.4-5.053a1.747,1.747,0,0,1,.908-3l7.293-1.209a1.747,1.747,0,0,0,1.3-.982l3.139-6.693a1.746,1.746,0,0,1,3.131-.062l3.4,6.562a1.746,1.746,0,0,0,1.334.929l7.335.917A1.747,1.747,0,0,1,1265.075,93.119Z" transform="translate(-1235.655 -80.809)" fill="url(#linear-gradient-5)"/>
          <path id="_Path_9" data-name="&lt;Path&gt;" d="M1304.763,288.705a3.43,3.43,0,0,0-1.084.379l-4.227,2.331a1.323,1.323,0,0,1-1.948-1.356l.721-4.774a3.438,3.438,0,0,0-1.049-3.021l-3.524-3.3a1.323,1.323,0,0,1,.688-2.271l2.434-.4.061.37-2.433.4a.948.948,0,0,0-.493,1.627l3.523,3.3a3.809,3.809,0,0,1,1.163,3.351l-.721,4.773a.947.947,0,0,0,1.394.971l4.228-2.331a3.807,3.807,0,0,1,1.2-.42Z" transform="translate(-1290.072 -265.559)" fill="#fff"/>
          <path id="_Path_10" data-name="&lt;Path&gt;" d="M1444.4,162.232a1.326,1.326,0,0,1-1.827.7l-3.3-1.653.169-.336,3.3,1.653a.947.947,0,0,0,1.354-1.026l-.91-4.74a3.847,3.847,0,0,1,1.028-3.395L1447.6,150a.948.948,0,0,0-.557-1.606l-4.791-.6a3.808,3.808,0,0,1-2.91-2.027l-2.223-4.285a.947.947,0,0,0-1.7.033l-2.05,4.372a3.8,3.8,0,0,1-.875,1.19l-.254-.277a3.4,3.4,0,0,0,.788-1.073l2.05-4.371a1.323,1.323,0,0,1,2.373-.047l2.223,4.286a3.434,3.434,0,0,0,2.624,1.827l4.79.6a1.323,1.323,0,0,1,.778,2.241l-3.389,3.438a3.466,3.466,0,0,0-.927,3.061l.91,4.74A1.317,1.317,0,0,1,1444.4,162.232Z" transform="translate(-1421.448 -137.313)" fill="#fff"/>
          <path id="_Path_11" data-name="&lt;Path&gt;" d="M1359.243,272.3l-1.442.239-.062-.37,1.442-.239Z" transform="translate(-1351.038 -261.438)" fill="#fff"/>
        </g>
        <g id="_Group_8" data-name="&lt;Group&gt;" transform="translate(20.023 11.7)">
          <path id="_Path_12" data-name="&lt;Path&gt;" d="M775.638,299.719l-2.676,5.915a1.534,1.534,0,0,0,.085,1.426l3.356,5.558a1.534,1.534,0,0,1-1.483,2.317l-6.453-.717a1.533,1.533,0,0,0-1.329.521l-4.25,4.91a1.534,1.534,0,0,1-2.663-.694l-1.312-6.359a1.536,1.536,0,0,0-.906-1.1l-5.982-2.524a1.534,1.534,0,0,1-.163-2.747l5.642-3.213a1.537,1.537,0,0,0,.77-1.2l.552-6.47a1.534,1.534,0,0,1,2.562-1l4.8,4.373a1.534,1.534,0,0,0,1.382.36l6.323-1.474A1.534,1.534,0,0,1,775.638,299.719Z" transform="translate(-751.087 -293.931)" fill="url(#linear-gradient-6)"/>
          <path id="_Path_13" data-name="&lt;Path&gt;" d="M816.361,509.273a3.007,3.007,0,0,0-.779.642l-2.775,3.206a1.162,1.162,0,0,1-2.017-.526l-.857-4.153a3.018,3.018,0,0,0-1.783-2.171l-3.907-1.649a1.162,1.162,0,0,1-.123-2.081L806,501.47l.163.287-1.883,1.072a.833.833,0,0,0,.088,1.49l3.907,1.649a3.346,3.346,0,0,1,1.977,2.408l.858,4.153a.832.832,0,0,0,1.444.377l2.775-3.206a3.327,3.327,0,0,1,.864-.712Z" transform="translate(-800.654 -490.077)" fill="#fff"/>
          <path id="_Path_14" data-name="&lt;Path&gt;" d="M917.748,358.769a1.165,1.165,0,0,1-1.292,1.135l-3.224-.358.036-.328,3.225.358a.832.832,0,0,0,.8-1.258l-2.192-3.63a3.378,3.378,0,0,1-.184-3.11l1.748-3.863a.832.832,0,0,0-.948-1.154l-4.13.962a3.344,3.344,0,0,1-3.014-.786l-3.135-2.856a.833.833,0,0,0-1.39.545l-.36,4.225a3.325,3.325,0,0,1-.359,1.246l-.293-.15a3.01,3.01,0,0,0,.323-1.124l.361-4.225a1.162,1.162,0,0,1,1.941-.76l3.135,2.856a3.016,3.016,0,0,0,2.717.708l4.13-.962a1.162,1.162,0,0,1,1.323,1.611l-1.748,3.863a3.047,3.047,0,0,0,.166,2.8l2.192,3.63A1.16,1.16,0,0,1,917.748,358.769Z" transform="translate(-894.698 -340.622)" fill="#fff"/>
          <path id="_Path_15" data-name="&lt;Path&gt;" d="M849.809,490.187l-1.115.635-.163-.287,1.115-.635Z" transform="translate(-843.181 -479.142)" fill="#fff"/>
        </g>
        <g id="_Group_9" data-name="&lt;Group&gt;" transform="translate(0 30.311)">
          <path id="_Path_16" data-name="&lt;Path&gt;" d="M407.33,634.76l-1.087,6.119a1.468,1.468,0,0,0,.415,1.3l4.424,4.364a1.468,1.468,0,0,1-.828,2.5l-6.156.857a1.468,1.468,0,0,0-1.11.8l-2.784,5.557a1.468,1.468,0,0,1-2.633-.015l-2.717-5.589a1.469,1.469,0,0,0-1.1-.81l-6.145-.93a1.468,1.468,0,0,1-.8-2.509l4.476-4.312a1.468,1.468,0,0,0,.43-1.3l-1.014-6.132a1.468,1.468,0,0,1,2.14-1.535l5.483,2.924a1.47,1.47,0,0,0,1.367.008l5.518-2.86A1.468,1.468,0,0,1,407.33,634.76Z" transform="translate(-386.358 -632.951)" fill="url(#linear-gradient-7)"/>
          <path id="_Path_17" data-name="&lt;Path&gt;" d="M447.878,847.954a2.88,2.88,0,0,0-.571.779l-1.818,3.629a1.112,1.112,0,0,1-1.995-.012l-1.775-3.65a2.887,2.887,0,0,0-2.166-1.593l-4.013-.608a1.112,1.112,0,0,1-.6-1.9l1.493-1.438.219.227-1.493,1.439a.8.8,0,0,0,.433,1.362l4.014.607a3.2,3.2,0,0,1,2.4,1.767l1.775,3.65a.8.8,0,0,0,1.429.009l1.818-3.629a3.194,3.194,0,0,1,.633-.864Z" transform="translate(-431.946 -831.62)" fill="#fff"/>
          <path id="_Path_18" data-name="&lt;Path&gt;" d="M513.536,686.377a1.114,1.114,0,0,1-.93,1.358l-3.075.429-.043-.313,3.075-.428a.8.8,0,0,0,.45-1.357l-2.889-2.85a3.234,3.234,0,0,1-.9-2.842l.71-4a.8.8,0,0,0-1.151-.847l-3.6,1.868a3.2,3.2,0,0,1-2.981-.018l-3.582-1.909a.8.8,0,0,0-1.161.833l.663,4a3.179,3.179,0,0,1-.039,1.241l-.307-.071a2.862,2.862,0,0,0,.035-1.118l-.662-4a1.112,1.112,0,0,1,1.621-1.163l3.581,1.909a2.886,2.886,0,0,0,2.688.016l3.6-1.868a1.113,1.113,0,0,1,1.607,1.182l-.71,4a2.914,2.914,0,0,0,.816,2.562l2.889,2.85A1.108,1.108,0,0,1,513.536,686.377Z" transform="translate(-491.041 -672.749)" fill="#fff"/>
          <path id="_Path_19" data-name="&lt;Path&gt;" d="M469.114,827.857l-.885.852-.219-.227.886-.853Z" transform="translate(-463.528 -816.943)" fill="#fff"/>
        </g>
        <g id="_Group_10" data-name="&lt;Group&gt;" transform="translate(76.622 12.146)">
          <path id="_Path_20" data-name="&lt;Path&gt;" d="M1805.992,317.366,1800,319.024a1.47,1.47,0,0,0-1,.936l-2.029,5.874a1.468,1.468,0,0,1-2.613.33l-3.429-5.183a1.469,1.469,0,0,0-1.2-.658l-6.214-.115a1.468,1.468,0,0,1-1.122-2.383l3.871-4.862a1.47,1.47,0,0,0,.256-1.342l-1.811-5.945a1.468,1.468,0,0,1,1.919-1.8l5.82,2.178a1.468,1.468,0,0,0,1.356-.171l5.095-3.56a1.468,1.468,0,0,1,2.308,1.268l-.273,6.209a1.469,1.469,0,0,0,.582,1.236l4.96,3.745A1.468,1.468,0,0,1,1805.992,317.366Z" transform="translate(-1782.081 -302.053)" fill="url(#linear-gradient-8)"/>
          <path id="_Path_21" data-name="&lt;Path&gt;" d="M1834.319,385.094a2.891,2.891,0,0,0-.949-.179l-4.058-.075a1.113,1.113,0,0,1-.85-1.8l2.527-3.176a2.887,2.887,0,0,0,.5-2.641l-1.183-3.883a1.113,1.113,0,0,1,1.454-1.366l1.942.727-.11.3-1.942-.727a.8.8,0,0,0-1.042.979l1.183,3.882a3.2,3.2,0,0,1-.558,2.929l-2.527,3.176a.8.8,0,0,0,.608,1.293l4.058.075a3.208,3.208,0,0,1,1.053.2Z" transform="translate(-1825.686 -368.064)" fill="#fff"/>
          <path id="_Path_22" data-name="&lt;Path&gt;" d="M1977.889,366.265a1.114,1.114,0,0,1-1.626-.254l-1.713-2.59.263-.174,1.713,2.59a.8.8,0,0,0,1.417-.18l1.325-3.836a3.234,3.234,0,0,1,2.173-2.042l3.911-1.083a.8.8,0,0,0,.268-1.4l-3.239-2.446a3.2,3.2,0,0,1-1.27-2.7l.178-4.055a.8.8,0,0,0-1.252-.688l-3.327,2.325a3.184,3.184,0,0,1-1.136.5l-.068-.308a2.868,2.868,0,0,0,1.024-.451l3.327-2.325a1.112,1.112,0,0,1,1.748.961l-.178,4.055a2.886,2.886,0,0,0,1.145,2.432l3.24,2.446a1.113,1.113,0,0,1-.374,1.96l-3.911,1.083a2.915,2.915,0,0,0-1.959,1.841l-1.326,3.836A1.109,1.109,0,0,1,1977.889,366.265Z" transform="translate(-1963.984 -344.48)" fill="#fff"/>
          <path id="_Path_23" data-name="&lt;Path&gt;" d="M1927.321,387.166l-1.151-.431.11-.3,1.151.431Z" transform="translate(-1918.26 -381.807)" fill="#fff"/>
        </g>
        <g id="_Group_11" data-name="&lt;Group&gt;" transform="translate(96.2 28.213)">
          <path id="_Path_24" data-name="&lt;Path&gt;" d="M2161.981,613.729l-6.21-.22a1.467,1.467,0,0,0-1.231.592l-3.7,4.992a1.469,1.469,0,0,1-2.591-.471l-1.709-5.975a1.469,1.469,0,0,0-.944-.988l-5.891-1.979a1.468,1.468,0,0,1-.353-2.61l5.154-3.472a1.47,1.47,0,0,0,.648-1.2l.061-6.215a1.468,1.468,0,0,1,2.373-1.142l4.9,3.829a1.471,1.471,0,0,0,1.345.244l5.929-1.862a1.468,1.468,0,0,1,1.819,1.9l-2.128,5.839a1.468,1.468,0,0,0,.183,1.354l3.6,5.064A1.468,1.468,0,0,1,2161.981,613.729Z" transform="translate(-2138.699 -594.723)" fill="url(#linear-gradient-9)"/>
          <path id="_Path_25" data-name="&lt;Path&gt;" d="M2194.041,654.223a2.865,2.865,0,0,0-.852-.456l-3.847-1.293a1.112,1.112,0,0,1-.267-1.977l3.366-2.268a2.888,2.888,0,0,0,1.274-2.367l.04-4.059a1.113,1.113,0,0,1,1.8-.865l1.634,1.278-.194.249-1.634-1.278a.8.8,0,0,0-1.288.62l-.04,4.059a3.2,3.2,0,0,1-1.413,2.626l-3.366,2.268a.8.8,0,0,0,.191,1.416l3.847,1.293a3.2,3.2,0,0,1,.945.506Z" transform="translate(-2185.845 -638.177)" fill="#fff"/>
          <path id="_Path_26" data-name="&lt;Path&gt;" d="M2313.429,693.921a1.115,1.115,0,0,1-1.474-.731l-.854-2.985.3-.087.854,2.985a.8.8,0,0,0,1.406.255l2.418-3.26a3.237,3.237,0,0,1,2.687-1.293l4.056.144a.8.8,0,0,0,.678-1.259l-2.354-3.307a3.2,3.2,0,0,1-.4-2.955l1.39-3.814a.8.8,0,0,0-.987-1.033l-3.873,1.216a3.193,3.193,0,0,1-1.234.136l.027-.315a2.87,2.87,0,0,0,1.113-.122l3.872-1.216a1.112,1.112,0,0,1,1.378,1.443l-1.39,3.813a2.884,2.884,0,0,0,.359,2.664l2.354,3.308a1.113,1.113,0,0,1-.946,1.757l-4.056-.144a2.915,2.915,0,0,0-2.422,1.166l-2.418,3.259A1.119,1.119,0,0,1,2313.429,693.921Z" transform="translate(-2301.635 -671.754)" fill="#fff"/>
          <path id="_Path_27" data-name="&lt;Path&gt;" d="M2342.728,669.3l-.968-.757.194-.249.968.758Z" transform="translate(-2330.613 -664.251)" fill="#fff"/>
        </g>
      </g>
      <g id="_Group_12" data-name="&lt;Group&gt;" transform="translate(27.295 42.421)">
        <path id="_Path_28" data-name="&lt;Path&gt;" d="M606.939,827.495a54.775,54.775,0,1,1-54.774-54.775A54.774,54.774,0,0,1,606.939,827.495Z" transform="translate(-497.39 -772.72)" fill="url(#linear-gradient-10)"/>
        <path id="_Path_29" data-name="&lt;Path&gt;" d="M636.477,858.853A52.953,52.953,0,1,1,583.523,805.9,52.953,52.953,0,0,1,636.477,858.853Z" transform="translate(-528.749 -804.078)" fill="url(#linear-gradient-11)"/>
        <path id="_Path_30" data-name="&lt;Path&gt;" d="M597.33,1609.388H597.3a.5.5,0,0,1-.475-.526,49.747,49.747,0,0,1,.717-6.2.5.5,0,1,1,.987.178,48.7,48.7,0,0,0-.7,6.077A.5.5,0,0,1,597.33,1609.388Z" transform="translate(-591.369 -1556.706)" fill="#fff"/>
        <path id="_Path_31" data-name="&lt;Path&gt;" d="M691.13,898.818a.5.5,0,0,1-.225-.054.5.5,0,0,1-.222-.673A49.178,49.178,0,0,1,734.8,870.93a49.881,49.881,0,0,1,8.908.8.5.5,0,1,1-.18.986,48.843,48.843,0,0,0-8.729-.785,48.179,48.179,0,0,0-43.217,26.609A.5.5,0,0,1,691.13,898.818Z" transform="translate(-680.02 -865.539)" fill="#fff"/>
        <path id="_Path_32" data-name="&lt;Path&gt;" d="M789.4,1019.919A44.819,44.819,0,1,1,744.578,975.1,44.819,44.819,0,0,1,789.4,1019.919Z" transform="translate(-688.65 -963.99)" fill="#fff" opacity="0.78"/>
        <path id="_Path_33" data-name="&lt;Path&gt;" d="M1293,1259.673c0,7.589-6.152,15.781-13.741,15.781s-13.741-8.193-13.741-15.781,6.152-12.973,13.741-12.973S1293,1252.084,1293,1259.673Z" transform="translate(-1223.351 -1220.68)" fill="url(#linear-gradient-12)"/>
        <path id="_Path_34" data-name="&lt;Path&gt;" d="M1041.433,1875.131h33.544a8.119,8.119,0,0,0,7.733-5.646l1.805-5.641a8.111,8.111,0,0,0-4.9-10.092c-13.651-4.991-27.767-4.351-42.227.461a8.085,8.085,0,0,0-5.181,9.8l1.39,5.124A8.119,8.119,0,0,0,1041.433,1875.131Z" transform="translate(-1002.576 -1791.138)" fill="url(#linear-gradient-13)"/>
      </g>
      <g id="_Group_13" data-name="&lt;Group&gt;" transform="translate(15.061 81.568)">
        <path id="_Path_35" data-name="&lt;Path&gt;" d="M327.567,2019.58a11.012,11.012,0,0,1-2.557,1.869,21.234,21.234,0,0,0,4.673,4.155l.578,1.3,1.852-2.22A8.8,8.8,0,0,1,327.567,2019.58Z" transform="translate(-322.24 -1990.277)" fill="url(#linear-gradient-14)"/>
        <path id="_Path_36" data-name="&lt;Path&gt;" d="M460.427,2717.931a.451.451,0,0,0-.013-.121,6.134,6.134,0,0,0-3.577-3.86l-1.18.093a8.18,8.18,0,0,0-.482,3.954.444.444,0,0,0,.012.047A28.082,28.082,0,0,0,460.427,2717.931Z" transform="translate(-445.189 -2646.528)" fill="url(#linear-gradient-15)"/>
        <path id="_Path_37" data-name="&lt;Path&gt;" d="M456.68,2786.563a.512.512,0,0,0,.374.379,16.2,16.2,0,0,0,4.509-.065.429.429,0,0,0,.356-.427A28.013,28.013,0,0,1,456.68,2786.563Z" transform="translate(-446.682 -2715.048)" fill="url(#linear-gradient-16)"/>
        <path id="_Path_38" data-name="&lt;Path&gt;" d="M456.6,2683.63l.5,2.405a.394.394,0,0,0,.336.324,3.391,3.391,0,0,0,.774-.012.5.5,0,0,0,.391-.581l-.348-2.136Z" transform="translate(-446.606 -2617.873)" fill="url(#linear-gradient-17)"/>
        <path id="_Path_39" data-name="&lt;Path&gt;" d="M605.152,2782.362a7.03,7.03,0,0,1-2.325-.332c0,.13,0,.262,0,.4a.257.257,0,0,0,.245.262l7.154-.046a.326.326,0,0,0,.263-.475C609.556,2782.245,607.167,2782.419,605.152,2782.362Z" transform="translate(-584.805 -2710.871)" fill="url(#linear-gradient-18)"/>
        <path id="_Path_40" data-name="&lt;Path&gt;" d="M610.5,2724.2a.367.367,0,0,0-.029-.054,9.115,9.115,0,0,0-5.421-3.4l-1.525-.048a6.916,6.916,0,0,0-.692,3.368,7.047,7.047,0,0,0,2.326.332C607.17,2724.446,609.559,2724.273,610.5,2724.2Z" transform="translate(-584.808 -2652.898)" fill="url(#linear-gradient-19)"/>
        <path id="_Path_41" data-name="&lt;Path&gt;" d="M610.29,2672.209c.016.114.226,1.842.307,2.512a.331.331,0,0,0,.28.3,3.507,3.507,0,0,0,1.048-.016.451.451,0,0,0,.342-.453v-2.713Z" transform="translate(-591.859 -2606.73)" fill="url(#linear-gradient-20)"/>
        <path id="_Path_42" data-name="&lt;Path&gt;" d="M421.122,2104.08a122.453,122.453,0,0,1,3.613,31.578.68.68,0,0,1-.54.664,7.89,7.89,0,0,1-1.706.2.632.632,0,0,1-.6-.527c-.516-3.026-3.477-20.069-5.163-22.836a211.84,211.84,0,0,0-.755,23.055.373.373,0,0,1-.329.388,6.306,6.306,0,0,1-1.369,0,.5.5,0,0,1-.445-.424c-.367-2.561-2.482-17.8-2.392-28.78a11.177,11.177,0,0,1,1.638-3.312Z" transform="translate(-403.915 -2070.139)" fill="url(#linear-gradient-21)"/>
        <path id="_Path_43" data-name="&lt;Path&gt;" d="M296.876,1710.624a15.352,15.352,0,0,1-1.558-2.377c-.611-1.155-.049.748-.216-.556-4.577-3.3-11.468-1.631-14.134-1.3a3.564,3.564,0,0,0-2.25,1.208c-2.284,2.643-7.3,9.881-1.4,17.174a11.012,11.012,0,0,0,2.557-1.869,9.013,9.013,0,0,1,.661-7.075,6.651,6.651,0,0,0,.175.677,41.943,41.943,0,0,1,1.982,12.09.378.378,0,0,0,.238.353c2.481.994,7.258.4,8.861.164a.539.539,0,0,0,.451-.612c-.787-5.7,3.252-15.08,4.318-17.429A1.565,1.565,0,0,1,296.876,1710.624Z" transform="translate(-274.552 -1693.604)" fill="url(#linear-gradient-22)"/>
        <path id="_Path_44" data-name="&lt;Path&gt;" d="M461.318,1628.978l-.478,4.886a5.225,5.225,0,0,0,4.748-.583l-1.405-4.441Z" transform="translate(-450.613 -1620.988)" fill="url(#linear-gradient-23)"/>
        <g id="_Group_14" data-name="&lt;Group&gt;" transform="translate(8.464)">
          <path id="_Path_45" data-name="&lt;Path&gt;" d="M465.075,1525.551q.066.062,2.792,5.415l-3.09,1.492-3.337-4.689Q463.967,1524.508,465.075,1525.551Z" transform="translate(-459.645 -1523.131)" fill="url(#linear-gradient-24)"/>
          <path id="_Path_46" data-name="&lt;Path&gt;" d="M431.9,1490.582a.494.494,0,0,0,.037.433l1.54,2.569a.494.494,0,0,0,.085.1.809.809,0,0,0,1.3-.009,4.337,4.337,0,0,1,1.218-1.316.492.492,0,0,1,.665.219,18.444,18.444,0,0,1,1.055,2.5.491.491,0,0,1-.286.6,13.691,13.691,0,0,1-2.959.863.492.492,0,0,1-.466-.2c-.472-.647-1.8-2.454-2.257-2.906-.422-.42-1.2-.261-1.551-.161a.5.5,0,0,1-.394-.052,1.086,1.086,0,0,1-.408-1.652.493.493,0,0,0-.153-.67,1.09,1.09,0,0,1-.418-1.547,1.537,1.537,0,0,1,1.664-.815.513.513,0,0,0,.537-.3.325.325,0,0,1,.254-.2.478.478,0,0,0,.387-.562,1.262,1.262,0,0,1,.7-1.446c1.333-.733,2.5.461,2.8,1.469s-1.194,1.72-2.131,1.839C432.429,1489.438,432.051,1490.189,431.9,1490.582Z" transform="translate(-428.737 -1485.814)" fill="url(#linear-gradient-25)"/>
          <path id="_Path_47" data-name="&lt;Path&gt;" d="M456.855,1613.173q-.592-1.734-1.351-1.671c-.759.064-1.356.82-.416,1.67Q456.257,1614.228,456.855,1613.173Z" transform="translate(-453.186 -1604.599)" fill="url(#linear-gradient-26)"/>
        </g>
        <path id="_Path_48" data-name="&lt;Path&gt;" d="M367.009,1777.976a15.461,15.461,0,0,1-.634-6.075l.276.032a15.16,15.16,0,0,0,.619,5.948Z" transform="translate(-361.271 -1756.195)" fill="url(#linear-gradient-27)"/>
        <path id="_Path_49" data-name="&lt;Path&gt;" d="M456.891,2213.909a.138.138,0,0,1-.134-.1c-.305-1.176-2.59-2.47-2.613-2.483a.139.139,0,0,1,.136-.242c.1.055,2.411,1.365,2.745,2.655a.139.139,0,0,1-.1.169A.124.124,0,0,1,456.891,2213.909Z" transform="translate(-444.218 -2171.248)" fill="url(#linear-gradient-28)"/>
        <g id="_Group_15" data-name="&lt;Group&gt;" transform="translate(14.648 12.325)">
          <path id="_Path_50" data-name="&lt;Path&gt;" d="M558.346,1716.561c-5.176.777-8.55-2.489-11.064-4.47q-3.319-2.616-5.9-1.343l3.54,6.756a11.926,11.926,0,0,0,14.122,2.262A6.588,6.588,0,0,0,558.346,1716.561Z" transform="translate(-541.38 -1710.33)" fill="url(#linear-gradient-29)"/>
          <path id="_Path_51" data-name="&lt;Path&gt;" d="M857.7,1767.57l-1.717.923a15.02,15.02,0,0,1-5.559,2.165,6.586,6.586,0,0,1,.7,3.2,14.454,14.454,0,0,0,3.539-2.262Q858.544,1769.281,857.7,1767.57Z" transform="translate(-833.454 -1764.428)" fill="url(#linear-gradient-30)"/>
        </g>
        <path id="_Path_52" data-name="&lt;Path&gt;" d="M950.855,1740.218a1.265,1.265,0,0,0-.74-.81l-3.484-1.4q-.053-.447.736-.75a.926.926,0,0,0,.6-1.187q-1.078.491-2.655,1.271a3.691,3.691,0,0,0-1.677,1.825l.9,1.18a15.949,15.949,0,0,0,6.511.512Z" transform="translate(-906.909 -1722.331)" fill="url(#linear-gradient-31)"/>
      </g>
      <g id="_Group_16" data-name="&lt;Group&gt;" transform="translate(31.594 67.856)">
        <path id="_Path_53" data-name="&lt;Path&gt;" d="M591.407,1236.492c5.314,1.164,10.829,5.082,10.893,10.984.054,5.019-5.43,7.21-8.8,8.175a4.009,4.009,0,0,0-2.277,1.7c-1.26,1.974-4.07,5.356-7.829,3.831a.284.284,0,0,1,.084-.544,4.306,4.306,0,0,0,3.028-1.379,2.408,2.408,0,0,0-1.305-3.8c-3.154-.832-9.238-3.422-9.476-11.04Q575.4,1234.114,591.407,1236.492Z" transform="translate(-575.714 -1236.046)" fill="url(#linear-gradient-32)"/>
        <path id="_Path_54" data-name="&lt;Path&gt;" d="M727.417,1350.82q-.688-3.37-4.007-2.37c-3.143.947-1.548,5.209,3.338,7.422a1.79,1.79,0,0,0,1.645-.089c1.878-1.1,6.194-4.118,3.208-7.149Q729.672,1346.678,727.417,1350.82Z" transform="translate(-713.77 -1341.861)" fill="#fff"/>
        <path id="_Path_55" data-name="&lt;Path&gt;" d="M826.714,1260a.328.328,0,0,0,.241-.492c-2.46-4.2-7.226-5.591-10.791-6.022a.328.328,0,1,0-.078.652c3.417.413,7.979,1.737,10.3,5.7A.327.327,0,0,0,826.714,1260Z" transform="translate(-802.616 -1252.528)" fill="#fff"/>
        <path id="_Path_56" data-name="&lt;Path&gt;" d="M1029.076,1414.744a.329.329,0,0,0,.286-.321,7.741,7.741,0,0,0-.208-1.644.329.329,0,0,0-.641.143,7.151,7.151,0,0,1,.192,1.491.329.329,0,0,0,.323.334A.347.347,0,0,0,1029.076,1414.744Z" transform="translate(-1003.648 -1402.834)" fill="#fff"/>
      </g>
      <g id="_Group_17" data-name="&lt;Group&gt;" transform="translate(108.275 59.562)">
        <path id="_Path_57" data-name="&lt;Path&gt;" d="M2333.332,1505.63q-7.425,9.507,1.047,19.177l3.185-.3q-6.131-9.845-3.4-17.693l4.512.33,2.5-1.627Z" transform="translate(-2310.246 -1482.432)" fill="url(#linear-gradient-33)"/>
        <g id="_Group_18" data-name="&lt;Group&gt;">
          <path id="_Path_58" data-name="&lt;Path&gt;" d="M1973.7,1086.784l35.26-1.82a1.134,1.134,0,0,1,1.294.927l.8,21.352a1.143,1.143,0,0,1-1.232,1.028c-6.384.134-34.727.734-35.975.83s-1.326-17.08-1.33-21.319A1.142,1.142,0,0,1,1973.7,1086.784Z" transform="translate(-1972.51 -1084.961)" fill="url(#linear-gradient-34)"/>
          <path id="_Compound_Path_" data-name="&lt;Compound Path&gt;" d="M1991.285,1121.232l-.024-.089c-.531-1.952-.881-9.989-.891-20.475a.247.247,0,0,1,.248-.232l35.26-1.82a.276.276,0,0,1,.179.051.214.214,0,0,1,.093.168l.8,21.351a.246.246,0,0,1-.247.24h-.008c-5.078.107-30.65.647-35.313.8Zm34.609-22.382h0l-35.26,1.821a.041.041,0,0,0-.029.01c.013,10.3.35,18.23.863,20.311,4.9-.16,30.173-.693,35.221-.8h0l-.775-21.349C2025.915,1098.852,2025.908,1098.85,2025.894,1098.85Z" transform="translate(-1989.39 -1097.866)" fill="#fff" fill-rule="evenodd"/>
          <path id="_Path_59" data-name="&lt;Path&gt;" d="M2413.908,1138.5c.024.54.224.969.445.96l9.8-.437c.222-.01.382-.456.358-1s-.223-.97-.445-.96l-9.8.437C2414.044,1137.513,2413.885,1137.959,2413.908,1138.5Z" transform="translate(-2389.674 -1134.206)" fill="#fff"/>
          <path id="_Path_60" data-name="&lt;Path&gt;" d="M2414.72,1195.347a.452.452,0,0,0,.423.471l9.8-.437a.5.5,0,0,0-.044-.977l-9.8.437A.452.452,0,0,0,2414.72,1195.347Z" transform="translate(-2390.443 -1188.396)" fill="#fff"/>
          <path id="_Path_61" data-name="&lt;Path&gt;" d="M2414.72,1232.427a.452.452,0,0,0,.423.471l9.8-.437a.5.5,0,0,0-.044-.978l-9.8.437A.452.452,0,0,0,2414.72,1232.427Z" transform="translate(-2390.443 -1223.44)" fill="#fff"/>
          <path id="_Compound_Path_2" data-name="&lt;Compound Path&gt;" d="M2140.59,1162.735h-.395a.47.47,0,0,1-.464-.415l-.854-7.358a.469.469,0,0,1,.415-.521,3.323,3.323,0,0,0,1.286-.467,3.632,3.632,0,0,0,.615-1.243,8.305,8.305,0,0,1,1.379-2.6,4.83,4.83,0,0,0,.916-3.443,1.492,1.492,0,0,1,.887-1.4c.351-.137,1.054-.207,1.82.853.957,1.325.539,3.108.263,4.287a6.524,6.524,0,0,0-.178.927.2.2,0,0,0,0,.036,5.934,5.934,0,0,0,1.978-.133c.349-.054.705-.109,1.05-.149,1.215-.141,2.643-.088,2.91,1.582a1.817,1.817,0,0,1-.482,1.536,2.051,2.051,0,0,1,.827,1.5,1.824,1.824,0,0,1-.422,1.164,1.747,1.747,0,0,1,.54,1.669,2.065,2.065,0,0,1-.645,1.123,1.048,1.048,0,0,1,.268.725c-.022.815-1.006,1.629-2.339,1.936C2148.354,1162.71,2142.229,1162.735,2140.59,1162.735Zm-.73-7.45.755,6.511a80.275,80.275,0,0,0,9.142-.372c1.061-.244,1.6-.8,1.611-1.047,0-.094-.173-.209-.438-.286a.469.469,0,0,1,.088-.919,1,1,0,0,0,.746-.8.889.889,0,0,0-.561-1.007.47.47,0,0,1-.054-.8,1.21,1.21,0,0,0,.479-.825c-.014-.436-.495-.835-.9-1.093a.47.47,0,0,1,.02-.8,1.086,1.086,0,0,0,.542-1.008c-.074-.468-.16-1-1.875-.8-.332.039-.677.092-1.014.145-1.254.194-2.244.348-2.765-.122a.913.913,0,0,1-.295-.755,6.69,6.69,0,0,1,.2-1.095c.252-1.075.6-2.547-.11-3.524-.274-.379-.544-.584-.707-.532a.6.6,0,0,0-.306.429,5.8,5.8,0,0,1-1.142,4.16,7.448,7.448,0,0,0-1.208,2.318,3.418,3.418,0,0,1-.975,1.693A4.071,4.071,0,0,1,2139.86,1155.285Z" transform="translate(-2129.741 -1141.901)" fill="#fff" fill-rule="evenodd"/>
        </g>
        <path id="_Path_62" data-name="&lt;Path&gt;" d="M2467.13,2312.239q6.016,13.113,9.173,18.544.627,3.419,0,4.492l-.534.238,2.493-.074a26.934,26.934,0,0,0,.049-4.854.549.549,0,0,0-.519-.24q-1.069-8.471-4.166-10.279l-3-10.336Z" transform="translate(-2439.977 -2242.493)" fill="url(#linear-gradient-35)"/>
        <path id="_Path_63" data-name="&lt;Path&gt;" d="M2605.09,2690.637c0,.06,1.947.032,3.007.013a.844.844,0,0,0,.808-.665l.8-4.2a.756.756,0,0,0-.574-.878l-.447-.1a2.012,2.012,0,0,0-.437,1.7c.2.823.379,2.955-.128,3.2a5.508,5.508,0,0,1-1.965.292Q2605.123,2690.095,2605.09,2690.637Z" transform="translate(-2570.363 -2596.973)" fill="url(#linear-gradient-36)"/>
        <path id="_Path_64" data-name="&lt;Path&gt;" d="M2361.332,2754.772a.22.22,0,0,0,.112.411c1.773-.018,5.747-.074,6.1-.221.456-.19-.166-1.828-.821-2.383l-3.615,1.18Z" transform="translate(-2339.881 -2661.031)" fill="url(#linear-gradient-37)"/>
        <path id="_Path_65" data-name="&lt;Path&gt;" d="M2342.81,2340.2q3.888,18.809,4.988,22.478l-2.6,1.633q1.3-.222,2.271-.292a2.716,2.716,0,0,0,1.856-1.18l-.312-.5q-.975-18.706-.737-20.831Z" transform="translate(-2322.481 -2271.29)" fill="url(#linear-gradient-38)"/>
        <path id="_Path_66" data-name="&lt;Path&gt;" d="M2091.625,1445.5q-.537,9.784,8.371,14.784l-2.145,4.891q-8.064-4.878-7.766-18.183a1.542,1.542,0,0,0-.379-1.042l-1.714-1.989a3.079,3.079,0,0,1-.654-2.755l.226-.9a.468.468,0,0,1,.688-.291l.18.1a3.145,3.145,0,0,1,1.292,1.436l.842,1.882a1.809,1.809,0,0,0,1.806,1.063l.521-.045Z" transform="translate(-2080.947 -1420.463)" fill="url(#linear-gradient-39)"/>
        <path id="_Path_67" data-name="&lt;Path&gt;" d="M2276.854,1796.694c1.491.413,6.539,1.741,9.691,1.687l-1.935,10.921.154,1.781-6.31-.028a38.69,38.69,0,0,0-3.177-6.182c-.4-.594-.1-1.3.126-1.984l-.315-.21a.857.857,0,0,1-.34-.981l1.536-4.7A.468.468,0,0,1,2276.854,1796.694Z" transform="translate(-2258.115 -1757.605)" fill="url(#linear-gradient-40)"/>
        <path id="_Path_68" data-name="&lt;Path&gt;" d="M2323.648,2037.839l.124,1.079q-1.783,5.34.892,17.812a11.008,11.008,0,0,0,10.554-2.285q-1.343-11.772-1.709-12.32a9.868,9.868,0,0,0-3.044-3.325l-.055-1.179Q2325.317,2038.541,2323.648,2037.839Z" transform="translate(-2303.815 -1985.321)" fill="url(#linear-gradient-41)"/>
        <path id="_Path_69" data-name="&lt;Path&gt;" d="M2378.774,1743.4q-.022-.029,1.317-4.044l1.919.174.749,4.554Q2379.752,1744.7,2378.774,1743.4Z" transform="translate(-2356.47 -1703.435)" fill="url(#linear-gradient-42)"/>
        <path id="_Path_70" data-name="&lt;Path&gt;" d="M2371.4,1620.659c-.128.08-4.1,1.722-3.247,5.845a.775.775,0,0,0,.44.551,6.724,6.724,0,0,0,3.339.553c2.081-.211,3.444-3.842,3.386-4.9S2372.669,1619.869,2371.4,1620.659Z" transform="translate(-2346.322 -1591.065)" fill="url(#linear-gradient-43)"/>
        <path id="_Path_71" data-name="&lt;Path&gt;" d="M2383.025,1593.183c-.1.014-2.3.777-1.209,2.365s1.494,2.522.98,3.219c-.468.635-1.505.273-1.415,1.594a.742.742,0,0,1-.316.67c-.977.662-3.362,2.7-1,5.6a.742.742,0,0,1,.083.828c-.692,1.24-2.146,4.876,3.116,6.893,5.2,1.993,7.077-1.406,7.6-2.764a.727.727,0,0,1,.718-.459c.571.027,1.381-.068,1.344-.832a1.906,1.906,0,0,0-.654-1.212.725.725,0,0,1,.14-1.141,1.418,1.418,0,0,0,.7-.881,4.614,4.614,0,0,0-3.66-5.25.791.791,0,0,1-.612-.592s0-.008,0-.012a.722.722,0,0,1,.269-.711,1.879,1.879,0,0,0,.663-2.447,2.743,2.743,0,0,0-2.144-1.622.729.729,0,0,1-.6-.871C2387.268,1594.443,2387.061,1592.654,2383.025,1593.183Z" transform="translate(-2356.736 -1565.193)" fill="url(#linear-gradient-44)"/>
      </g>
    </g>
  </g>
</svg>
